<?xml version="1.0" encoding="UTF-8" standalone="no"?>
<!-- Created with Inkscape (http://www.inkscape.org/) -->

<svg
   version="1.1"
   id="svg59"
   width="180"
   height="180"
   viewBox="0 0 180 180"
   sodipodi:docname="balance.svg"
   inkscape:version="1.2.2 (732a01da63, 2022-12-09)"
   xmlns:inkscape="http://www.inkscape.org/namespaces/inkscape"
   xmlns:sodipodi="http://sodipodi.sourceforge.net/DTD/sodipodi-0.dtd"
   xmlns="http://www.w3.org/2000/svg"
   xmlns:svg="http://www.w3.org/2000/svg">
  <defs
     id="defs63" />
  <sodipodi:namedview
     id="namedview61"
     pagecolor="#ffffff"
     bordercolor="#000000"
     borderopacity="0.25"
     inkscape:showpageshadow="2"
     inkscape:pageopacity="0.0"
     inkscape:pagecheckerboard="0"
     inkscape:deskcolor="#d1d1d1"
     showgrid="false"
     inkscape:zoom="3.197694"
     inkscape:cx="126.9665"
     inkscape:cy="102.57392"
     inkscape:window-width="1920"
     inkscape:window-height="1017"
     inkscape:window-x="-8"
     inkscape:window-y="-8"
     inkscape:window-maximized="1"
     inkscape:current-layer="g65" />
  <g
     inkscape:groupmode="layer"
     inkscape:label="Image"
     id="g65">
    <path
       style="fill:#000000"
       d="m 76.672076,141.17294 c -9.18302,-2.56911 -10.79992,-4.90929 -7.43346,-10.75864 l 2.15658,-3.74714 -3.38123,-3.27721 c -3.20396,-3.1054 -3.79096,-3.28336 -11.19669,-3.3945 -6.13547,-0.0921 -8.38847,-0.54721 -10.48107,-2.11729 -5.56272,-4.17372 -7.492,-11.01089 -4.14927,-14.70458 1.1387,-1.25824 1.61155,-3.283751 1.45819,-6.246321 -0.18835,-3.6387 0.29033,-4.97342 2.81487,-7.8487 3.38021,-3.849856 3.74119,-5.218047 1.59409,-6.041967 -2.53484,-0.97271 -4.813,-6.664421 -4.19407,-10.478408 0.71079,-4.380122 5.95414,-9.962175 10.07787,-10.728881 3.89784,-0.724708 10.21134,1.862608 11.05852,4.531863 0.3521,1.109344 0.9579,2.016989 1.34624,2.016989 2.02553,0 16.42892,-16.291124 19.6687,-22.246516 2.01859,-3.710584 4.03912,-6.974544 4.49007,-7.253244 1.24434,-0.769043 4.00039,0.553654 4.00039,1.919885 0,2.845362 8.790124,15.644177 15.319134,22.305365 l 7.08212,7.225491 1.2475,-2.966933 c 0.72541,-1.725243 2.71949,-3.668872 4.7647,-4.644167 7.2657,-3.464768 16.58655,2.622568 16.58655,10.832474 0,4.474654 -2.84851,9.327401 -6.07646,10.351912 -1.87033,0.593621 -1.71606,0.977159 2.02598,5.036797 4.38825,4.76069 4.8896,6.79591 2.51075,10.1922 -1.41691,2.022921 -1.37703,2.337581 0.5,3.944751 4.26985,3.65596 1.13488,12.60536 -5.52225,15.76438 -2.34557,1.11304 -5.54691,1.59301 -9.53865,1.4301 -5.53191,-0.22577 -6.25245,-9.4e-4 -9.08953,2.83613 l -3.08134,3.08135 2.13575,2.99938 c 2.47672,3.47824 2.76756,7.42141 0.67544,9.15771 -2.6021,2.15955 -15.854884,5.00025 -23.039694,4.9385 -3.85,-0.0331 -10.29838,-0.98294 -14.32973,-2.11078 z m 26.163124,-1.8519 c 10.15752,-2.55861 11.58273,-4.05301 8.15335,-8.54915 -1.36771,-1.79316 -2.48674,-3.57749 -2.48674,-3.96518 0,-0.38769 1.84491,-2.70639 4.09981,-5.15266 4.06235,-4.40712 4.08057,-4.46125 1.99429,-5.92253 -2.35495,-1.64947 -5.0941,-6.41076 -5.0941,-8.85473 0,-2.60063 6.23897,-4.49863 14.78755,-4.49863 6.90397,0 8.0848,-0.27161 9.78211,-2.25 2.48047,-2.891241 2.30645,-7.318341 -0.39382,-10.018601 -2.84275,-2.84276 -4.10752,-1.35204 -1.34645,1.58699 1.19384,1.27078 2.17061,2.65353 2.17061,3.07278 0,0.41925 -1.13635,-0.5882 -2.52522,-2.23878 -1.38888,-1.65058 -2.46521,-3.37261 -2.39185,-3.82673 0.25729,-1.59278 -1.3258,-5.325664 -2.25858,-5.325664 -0.51831,0 -0.6213,0.519529 -0.22886,1.154508 0.44563,0.72104 0.27393,0.882825 -0.45729,0.430902 -1.87896,-1.161258 -0.27005,-2.58541 2.92082,-2.58541 1.61754,0 2.94098,-0.45 2.94098,-1 0,-0.55 0.3375,-0.946711 0.75,-0.881579 1.66395,0.262729 2.33499,-0.171889 1.74337,-1.129145 -0.3954,-0.639769 -1.41627,-0.456259 -2.78152,0.5 -3.29072,2.304911 -3.91222,1.802007 -1.1664,-0.943821 3.0397,-3.039695 3.09419,-4.871626 0.22445,-7.545199 -2.63647,-2.456244 -6.13973,-3.507755 -7.95298,-2.387104 -0.92561,0.572055 -0.61119,0.963277 1.09852,1.366886 3.47063,0.819304 4.7376,3.29128 3.3019,6.442303 -1.0021,2.19936 -1.81755,2.577659 -5.55635,2.577659 -3.06761,0 -5.5287,-0.77824 -8.20537,-2.59468 -7.74922,-5.258762 -10.94112,-5.392012 -16.529114,-0.690031 -2.98861,2.514747 -3.1377,2.547833 -2.01325,0.446781 0.66791,-1.248 2.64816,-3.1598 4.40056,-4.248443 3.690564,-2.292685 7.737574,-1.926357 14.139674,1.279895 5.62238,2.815763 3.15454,0.557546 -2.85243,-2.61014 -2.69442,-1.42086 -6.37239,-2.583382 -8.17327,-2.583382 -4.260054,0 -9.385604,4.209926 -9.543794,7.838894 -0.0847,1.943087 -0.24694,2.149758 -0.60128,0.765959 -0.38847,-1.517076 -0.65744,-1.616824 -1.34827,-0.5 -0.64502,1.042774 -1.15115,0.568961 -2.0039,-1.875962 -0.62751,-1.79911 -1.96628,-3.712827 -2.97505,-4.252704 -2.74445,-1.468785 -3.54532,0.748828 -1.20904,3.347841 2.84507,3.165025 3.94931,5.589815 1.30458,2.864711 -4.66533,-4.807099 -8.81501,-4.755528 -17.2965,0.214954 -2.8588,1.67537 -5.91422,2.596307 -8.61384,2.596307 -3.52568,0 -4.36827,-0.405359 -5.35804,-2.577659 -1.42743,-3.132866 -0.19593,-5.568342 3.31198,-6.549918 2.225,-0.622597 2.17835,-0.680537 -0.62214,-0.772743 -6.67063,-0.21963 -10.25337,6.839118 -5.25,10.343616 1.22238,0.856187 1.78488,1.593252 1.25,1.637923 -0.53488,0.04467 0.3775,0.699373 2.0275,1.454896 1.89797,0.869068 2.35715,1.390246 1.25,1.418781 -0.9625,0.02481 -1.6375,0.607604 -1.5,1.295104 0.14693,0.734644 -0.69401,1.199284 -2.03969,1.126984 -1.25933,-0.0677 -2.07944,0.0872 -1.82248,0.34418 0.25697,0.25697 -1.07517,1.82144 -2.96031,3.47662 -4.03562,3.54331 -4.29114,5.76731 -1.06285,9.25069 2.11126,2.278101 3.13276,2.551531 9.53212,2.551531 7.20484,0 14.10321,1.94729 14.10321,3.98109 0,2.33447 -2.90911,7.86932 -4.65631,8.85908 -1.67799,0.95055 -1.4038,1.49278 3.05078,6.03315 l 4.89447,4.98873 3.66594,-2.94603 3.66594,-2.94604 8.40295,1.59401 c 4.62162,0.87671 9.31943,2.06345 10.439594,2.6372 2.94021,1.506 7.53664,5.97696 7.53664,7.33091 0,3.65274 -10.326374,7.27741 -21.500004,7.54674 -4.01738,0.0968 -4.50869,0.27787 -2.5,0.92116 4.33364,1.38787 9.90147,1.06683 18.333394,-1.05712 z M 82.501716,117.59298 c 5e-5,-0.70685 0.78759,-2.48829 1.75009,-3.95875 1.32788,-2.02868 1.75,-4.77326 1.75,-11.37841 0,-4.787661 0.28886,-8.995091 0.64191,-9.349831 0.35305,-0.35475 2.21628,0.0128 4.14051,0.81681 3.81325,1.59328 5.03049,4.17002 6.21455,13.155361 0.36238,2.75 1.31296,6.01826 2.11239,7.2628 1.352764,2.10594 1.278354,2.32939 -1.07354,3.22358 -4.14001,1.57403 -15.53602,1.74159 -15.53591,0.22844 z m 14.83187,-1.23013 c 1.32957,-0.0122 1.39014,-0.19147 0.29841,-0.88307 -0.76511,-0.48468 -1.9548,-4.52125 -2.69498,-9.14394 -0.72884,-4.55191 -2.00983,-8.960871 -2.84665,-9.797691 -1.68592,-1.68592 -1.62934,-0.43227 0.5652,12.522811 0.57603,3.40054 0.70327,6.73951 0.28274,7.41994 -0.54041,0.8744 -0.2527,1.04071 0.98124,0.5672 0.96021,-0.36847 2.49653,-0.67683 3.41404,-0.68525 z m -6.43281,-6.23469 c -0.74041,-5.80253 -1.39897,-7.46975 -1.39897,-3.54167 0,1.39792 -0.28125,3.94792 -0.625,5.66667 -0.49913,2.49565 -0.2908,3.125 1.03444,3.125 1.42027,0 1.56289,-0.75668 0.98953,-5.25 z m -1.39897,-14.750001 c 0,-0.55 -0.45,-1 -1,-1 -0.55,0 -1,0.45 -1,1 0,0.55 0.45,1 1,1 0.55,0 1,-0.45 1,-1 z m -38,-0.99891 c 0,-1.32181 5.7092,-7.62523 6.33741,-6.99702 0.27648,0.27649 -1.03633,2.18207 -2.91736,4.23463 -1.88103,2.05256 -3.42005,3.29563 -3.42005,2.76239 z m 31.01603,-6.00109 c 0.0309,-3.17288 1.5285,-3.784527 9.25825,-3.781164 6.71541,0.0029 7.91821,0.272317 8.831024,1.977914 0.5812,1.086 0.77171,2.25956 0.42335,2.60792 -0.34836,0.34836 -4.659494,0.64732 -9.580304,0.66436 -7.30624,0.0253 -8.94424,-0.2441 -8.93232,-1.46903 z m 16.48397,-1 c -0.33992,-0.55 -1.60398,-0.96838 -2.80902,-0.92972 -2.11237,0.0678 -2.11922,0.10113 -0.19098,0.92972 2.75248,1.18278 3.731,1.18278 3,0 z m -9.77084,-0.60417 c -0.33229,-0.33229 -1.19479,-0.36782 -1.91666,-0.079 -0.79774,0.31923 -0.56078,0.55618 0.60416,0.60417 1.05417,0.0434 1.64479,-0.19293 1.3125,-0.52522 z m -15.72916,49.604171 c 0,-0.55 -0.45,-1 -1,-1 -0.55,0 -1,0.45 -1,1 0,0.55 0.45,1 1,1 0.55,0 1,-0.45 1,-1 z m 19.75,-1.68017 c 1.63581,-0.39016 2.24582,-1.25773 2.23468,-3.17824 -0.0267,-4.61522 -3.31608,-7.14159 -9.29836,-7.14159 -4.43509,0 -12.56559,7.23563 -10.68148,9.50584 1.90964,2.30097 9.96199,2.67034 17.74516,0.81399 z m 9.782124,0.2312 c 1.90733,-0.79694 3.46788,-1.87532 3.46788,-2.39641 0,-1.29855 -6.780874,-7.15457 -8.284804,-7.15482 -0.80626,-1.4e-4 -1.2152,1.84975 -1.2152,5.49704 0,6.0921 0.44265,6.38961 6.032124,4.05419 z M 61.510736,115.75791 c 4.67124,-1.86906 7.75283,-5.84222 3.79349,-4.89104 -1.26633,0.30423 -6.12742,0.15885 -10.80242,-0.32305 -4.675,-0.4819 -8.68474,-0.71907 -8.91054,-0.52705 -0.80752,0.68673 3.46593,4.6591 6.41054,5.95888 3.91172,1.72667 4.69414,1.70876 9.50893,-0.21774 z m 69.726134,-0.10832 c 1.14244,-0.4384 1.3615,-0.23669 0.77448,0.71314 -0.54871,0.88782 -0.43258,1.0859 0.35226,0.60084 0.64395,-0.39798 0.94344,-1.09152 0.66552,-1.5412 -0.27791,-0.44968 0.16475,-1.37368 0.98369,-2.05335 0.81894,-0.67966 1.48462,-1.51815 1.47928,-1.8633 -0.005,-0.34516 -4.06141,-0.75351 -9.01349,-0.90744 -4.95208,-0.15394 -10.13511,-0.71001 -11.51784,-1.23572 -2.21646,-0.8427 -2.40338,-0.74906 -1.57913,0.79107 3.24159,6.05695 10.53945,8.30328 17.85523,5.49596 z m -67.656874,-7.93707 c 2.8183,-0.56366 3.02896,-0.78269 1.375,-1.42971 -2.47177,-0.96694 -13.15237,-1.09513 -16.45319,-0.19747 l -2.5,0.67988 2.5,0.70679 c 3.33473,0.94278 10.95878,1.06439 15.07819,0.24051 z m 68.000004,0 c 2.81831,-0.56366 3.02896,-0.78269 1.375,-1.42971 -2.51267,-0.98295 -11.23194,-1.10317 -15.57819,-0.2148 -3.25815,0.66596 -3.28845,0.71444 -0.875,1.40032 3.32866,0.94597 10.95201,1.06943 15.07819,0.24419 z m -69.578194,-3.74384 c 1.1,-0.17499 -1.91095,-0.37944 -6.69099,-0.45434 -4.78004,-0.0749 -8.90743,0.21404 -9.17198,0.6421 -0.43825,0.7091 11.08238,0.57274 15.86297,-0.18776 z m 73.500004,0.9685 c 0,-0.24254 -0.45,-0.7191 -1,-1.05902 -0.55,-0.33992 -1,-0.14148 -1,0.44098 0,0.58246 0.45,1.05902 1,1.05902 0.55,0 1,-0.19844 1,-0.44098 z m -6.22357,-1.28592 c -2.04796,-0.21487 -5.64796,-0.21785 -8,-0.007 -2.35204,0.21125 -0.67643,0.38706 3.72357,0.39069 4.4,0.004 6.32439,-0.1692 4.27643,-0.38408 z M 54.001806,84.378155 c 0.33992,-0.55 0.14147,-1 -0.44099,-1 -0.58246,0 -1.05901,0.45 -1.05901,1 0,0.55 0.19844,1 0.44098,1 0.24254,0 0.7191,-0.45 1.05902,-1 z m -3.41667,-4.916667 c -3.09597,-3.095969 -2.80672,-8.379331 0.58024,-10.598552 1.46496,-0.959882 3.82746,-2.097957 5.25,-2.529057 l 2.58643,-0.783819 -2.67328,-0.08595 c -4.16922,-0.134052 -8.54514,4.164152 -8.99015,8.830487 -0.20536,2.153429 0.002,3.68302 0.4619,3.399091 0.45941,-0.28393 0.69269,0.306324 0.51841,1.311675 -0.17429,1.005351 0.20812,1.838009 0.84978,1.850352 0.64167,0.01234 1.50417,0.359942 1.91667,0.772442 0.4125,0.4125 0.9375,0.5625 1.16667,0.333333 0.22916,-0.229166 -0.52084,-1.354166 -1.66667,-2.5 z m 18.62269,-5.583333 c 3.62746,-1.925 7.54007,-3.506891 8.69468,-3.515313 1.15461,-0.0084 2.7743,-0.49569 3.5993,-1.082818 1.13493,-0.807699 0.60539,-0.943892 -2.17581,-0.559598 -2.02169,0.279348 -6.97169,2.335667 -11,4.569597 -8.96317,4.970601 -8.26009,5.439519 0.88183,0.588132 z m 68.191894,-1.5 c -0.0251,-0.97672 -0.3383,-0.802293 -0.89791,0.5 -0.84658,1.970096 -0.86048,1.968964 -0.92971,-0.07569 -0.0387,-1.141627 -1.18142,-3.119539 -2.53947,-4.39536 -1.35805,-1.27582 -2.30102,-2.591762 -2.09549,-2.924314 0.20553,-0.332552 -1.34508,-0.60464 -3.44578,-0.60464 -2.9422,0 -3.5812,0.287107 -2.78207,1.25 0.57058,0.6875 1.96581,1.25 3.10051,1.25 3.15757,0 6.69201,3.89012 6.69201,7.365444 0,2.867315 0.0728,2.920621 1.4682,1.075686 0.8075,-1.067618 1.45088,-2.616126 1.42971,-3.441126 z m -91.204924,0.269032 c -0.25355,-0.972968 -0.47767,-0.419032 -0.49804,1.230968 -0.0204,1.65 0.18706,2.446064 0.46098,1.769032 0.27393,-0.677033 0.2906,-2.027033 0.037,-3 z m 48.3572,-2.657815 c 1.5614,-1.31383 2.60886,-2.61883 2.32769,-2.9 -0.28117,-0.281169 0.0813,-0.485327 0.80545,-0.453683 4.557134,0.199133 6.816674,-0.39651 6.816674,-1.796961 0,-1.266431 0.24739,-1.310765 1.39504,-0.25 0.76727,0.709185 1.19071,1.626927 0.94098,2.039427 -0.24973,0.4125 0.2475,0.75 1.10496,0.75 2.45795,0 1.83511,-1.638969 -1.66327,-4.376866 -1.96991,-1.541689 -3.47047,-2.120261 -3.86084,-1.488632 -0.72943,1.180246 -1.91687,-1.341153 -1.91687,-4.070267 0,-0.974704 -1.077784,-2.935126 -2.395064,-4.356494 -1.31727,-1.421367 -2.15287,-2.826485 -1.85687,-3.122484 0.296,-0.295999 -0.19864,-0.820925 -1.0992,-1.166503 -0.90056,-0.345578 -1.47128,-0.91867 -1.26826,-1.273539 0.20302,-0.354868 0.007,-1.545215 -0.43546,-2.645215 -0.53105,-1.320064 -0.8434,0.379777 -0.91876,5 -0.0628,3.85 -0.76265,8.8 -1.55523,11 -2.03522,5.649266 -1.88201,11.5 0.30115,11.5 0.24143,0 1.71648,-1.074952 3.27788,-2.388783 z m -0.37358,-4.361217 c -0.69177,-1.175363 -1.971,-7.809303 -1.39802,-7.25 0.65551,0.639865 2.67938,8 2.19982,8 -0.19821,0 -0.55902,-0.3375 -0.8018,-0.75 z m -45.17661,1.75 c 0.99548,-1.1 1.58497,-2 1.30997,-2 -0.275,0 -1.31449,0.9 -2.30997,2 -0.99549,1.1 -1.58498,2 -1.30998,2 0.275,0 1.31449,-0.9 2.30998,-2 z m 73.627564,0.25 c 1.26951,-1.618755 1.22245,-1.639977 -0.62756,-0.282968 -1.1,0.806868 -2.1875,1.594368 -2.41667,1.75 -0.22916,0.155633 0.0532,0.282968 0.62756,0.282968 0.57432,0 1.66182,-0.7875 2.41667,-1.75 z m 13.87244,1.372445 c 0,-0.207656 -0.7875,-0.995156 -1.75,-1.75 -1.58606,-1.243871 -1.62143,-1.208501 -0.37756,0.377555 1.30637,1.665748 2.12756,2.195479 2.12756,1.372445 z M 76.001806,64.893468 c 0.55,-0.0084 1.00689,-0.465313 1.01531,-1.015313 0.008,-0.55 0.41552,-1.675 0.90466,-2.5 0.48914,-0.825 -0.53025,-0.178309 -2.26531,1.437091 -3.26759,3.042232 -4.07404,4.264716 -1.90466,2.887239 0.6875,-0.436538 1.7,-0.800595 2.25,-0.809017 z m 12.83837,-4.847299 c 0.99738,-3.482593 1.66676,-7.748708 1.48752,-9.480257 -0.31518,-3.044763 -0.46562,-2.911102 -4.57589,4.065417 -4.82573,8.190889 -5.22935,10.419094 -2,11.041093 1.2375,0.238353 2.48062,0.494651 2.76249,0.569551 0.28186,0.0749 1.32851,-2.713212 2.32588,-6.195804 z m 39.390804,3.727819 c -0.3323,-0.332291 -1.1948,-0.367818 -1.91667,-0.07895 -0.79773,0.319226 -0.56078,0.556183 0.60417,0.604167 1.05416,0.04342 1.64479,-0.192928 1.3125,-0.52522 z"
       id="path123" />
  </g>
</svg>
