<?xml version="1.0" encoding="UTF-8" standalone="no"?>
<!-- Created with Inkscape (http://www.inkscape.org/) -->

<svg
   version="1.1"
   id="svg184"
   width="180"
   height="180"
   viewBox="0 0 180 180"
   sodipodi:docname="book.svg"
   inkscape:version="1.2.2 (732a01da63, 2022-12-09)"
   xmlns:inkscape="http://www.inkscape.org/namespaces/inkscape"
   xmlns:sodipodi="http://sodipodi.sourceforge.net/DTD/sodipodi-0.dtd"
   xmlns="http://www.w3.org/2000/svg"
   xmlns:svg="http://www.w3.org/2000/svg">
  <defs
     id="defs188" />
  <sodipodi:namedview
     id="namedview186"
     pagecolor="#ffffff"
     bordercolor="#000000"
     borderopacity="0.25"
     inkscape:showpageshadow="2"
     inkscape:pageopacity="0.0"
     inkscape:pagecheckerboard="0"
     inkscape:deskcolor="#d1d1d1"
     showgrid="false"
     inkscape:zoom="2.325"
     inkscape:cx="64.946237"
     inkscape:cy="99.354839"
     inkscape:window-width="1920"
     inkscape:window-height="1017"
     inkscape:window-x="-8"
     inkscape:window-y="-8"
     inkscape:window-maximized="1"
     inkscape:current-layer="g190" />
  <g
     inkscape:groupmode="layer"
     inkscape:label="Image"
     id="g190">
    <path
       style="fill:#000000"
       d="M 74.160401,160.28006 C 49.773673,153.70712 32.16384,137.16507 24.137484,113.29032 21.017397,104.00948 20.280079,86.252151 22.584693,75.893351 25.81179,61.388171 35.569846,45.696191 46.897978,36.795051 60.38533,26.197282 74.545285,21.290323 91.639784,21.290323 c 31.727666,0 57.423436,18.797618 67.664976,49.499998 2.01353,6.03622 2.3295,8.92757 2.29491,21 -0.0357,12.473279 -0.33284,14.872409 -2.72441,21.999999 -7.22381,21.52905 -23.98677,38.21214 -45.45743,45.24085 -10.9373,3.58047 -28.530356,4.14016 -39.257429,1.24889 z m 28.598389,-1.52651 c 21.1841,-3.66571 39.56872,-17.27532 49.38061,-36.55507 C 165.74522,95.463911 160.77172,64.796471 139.41789,43.755521 127.77957,32.287716 115.03367,26.128109 98.845614,24.148484 71.219656,20.770128 42.825192,36.442561 30.648179,61.790321 c -5.021925,10.45368 -6.855681,18.47807 -6.855681,30 0,15.965379 4.438376,28.877529 14.331097,41.692109 9.678287,12.53681 25.97926,22.43222 41.51619,25.20217 10.535769,1.87833 12.626589,1.88456 23.119005,0.069 z M 69.956329,145.54032 c -3.320656,-3.5704 -6.226956,-8.17292 -5.573497,-8.82638 0.28268,-0.28268 1.700448,1.51062 3.150595,3.98511 1.450147,2.47448 3.629947,5.19481 4.844,6.04517 1.214054,0.85035 1.741434,1.5461 1.171955,1.5461 -0.569478,0 -2.186352,-1.2375 -3.593053,-2.75 z m 4.754885,-1.82143 c -0.367821,-1.46551 -0.475908,-2.85742 -0.240193,-3.09314 0.235714,-0.23571 0.729515,0.77049 1.097335,2.236 0.367821,1.46551 0.475908,2.85742 0.240193,3.09314 -0.235714,0.23571 -0.729515,-0.77049 -1.097335,-2.236 z m -17.455809,-2.52675 c -0.613591,-1.76015 -1.083912,-3.69562 -1.045158,-4.30104 0.03875,-0.60543 0.715544,0.65993 1.503977,2.81191 0.788433,2.15198 1.258754,4.08745 1.045158,4.30105 -0.213596,0.21359 -0.890386,-1.05177 -1.503977,-2.81192 z m 60.884375,1.1715 c 0,-0.59032 0.45,-1.07332 1,-1.07332 0.55,0 0.99589,-0.3375 0.99086,-0.75 -0.005,-0.4125 -5.00519,-0.82266 -11.11147,-0.91147 -6.44984,-0.0938 -11.558476,-0.61762 -12.190846,-1.25 -0.5987,-0.59869 -2.91104,-1.15612 -5.13854,-1.23872 l -4.05,-0.1502 4.5,-0.64309 c 3.98471,-0.56946 3.38652,-0.73742 -5.22399,-1.46678 -5.3482,-0.45302 -10.381622,-0.57132 -11.185393,-0.26289 -1.839598,0.70592 -2.420006,-0.86276 -1.970912,-5.32685 0.293213,-2.9146 0.217643,-3.08185 -0.451818,-1 -0.735482,2.28716 -1.248264,2.48117 -6.023229,2.2788 -6.802398,-0.28829 -9.917663,-1.853 -4.863895,-2.443 1.96842,-0.2298 3.358954,-0.0619 3.090075,0.37319 -0.268879,0.43506 0.902188,0.79101 2.60237,0.79101 2.289746,0 3.309412,-0.58338 3.932692,-2.25 1.055911,-2.82346 -0.507925,-3.51317 -9.956858,-4.39135 l -6.868694,-0.63838 0.589295,3.6314 c 0.753351,4.64235 -1.117369,7.42717 -3.563024,5.30405 -0.88364,-0.76711 -2.246541,-1.59177 -3.028669,-1.83258 -0.89048,-0.27417 -1.57315,-2.24063 -1.826267,-5.26065 l -0.404215,-4.8228 5.326266,0.55459 c 2.929447,0.30503 8.919896,1.23062 13.312109,2.05687 4.392213,0.82625 8.442213,1.1451 9,0.70856 0.557787,-0.43655 8.214157,0.0375 17.014157,1.05333 8.799996,1.01588 16.449996,1.69111 16.999996,1.50051 0.55,-0.1906 -1.7,-0.65784 -5,-1.03831 -5.942316,-0.68511 -11.162976,-2.24559 -10.322996,-3.08558 0.2395,-0.2395 1.98516,-0.0409 3.87923,0.44132 1.89407,0.48223 6.029606,1.11235 9.190076,1.40026 5.55431,0.506 5.70958,0.45485 4.64681,-1.53094 -0.95287,-1.78047 -1.7488,-1.97754 -5.96845,-1.47778 -2.6789,0.31727 -5.132926,0.14953 -5.455826,-0.37293 -0.32278,-0.52228 -1.66295,-0.94959 -2.97817,-0.94959 -1.31521,0 -2.76143,-0.66141 -3.21383,-1.4698 -0.61546,-1.09977 -5.67615,-1.95196 -20.101287,-3.38493 -10.603308,-1.05332 -19.555524,-2.19191 -19.893814,-2.5302 -0.986156,-0.98615 7.114171,-0.68113 23.105536,0.87005 14.440715,1.40076 14.962195,1.38515 17.384855,-0.52052 2.76605,-2.17577 4.74464,-2.60977 3.62284,-0.79466 -0.49297,0.79765 -0.16751,0.95675 1.02277,0.5 0.96021,-0.36847 3.051446,-0.66994 4.647196,-0.66994 2.48011,0 3.27208,-0.73156 5.45462,-5.03859 1.48285,-2.92627 3.5442,-5.415349 4.917,-5.937289 1.7193,-0.65367 3.26016,-3.09111 5.65159,-8.94008 1.80831,-4.42276 3.42727,-7.90195 3.59769,-7.73153 0.17042,0.17042 -0.83472,3.64832 -2.23365,7.72867 -1.63479,4.76834 -2.34229,8.52702 -1.98031,10.520729 0.33815,1.86248 -0.0407,4.25988 -0.94819,5.99999 -0.83125,1.59396 -1.51414,3.3978 -1.51753,4.00855 -0.003,0.61075 -1.09385,2.71326 -2.42326,4.67225 -2.08593,3.07379 -2.23414,3.81199 -1.08176,5.38797 0.73444,1.0044 1.54428,1.60189 1.79966,1.32776 1.03409,-1.11006 5.69945,-15.2695 5.70278,-17.30803 0.002,-1.20472 2.90169,-11.174739 6.44383,-22.155609 6.82182,-21.14806 6.8653,-21.705 1.84369,-23.61421 -1.26011,-0.47909 -2.2911,-1.64322 -2.2911,-2.58696 0,-1.52145 0.17063,-1.49592 1.50583,0.22525 1.40456,1.81059 1.43819,1.75182 0.5,-0.87397 -1.32443,-3.7068 -1.27927,-7.08373 0.056,-4.1849 l 0.92122,2 -0.25011,-2 c -0.17312,-1.38407 -1.55634,-2.41418 -4.49154,-3.34489 -2.97119,-0.94213 -4.2414,-1.89776 -4.2414,-3.19098 0,-1.01535 -0.50429,-2.15776 -1.12064,-2.53869 -1.70407,-1.05317 -34.075626,-4.57126 -36.521166,-3.96905 -1.58953,0.39141 -3.056626,2.78573 -5.689612,9.28551 -1.951293,4.81696 -8.299979,20.40642 -14.108191,34.64325 -5.808213,14.23684 -10.613628,26.836839 -10.678701,27.999999 -0.08699,1.55489 -0.320437,1.32052 -0.881685,-0.88515 -0.419854,-1.65 -0.816612,-2.26173 -0.881685,-1.35941 -0.07966,1.10453 -1.281783,1.77643 -3.67902,2.05629 -3.509026,0.40966 -5.398,-0.48633 -3.499281,-1.65981 0.534951,-0.33061 0.690819,-1.33553 0.346373,-2.23314 -0.442814,-1.15395 -0.252173,-1.40082 0.650808,-0.84275 0.956875,0.59139 1.097986,0.22503 0.562805,-1.46118 -0.535181,-1.68621 -0.39407,-2.05257 0.562805,-1.46118 0.908008,0.56118 1.092535,0.30837 0.638519,-0.87478 -0.351205,-0.91522 -0.216801,-1.66404 0.298676,-1.66404 0.515477,0 0.649881,-0.748819 0.298676,-1.664039 -0.466639,-1.21605 -0.277825,-1.44111 0.701324,-0.83596 0.979149,0.60515 1.167963,0.38009 0.701324,-0.83595 -0.81702,-2.12912 0.199589,-4.84332 1.510595,-4.03308 0.629247,0.3889 0.736479,-0.21819 0.288081,-1.63097 -0.535181,-1.6862 -0.39407,-2.05256 0.562805,-1.46118 0.908008,0.56118 1.092535,0.30838 0.638519,-0.87477 -0.351205,-0.91523 -0.216801,-1.66405 0.298676,-1.66405 0.515477,0 0.649881,-0.74882 0.298676,-1.66404 -0.466639,-1.21605 -0.277825,-1.44111 0.701324,-0.83596 0.979149,0.60515 1.167963,0.38009 0.701324,-0.83595 -0.835462,-2.17718 0.211799,-4.83578 1.5734,-3.99426 0.667961,0.41282 0.827039,0.0378 0.4266,-1.00574 -0.835462,-2.17718 0.211799,-4.83578 1.5734,-3.99426 0.663777,0.41024 0.829152,0.0433 0.438864,-0.97378 -0.513323,-1.3377 3.331423,-12.3665 12.353836,-35.43745 0.846939,-2.16568 0.772999,-2.19918 -2.187611,-0.99113 -2.75716,1.12504 -3.510942,2.50187 -7.523112,13.74145 -2.452414,6.87011 -5.785932,15.89695 -7.407818,20.05964 -1.621886,4.16268 -2.948883,8.26971 -2.948883,9.12673 0,0.85701 -2.033042,7.49364 -4.517872,14.74805 -2.484829,7.254419 -4.211009,13.686359 -3.835955,14.293209 0.439573,0.71125 0.09054,0.87643 -0.982128,0.46481 -1.142607,-0.43846 -1.688784,-0.10001 -1.742992,1.08006 -0.04342,0.94524 -0.297162,1.1824 -0.563868,0.52702 -0.506462,-1.24454 7.551782,-26.593889 17.030477,-53.573899 4.399935,-12.52391 5.17018,-15.56823 3.746088,-14.80608 -3.941487,2.10942 -12.253703,10.49902 -16.081553,16.23127 -4.94101,7.39923 -5.346343,6.72314 -0.616842,-1.02888 4.649879,-7.62151 16.587784,-18.85258 18.670728,-17.56525 0.479054,0.29608 0.57469,-0.23388 0.212524,-1.17767 -0.485202,-1.26441 -0.305892,-1.49806 0.681393,-0.88789 0.970664,0.5999 1.169304,0.38358 0.720866,-0.78503 -0.45559,-1.18724 -0.193142,-1.44969 0.994106,-0.9941 0.968356,0.37159 1.360233,0.20983 0.98043,-0.4047 -0.920204,-1.488923 3.937189,-3.400143 9.757904,-3.839407 4.348511,-0.328164 4.562488,-0.267354 1.546694,0.439552 l -3.5,0.820405 3.583333,0.131641 c 1.970834,0.0724 3.88156,0.429867 4.246058,0.794365 0.364498,0.364498 2.126998,0.812884 3.916668,0.996414 11.05653,1.13385 47.806636,5.48312 50.560796,5.98372 5.23123,0.95083 6.41077,3.6662 4.72529,10.87788 -0.7686,3.2886 -1.67863,6.70874 -2.02231,7.60032 -0.83079,2.15529 2.01281,4.87894 5.09381,4.87894 3.7313,0 4.49396,3.39084 2.24779,9.9938 -2.99142,8.79369 -2.7305,8.35146 -4.20528,7.1275 -0.7316,-0.60717 -1.69842,-0.77035 -2.14849,-0.36262 -0.45008,0.40773 -0.45854,0.12044 -0.0188,-0.63841 0.52083,-0.8988 0.37104,-1.2369 -0.42974,-0.96998 -1.47224,0.49075 -7.24091,17.79007 -6.55308,19.651649 0.29081,0.78709 0.0278,1.02184 -0.66503,0.59363 -0.77953,-0.48178 -0.9656,-0.0182 -0.5818,1.44944 0.36157,1.38267 0.18197,1.92148 -0.5,1.5 -0.68197,-0.42148 -0.86158,0.11733 -0.5,1.5 0.36157,1.38267 0.18197,1.92148 -0.5,1.5 -0.68197,-0.42148 -0.86158,0.11733 -0.5,1.5 0.31034,1.18676 0.23202,1.95241 -0.17406,1.70144 -1.0868,-0.67168 -4.20909,9.94096 -3.48207,11.83554 0.74034,1.9293 2.0441,2.10412 2.74463,0.36801 0.27741,-0.6875 0.51169,0.325 0.52061,2.25 0.024,5.18121 -4.97359,18.40885 -7.10833,18.81428 -0.9625,0.1828 -1.75,-0.15063 -1.75,-0.74096 z m 1.01677,-6.61742 c 0.53199,-1.39926 1.20354,-3.76176 1.49232,-5.25 0.36357,-1.87366 -0.0827,-1.39875 -1.45101,1.5441 l -1.97607,4.25 -9.291,0.1571 c -7.945026,0.13435 -8.566656,0.25646 -4.29101,0.8429 2.75,0.37719 7.14864,0.75649 9.77475,0.8429 4.26249,0.14025 4.87852,-0.11584 5.74202,-2.387 z m -7.26677,-1.17215 c -1.5125,-0.22913 -3.9875,-0.22913 -5.5,0 -1.5125,0.22912 -0.275,0.41659 2.75,0.41659 3.025,0 4.2625,-0.18747 2.75,-0.41659 z m -0.75,-2.36479 c 0,-0.44051 -0.45,-1.07904 -1,-1.41896 -0.55,-0.33992 -0.98574,-1.15398 -0.96832,-1.80902 0.0174,-0.65504 0.95496,0.0465 2.08341,1.55902 1.12845,1.5125 2.40305,2.75 2.83246,2.75 0.4294,0 1.58011,-2.1375 2.55712,-4.75 0.97702,-2.6125 2.10279,-5.2 2.50171,-5.75 0.79984,-1.10273 12.73609,-37.402189 15.49567,-47.124029 1.0824,-3.81326 1.40998,-6.70413 0.86814,-7.66141 -0.61058,-1.07872 -2.7458,4.47748 -7.15713,18.62403 -12.1666,39.016719 -11.18622,36.448019 -14.70271,38.522799 -3.03559,1.79104 -3.94075,1.81955 -17.605226,0.55454 -21.260981,-1.96827 -19.905119,-2.14056 -19.905119,2.52928 v 3.94521 l 4.749999,0.35816 c 9.17901,0.69213 30.249996,0.46253 30.249996,-0.32962 z m 13.9144,-5.91896 c 0.0489,-1.33333 -0.0527,-1.33333 -0.9144,0 -0.53316,0.825 -0.94464,2.4 -0.9144,3.5 l 0.055,2 0.85943,-2 c 0.47269,-1.1 0.88417,-2.675 0.9144,-3.5 z m -71.724602,-1.5 c 0.33325,-2.85453 0.0768,-3.5 -1.390594,-3.5 -1.839844,0 -2.361547,2.37097 -1.19221,5.41821 1.010094,2.63227 2.150434,1.78535 2.582804,-1.91821 z m 57.966492,-9.21475 c 1.86179,-1.54514 5.19277,-10.91143 4.35981,-12.2592 -1.01258,-1.63838 -2.33407,-0.31878 -5.05196,5.04472 l -2.49783,4.92923 h -5.98316 c -4.528476,0 -5.983146,0.34854 -5.983146,1.43358 0,2.28605 12.576436,2.99276 15.156286,0.85167 z m -16.028726,-3.03525 c 1.24387,-1.58606 1.2085,-1.62143 -0.37756,-0.37756 -0.9625,0.75485 -1.75,1.54235 -1.75,1.75 0,0.82304 0.82119,0.29331 2.12756,-1.37244 z m 10.601606,-0.85417 c -0.3323,-0.33229 -1.1948,-0.36781 -1.91667,-0.0789 -0.79773,0.31922 -0.56078,0.55618 0.60417,0.60416 1.05416,0.0434 1.64479,-0.19292 1.3125,-0.52522 z M 55.631681,88.040321 c 8.881938,-23.11785 20.242738,-49.46796 21.722251,-50.38235 0.628743,-0.38858 0.736266,0.26389 0.28956,1.75712 -0.69012,2.3069 -0.666886,2.31788 0.807623,0.38157 1.698136,-2.22998 0.691831,-3.4644 -2.845899,-3.49103 -1.970396,-0.0148 -5.837022,9.34541 -29.013306,70.234689 -0.366357,0.9625 -0.232804,1.75 0.296783,1.75 0.529586,0 4.463931,-9.112499 8.742988,-20.249999 z m 60.237269,12.645829 c -0.3323,-0.33229 -1.1948,-0.36781 -1.91667,-0.0789 -0.79773,0.31923 -0.56078,0.55619 0.60417,0.60417 1.05416,0.0434 1.64479,-0.19293 1.3125,-0.52522 z M 60.109159,85.790321 c 0,-0.55 -0.436218,-0.325 -0.969374,0.5 -0.533156,0.825 -0.969374,1.95 -0.969374,2.5 0,0.55 0.436218,0.325 0.969374,-0.5 0.533156,-0.825 0.969374,-1.95 0.969374,-2.5 z m 4.386821,-11.50416 c 0.355863,-1.37271 -0.188264,-0.69397 -1.209171,1.50832 -1.020907,2.20229 -2.147356,5.12729 -2.503219,6.5 -0.355863,1.37271 0.188264,0.69397 1.209171,-1.50832 1.020907,-2.20229 2.147356,-5.12729 2.503219,-6.5 z m 77.08655,-4.74584 c 0.38454,-1.25025 0.26592,-2.25 -0.26695,-2.25 -0.52744,0 -1.25414,1.2375 -1.61488,2.75 -0.36074,1.5125 -0.87597,3.65 -1.14494,4.75 -0.64006,2.61757 2.03299,-2.01888 3.02677,-5.25 z m -74.473371,-1.75 c 0,-0.55 -0.436218,-0.325 -0.969374,0.5 -0.533156,0.825 -0.969374,1.95 -0.969374,2.5 0,0.55 0.436218,0.325 0.969374,-0.5 0.533156,-0.825 0.969374,-1.95 0.969374,-2.5 z m 2,-5 c 0,-0.55 -0.436218,-0.325 -0.969374,0.5 -0.533156,0.825 -0.969374,1.95 -0.969374,2.5 0,0.55 0.436218,0.325 0.969374,-0.5 0.533156,-0.825 0.969374,-1.95 0.969374,-2.5 z m 2,-5 c 0,-0.55 -0.436218,-0.325 -0.969374,0.5 -0.533156,0.825 -0.969374,1.95 -0.969374,2.5 0,0.55 0.436218,0.325 0.969374,-0.5 0.533156,-0.825 0.969374,-1.95 0.969374,-2.5 z m 64.030621,3.03519 c 0,-0.25565 -1.0125,-1.00433 -2.25,-1.66372 -2.04022,-1.08713 -2.12204,-1.04379 -0.87756,0.46481 1.27783,1.54902 3.12756,2.25809 3.12756,1.19891 z m 1.99056,-8.81387 c 1.80463,-6.70891 0.54132,-7.06274 -1.39805,-0.39156 -1.80626,6.21333 -1.95927,7.47891 -0.73994,6.12024 0.46892,-0.5225 1.43102,-3.1004 2.13799,-5.72868 z m -64.021181,0.77868 c 0,-0.55 -0.436218,-0.325 -0.969374,0.5 -0.533156,0.825 -0.969374,1.95 -0.969374,2.5 0,0.55 0.436218,0.325 0.969374,-0.5 0.533156,-0.825 0.969374,-1.95 0.969374,-2.5 z m 61.318551,-1.7212 c 0.91832,-2.87166 1.29331,-5.59756 0.83332,-6.05755 -1.24918,-1.24918 -12.12125,-2.17978 -12.12125,-1.03752 0,0.52995 1.6875,1.3856 3.75,1.90144 3.73602,0.93441 3.74888,0.95557 3.44992,5.67637 -0.4167,6.57991 1.91761,6.30426 4.08801,-0.48274 z m -59.318551,-3.2788 c 0,-0.55 -0.436218,-0.325 -0.969374,0.5 -0.533156,0.825 -0.969374,1.95 -0.969374,2.5 0,0.55 0.436218,0.325 0.969374,-0.5 0.533156,-0.825 0.969374,-1.95 0.969374,-2.5 z m 53.759791,-0.10417 c -0.3323,-0.33229 -1.1948,-0.36781 -1.91667,-0.079 -0.79773,0.31923 -0.56078,0.55619 0.60417,0.60417 1.05416,0.0434 1.64479,-0.19293 1.3125,-0.52522 z m -4.97917,-1.08515 c -0.9625,-0.25153 -1.78553,-1.43683 -1.82895,-2.634 -0.0434,-1.19717 -0.31087,-1.59933 -0.59433,-0.89369 -0.82104,2.04391 0.45241,4.22731 2.3919,4.10101 1.6695,-0.10872 1.67147,-0.14472 0.0314,-0.57332 z m -46.780621,-3.81068 c 0,-0.55 -0.436218,-0.325 -0.969374,0.5 -0.533156,0.825 -0.969374,1.95 -0.969374,2.5 0,0.55 0.436218,0.325 0.969374,-0.5 0.533156,-0.825 0.969374,-1.95 0.969374,-2.5 z m 2.792285,92.792739 c 1.24391,-0.23919 3.04391,-0.23011 4,0.0202 0.95609,0.25029 -0.0617,0.446 -2.26166,0.4349 -2.199999,-0.0111 -2.982252,-0.21589 -1.73834,-0.45508 z m -34.930551,-4.55762 c -3.201959,-2.82339 -8.525096,-12.37447 -7.479472,-13.42009 0.206741,-0.20674 1.320815,1.82064 2.475718,4.50528 1.154904,2.68465 3.917506,6.52334 6.139116,8.53043 2.221611,2.00709 3.700495,3.64257 3.286411,3.63438 -0.414085,-0.008 -2.403883,-1.47068 -4.421773,-3.25 z m 24.668892,-3.73512 c 0.339919,-0.55 0.816476,-1 1.059017,-1 0.242541,0 0.440983,0.45 0.440983,1 0,0.55 -0.476558,1 -1.059017,1 -0.582459,0 -0.780902,-0.45 -0.440983,-1 z m 57.652155,-8 c 0,-0.825 0.60653,-3.075 1.34784,-5 0.74131,-1.925 1.34784,-2.825 1.34784,-2 0,0.825 -0.60653,3.075 -1.34784,5 -0.74131,1.925 -1.34784,2.825 -1.34784,2 z m 4.00285,-13 c 0,-0.825 0.83024,-3.75 1.84499,-6.499999 1.01475,-2.75 1.84499,-4.325 1.84499,-3.5 0,0.825 -0.83024,3.749999 -1.84499,6.499999 -1.01475,2.75 -1.84499,4.325 -1.84499,3.5 z M 74.344773,89.441261 c -2.170385,-3.86168 -2.220197,-9.40547 -0.09631,-10.71811 0.467698,-0.28905 0.335259,-1.35036 -0.294308,-2.35845 -0.907505,-1.45315 -0.68667,-2.94567 1.065861,-7.20364 2.374963,-5.77025 5.158256,-8.43602 9.739158,-9.32793 2.74956,-0.53535 2.73422,-0.50359 -0.33719,0.69816 -4.16692,1.6304 -6.097032,3.62658 -7.189419,7.43551 -0.786087,2.74092 -0.674232,3.02683 1.011707,2.58595 2.709702,-0.70861 2.432362,1.96921 -0.693111,6.69212 -1.736787,2.62446 -2.371231,4.59659 -1.928003,5.99308 0.84319,2.65666 2.099113,1.88991 2.821616,-1.7226 0.333383,-1.66691 1.656253,-3.40151 3.24089,-4.24959 3.06374,-1.63965 4.45412,-4.61255 4.45412,-9.52369 0,-3.09413 0.4707,-3.65658 4.96676,-5.9349 2.73171,-1.38427 5.73171,-2.51685 6.66666,-2.51685 0.93496,0 1.36241,-0.3375 0.94991,-0.75 -0.4125,-0.4125 -1.1625,-0.75 -1.66666,-0.75 -0.50417,0 -0.91667,-0.3375 -0.91667,-0.75 0,-0.4125 0,-1.04474 0,-1.40499 0,-0.36024 0.9,0.15951 2,1.15499 1.1,0.99549 1.999996,2.41523 1.999996,3.15499 0,0.73976 0.6199,1.34501 1.37756,1.34501 2.37303,0 3.37104,2.28923 3.81848,8.75878 0.23807,3.44234 0.15083,5.80246 -0.19387,5.24473 -0.34469,-0.55773 -1.40093,0.67582 -2.34718,2.74122 l -1.72047,3.75527 1.96686,-2.48838 1.96685,-2.48839 1.06589,2.80348 c 0.58623,1.54192 1.06588,3.08707 1.06588,3.43367 0,1.21335 -5.38673,6.23962 -6.68709,6.23962 -0.722096,0 -1.312906,0.45 -1.312906,1 0,1.80099 1.867736,1.05501 5.633376,-2.25 2.84447,-2.49651 3.43361,-2.74633 2.54112,-1.07755 -1.43178,2.67715 -5.95515,6.32755 -7.840736,6.32755 -0.76809,0 -1.65996,-0.68648 -1.98193,-1.52552 -0.44173,-1.15115 -0.91409,-1.25273 -1.92481,-0.41391 -1.6531,1.37195 -3.43223,0.39701 -3.41171,-1.86959 0.0127,-1.40161 0.17078,-1.44529 0.92379,-0.25528 0.70707,1.11742 1.22287,1.17477 2.3267,0.25868 0.78002,-0.64737 1.65716,-0.93808 1.94921,-0.64604 0.29204,0.29204 0.78184,-0.42828 1.08844,-1.60072 0.53592,-2.04935 0.48263,-2.064 -1.37913,-0.37913 -1.06512,0.96392 -2.11676,1.56784 -2.33697,1.34205 -0.22021,-0.2258 -0.59147,-3.33554 -0.82502,-6.91054 -0.28302,-4.3324 -1.14664,-7.66717 -2.58974,-10 l -2.16511,-3.5 -0.004,2.80902 c -0.002,1.84509 -0.39439,2.56758 -1.14215,2.10544 -0.81304,-0.50249 -0.94774,0.31278 -0.4713,2.85245 0.59193,3.15524 0.33655,3.79141 -2.26596,5.64456 -4.33858,3.08934 -5.080058,2.53391 -1.08656,-0.81392 1.90423,-1.59635 3.2118,-3.15928 2.90572,-3.47318 -0.30608,-0.31389 -1.94458,0.69709 -3.64111,2.24663 -2.44575,2.23385 -2.98739,3.41919 -2.61521,5.72318 0.36338,2.24945 0.22945,2.567 -0.59291,1.40582 -0.812408,-1.14713 -1.007259,-0.56809 -0.828287,2.46143 0.325309,5.50661 -2.163083,5.84563 -5.060986,0.68951 z m 2.373735,0.0752 c -1.72194,-1.64929 -1.74325,-1.62798 -0.478332,0.47833 0.728145,1.21249 1.539148,1.98927 1.80223,1.72619 0.263082,-0.26308 -0.332672,-1.25512 -1.323898,-2.20452 z m 28.251172,-7.72962 c -0.30744,-0.30744 -1.34919,0.69256 -2.315,2.22222 l -1.75601,2.78121 2.315,-2.22222 c 1.27325,-1.22222 2.06346,-2.47377 1.75601,-2.78121 z m -3.80752,-5.5409 c 2.91415,-5.7729 3.90287,-12.2658 2.04286,-13.41535 -0.51412,-0.31774 -2.9613,0.40685 -5.438166,1.61021 -4.23458,2.05732 -4.41756,2.3105 -3.06524,4.24121 0.88356,1.26145 1.43817,4.49687 1.43817,8.38978 0,7.53677 0.87345,7.39314 5.022376,-0.82585 z m -5.522376,-13.30845 c 1.65,-0.86193 2.48343,-1.58516 1.85208,-1.60718 -2.05629,-0.0717 -9.614,4.70576 -8.19821,5.18236 0.74037,0.24923 1.79613,-0.10062 2.34613,-0.77744 0.55,-0.67683 2.35,-1.93581 4,-2.79774 z m 40.621176,27.35278 c -0.017,-0.825 0.58718,-2.85 1.34271,-4.5 1.7684,-3.86206 1.79435,-2.0657 0.0361,2.5 -0.74131,1.925 -1.36178,2.825 -1.37882,2 z m -12.54797,-11 c 0.3678,-1.375 1.08577,-3.175 1.5955,-4 0.64411,-1.04249 0.72283,-0.73748 0.25808,1 -0.3678,1.375 -1.08577,3.175 -1.5955,4 -0.64411,1.04249 -0.72283,0.73748 -0.25808,-1 z m -17.34121,-12 c 0,-1.925 0.2058,-2.7125 0.45733,-1.75 0.25152,0.9625 0.25152,2.5375 0,3.5 -0.25153,0.9625 -0.45733,0.175 -0.45733,-1.75 z m -72.86103,-8.75 c 6.273935,-12.13036 21.634676,-25.635469 32.629035,-28.687339 1.375,-0.38168 -0.797662,1.170269 -4.828138,3.448776 -8.387324,4.741513 -20.757207,16.025993 -25.368633,23.142633 -3.466572,5.34983 -4.636744,6.35819 -2.432264,2.09593 z"
       id="path194" />
  </g>
</svg>
