<?xml version="1.0" encoding="UTF-8" standalone="no"?>
<!-- Created with Inkscape (http://www.inkscape.org/) -->

<svg
   version="1.1"
   id="svg201"
   width="180"
   height="180"
   viewBox="0 0 180 180"
   sodipodi:docname="core.svg"
   inkscape:version="1.2.2 (732a01da63, 2022-12-09)"
   xmlns:inkscape="http://www.inkscape.org/namespaces/inkscape"
   xmlns:sodipodi="http://sodipodi.sourceforge.net/DTD/sodipodi-0.dtd"
   xmlns="http://www.w3.org/2000/svg"
   xmlns:svg="http://www.w3.org/2000/svg">
  <defs
     id="defs205" />
  <sodipodi:namedview
     id="namedview203"
     pagecolor="#ffffff"
     bordercolor="#000000"
     borderopacity="0.25"
     inkscape:showpageshadow="2"
     inkscape:pageopacity="0.0"
     inkscape:pagecheckerboard="0"
     inkscape:deskcolor="#d1d1d1"
     showgrid="false"
     inkscape:zoom="3.2880465"
     inkscape:cx="59.913994"
     inkscape:cy="99.755279"
     inkscape:window-width="1920"
     inkscape:window-height="1017"
     inkscape:window-x="-8"
     inkscape:window-y="-8"
     inkscape:window-maximized="1"
     inkscape:current-layer="g207" />
  <g
     inkscape:groupmode="layer"
     inkscape:label="Image"
     id="g207">
    <path
       style="fill:#000000"
       d="m 84.082702,153.20308 c -1.760423,-0.50911 -3.474481,-1.36852 -3.809017,-1.90982 -0.334536,-0.54129 -3.979036,-0.98416 -8.09889,-0.98416 -4.823485,0 -8.562427,-0.55424 -10.50072,-1.55657 -3.703813,-1.91532 -10.890603,-8.30889 -10.890603,-9.68859 0,-1.3923 -6.880346,-8.99244 -9.425476,-10.41154 -1.140988,-0.63618 -3.199524,-2.98658 -4.574524,-5.2231 -1.375,-2.23652 -3.01491,-4.07851 -3.644245,-4.0933 -2.065282,-0.0485 -7.226613,-5.66096 -7.931433,-8.62461 -0.379626,-1.59626 -1.705758,-5.15229 -2.946962,-7.90229 -1.241203,-2.75 -2.554563,-8.150003 -2.918577,-12.000003 -0.364014,-3.85 -1.313352,-7.9962 -2.10964,-9.21379 -1.109568,-1.69661 -1.315712,-4.26639 -0.882402,-11 0.310967,-4.83241 0.705643,-11.687114 0.877057,-15.232662 0.262398,-5.427465 0.7082,-6.787541 2.820298,-8.60429 1.379749,-1.186811 2.800603,-3.077746 3.157452,-4.202077 0.356849,-1.124331 1.985807,-3.889901 3.619906,-6.14571 3.441444,-4.750774 6.958546,-5.586007 6.958546,-1.652498 0,2.406391 0.0603,2.423779 3.467881,1 4.172665,-1.74345 10.532119,-1.918461 10.532119,-0.289842 0,0.637523 -1.782984,3.520677 -3.962187,6.40701 -3.877706,5.135986 -6.763355,13.017392 -5.720249,15.623392 0.288497,0.720757 0.560068,0.08452 0.603489,-1.413853 0.09576,-3.30464 3.348894,-5.211074 10.578947,-6.199588 7.345117,-1.004245 11.417405,-2.489296 16.877555,-6.154776 5.095854,-3.420923 9.506604,-9.61459 10.574553,-14.849005 l 0.626826,-3.072311 12.230047,-0.280935 c 10.991037,-0.252475 12.288377,-0.100512 12.805807,1.5 0.31667,0.979514 1.91115,4.516466 3.54329,7.859893 2.58791,5.301332 3.78253,6.555724 9.33877,9.805985 4.4093,2.579332 8.47014,4.051931 13.1872,4.782124 7.72688,1.196108 12.31595,3.192793 12.31595,5.358613 0,0.810876 0.42269,1.47432 0.9393,1.47432 2.3146,0 -3.19997,-11.777963 -8.27609,-17.675972 -2.76852,-3.216786 -1.23963,-4.671926 4.222,-4.018317 2.53813,0.303746 5.40229,0.857366 6.36479,1.230266 1.32748,0.514303 1.75,0.169287 1.75,-1.428988 0,-5.554109 8.60727,1.142979 11.07362,8.616086 0.59482,1.802309 1.68669,3.276925 2.42638,3.276925 1.73002,0 3.4332,5.25257 3.56682,11 0.43933,18.89765 0.20465,23.91535 -1.37033,29.29879 -0.93307,3.18934 -1.69649,7.20976 -1.69649,8.93428 0,1.72451 -0.83912,4.965063 -1.86472,7.201213 -1.02559,2.23614 -2.6288,6.17964 -3.56269,8.76331 -1.33533,3.69431 -2.49654,5.07911 -5.437,6.48392 -2.05646,0.98248 -4.42439,3.14357 -5.26206,4.80241 -0.83766,1.65884 -2.84619,3.89598 -4.46339,4.97141 -1.6172,1.07543 -4.73356,4.41006 -6.92525,7.41028 -8.56446,11.72398 -14.02531,15.13439 -24.23361,15.13439 -4.8541,0 -7.96262,0.57826 -10.751278,2 -4.179767,2.13097 -8.023353,2.39126 -13.20077,0.89398 z M 98.4471,146.11214 c 4.10784,-4.10784 5.50654,-8.40848 3.96291,-12.18493 -1.03332,-2.52801 -1.12654,-2.30191 -1.12654,2.73235 0,4.41515 -0.46875,5.98737 -2.397048,8.03995 -2.872132,3.05725 -8.255017,5.01349 -11.212479,4.07483 -1.545472,-0.49052 -1.930976,-0.3398 -1.386055,0.54191 1.426893,2.30876 8.513848,0.44125 12.159212,-3.20411 z m -21.130442,0.99711 c 0.808201,-0.8082 -0.646653,-3.84806 -1.568872,-3.27809 -0.454365,0.28081 -1.15174,-0.0163 -1.549724,-0.66026 -0.485058,-0.78484 -0.286981,-0.90097 0.60084,-0.35226 0.974118,0.60203 1.147242,0.35676 0.654509,-0.92728 -0.368467,-0.96021 -0.669939,-3.05903 -0.669939,-4.66405 0,-2.72685 -0.256468,-2.91821 -3.911016,-2.91821 -3.787504,0 -14.556214,3.40068 -16.588984,5.23867 -0.637449,0.57637 -0.472653,0.78765 0.454545,0.58276 0.8,-0.17679 1.475,0.20357 1.5,0.84524 0.06503,1.66919 1.421456,2.80581 3.366034,2.82058 0.923682,0.007 1.572319,0.55906 1.441417,1.22676 -0.146745,0.74852 0.395446,0.97094 1.414045,0.58006 1.100895,-0.42245 1.413184,-0.24746 0.936066,0.52454 -0.482508,0.78071 -0.156417,0.94376 1,0.5 0.949549,-0.36438 1.462057,-0.2476 1.147464,0.26145 -0.584745,0.9462 10.834053,1.15965 11.773615,0.22009 z m 36.703252,-0.22009 c -0.3121,-0.50859 0.20277,-0.6255 1.15145,-0.26145 1.15642,0.44376 1.48251,0.28071 1,-0.5 -0.4825,-0.78072 -0.15641,-0.94376 1,-0.5 1.07852,0.41386 1.47367,0.26641 1.0637,-0.39695 -0.38648,-0.62533 0.0926,-0.92629 1.17562,-0.73854 1.00535,0.17428 1.83801,-0.26203 1.85035,-0.96959 0.0268,-1.53611 2.58586,-3.29237 3.74947,-2.57322 0.45239,0.27959 0.69887,-0.0666 0.54775,-0.7693 -0.37358,-1.73704 -12.23561,-5.87101 -16.84629,-5.87101 -3.68559,0 -3.73101,0.049 -4.0778,4.40455 -0.19288,2.4225 -0.0132,4.19595 0.39931,3.94098 1.50669,-0.93127 0.70052,1.44972 -0.94196,2.78203 -1.45822,1.18285 -1.5761,1.16522 -0.85329,-0.12756 0.69407,-1.2414 0.59931,-1.27732 -0.54969,-0.20836 -1.00837,0.93814 -1.07481,1.48551 -0.24275,2 1.70685,1.05541 12.23355,0.86298 11.57413,-0.21158 z m -31.236438,0.0424 c 0,-0.20765 -0.7875,-0.99515 -1.75,-1.75 -1.586056,-1.24387 -1.621426,-1.2085 -0.377555,0.37756 1.306369,1.66575 2.127555,2.19548 2.127555,1.37244 z m 8.433788,-0.72957 c -0.456247,-0.73823 -0.0041,-0.89128 1.356826,-0.45933 1.169926,0.37132 2.356341,0.1377 2.779738,-0.54737 0.497742,-0.80537 0.311717,-0.93132 -0.570352,-0.38617 -0.892217,0.55142 -1.06841,0.41971 -0.553358,-0.41367 0.415613,-0.67247 1.408513,-0.97215 2.206446,-0.66596 0.803783,0.30844 1.180504,0.11939 0.844728,-0.4239 -0.333334,-0.53935 -0.09773,-1.77169 0.523567,-2.73855 1.026937,-1.59811 1.072507,-1.57887 0.50127,0.2116 -0.345597,1.08323 -0.278637,1.6198 0.148799,1.19236 1.105478,-1.10547 1.018948,-8.58697 -0.09139,-7.90162 -0.505966,0.31231 -0.634661,-0.17559 -0.285988,-1.08422 0.348673,-0.90863 0.312645,-1.56492 -0.08006,-1.45844 -0.392707,0.10648 -2.154165,-0.57392 -3.914352,-1.512 -4.291566,-2.28716 -5.604496,-2.16142 -9.222935,0.88329 -3.803471,3.20041 -4.128314,7.80451 -0.845136,11.9784 1.227374,1.56035 1.607845,2.45151 0.845491,1.98035 -0.95827,-0.59225 -1.158104,-0.48776 -0.647432,0.33853 0.423397,0.68507 1.609812,0.91869 2.779738,0.54737 1.360962,-0.43195 1.813073,-0.2789 1.356826,0.45933 -0.418043,0.6764 0.13977,1.10713 1.433786,1.10713 1.294016,0 1.851829,-0.43073 1.433788,-1.10713 z m -6.826533,-8.71933 c -0.680812,-1.10157 0.419728,-5.17354 1.398265,-5.17354 0.424742,0 0.709758,0.5625 0.633369,1.25 -0.07639,0.6875 0.311111,1.25 0.861111,1.25 0.55,0 0.9375,-0.5625 0.861111,-1.25 -0.07639,-0.6875 0.208627,-1.25 0.633369,-1.25 0.978537,0 2.079077,4.07197 1.398265,5.17354 -0.663175,1.07304 -5.122315,1.07304 -5.78549,0 z m -6.924141,-1.36104 c -0.319226,-0.79773 -0.556183,-0.56078 -0.604167,0.60417 -0.04342,1.05416 0.192928,1.64479 0.52522,1.3125 0.332291,-0.3323 0.367818,-1.1948 0.07895,-1.91667 z m -20.953947,0.58333 c -0.332292,-0.33229 -1.194792,-0.36781 -1.916667,-0.0789 -0.797733,0.31922 -0.560776,0.55618 0.604167,0.60416 1.054166,0.0434 1.644791,-0.19293 1.3125,-0.52522 z m 70.187501,0.24485 c -0.22917,-0.19763 -1.76667,-0.6613 -3.41667,-1.03038 -2.19092,-0.49007 -2.59546,-0.3973 -1.5,0.34401 1.35037,0.91381 5.92015,1.55175 4.91667,0.68637 z m -64.288792,-2.27734 c 2.129668,-0.90017 5.797703,-1.57104 8.151189,-1.49083 l 4.279065,0.14584 -1.638449,-2.50059 c -0.901147,-1.37532 -2.108755,-2.20992 -2.683574,-1.85467 -0.574818,0.35526 -0.789175,0.23179 -0.476349,-0.27437 0.312827,-0.50616 -0.06764,-3.37376 -0.845491,-6.37244 -1.634271,-6.30028 -1.800064,-9.62579 -0.324867,-6.51628 0.740148,1.56013 0.835774,1.2633 0.434793,-1.34961 -0.28272,-1.84228 -1.609999,-4.65209 -2.949509,-6.244 l -2.435473,-2.8944 -2.139043,5.71711 c -1.489214,3.98028 -1.942907,6.78855 -1.493425,9.244 0.657846,3.5937 5.874268,10.0269 8.130407,10.0269 0.684649,0 1.522931,0.45 1.86285,1 1.277607,2.06721 -1.556995,0.88886 -4.879685,-2.02851 -1.897103,-1.66567 -3.825262,-2.93118 -4.284797,-2.81224 -0.459535,0.11894 -2.738241,-0.13113 -5.063792,-0.55572 -5.168969,-0.94373 -9.938393,-0.0207 -9.938393,1.92344 0,0.87531 0.42541,1.11762 1.083334,0.61706 0.626749,-0.47684 2.769183,0.15511 5.083333,1.49942 2.2,1.27801 3.55,2.32937 3,2.33636 -0.55,0.007 -2.425522,-0.8565 -4.167828,-1.91888 -2.704326,-1.64897 -3.251332,-1.71398 -3.738545,-0.44432 -0.313895,0.818 -0.156967,1.23155 0.348729,0.91902 0.954713,-0.59005 2.511206,1.2206 2.548278,2.96437 0.01169,0.55 2.216304,0.93622 4.899136,0.85828 3.132463,-0.091 4.382714,0.17187 3.494054,0.73468 -2.190287,1.38717 -0.471585,1.05224 3.744052,-0.72962 z m 66.362582,-0.85184 c 0.67988,-0.81921 1.58436,-1.27428 2.00994,-1.01125 0.42559,0.26302 0.7121,-0.30443 0.6367,-1.26101 -0.0758,-0.96193 0.45478,-1.61644 1.18723,-1.46446 0.72838,0.15112 1.02714,-0.20609 0.66391,-0.79381 -0.36323,-0.58772 -0.18538,-1.64096 0.39522,-2.34054 0.83801,-1.00975 -0.22655,-1.22385 -5.16391,-1.03859 -9.22724,0.34625 -11.55989,0.96577 -14.42533,3.83121 -2.95685,2.95685 -2.9751,2.91037 1.62858,4.1473 5.90681,1.58706 11.71879,1.55644 13.06766,-0.0688 z m -3.99046,-1.91272 c 0,-0.22068 1.575,-1.3305 3.5,-2.46628 1.925,-1.13578 3.5,-1.72725 3.5,-1.31438 0,0.41286 -1.30693,1.52269 -2.90429,2.46627 -2.87598,1.69889 -4.09571,2.09032 -4.09571,1.31439 z m -14.88213,0.49523 c -1.10194,-0.69791 -0.98821,-1.00039 0.56101,-1.49209 3.72572,-1.1825 8.45045,-7.14726 9.019,-11.38609 0.52534,-3.9167 -2.06316,-13.21583 -3.67875,-13.21583 -0.39004,0 -1.5454,0.92404 -2.56748,2.05343 -1.31174,1.44946 -1.96077,3.99053 -2.20661,8.63928 -0.23652,4.4726 -1.11896,8.06531 -2.75009,11.19656 -2.67513,5.13539 -3.32146,4.3331 -0.99495,-1.23503 1.77447,-4.24689 1.93155,-10.48183 0.39341,-15.61566 l -1.10658,-3.69346 -4.75582,5.07744 c -7.038966,7.515 -7.603709,8.98603 -4.261486,11.10024 1.501758,0.94998 3.557026,2.68347 4.567256,3.85222 1.01022,1.16874 1.5032,1.49295 1.09549,0.72047 -0.49312,-0.9343 -0.34932,-1.16226 0.42953,-0.6809 0.64395,0.39798 0.89861,1.16406 0.5659,1.7024 -1.25702,2.0339 0.55517,3.8828 3.79092,3.8677 2.26594,-0.0106 2.85367,-0.2862 1.89925,-0.89068 z m -31.140104,-6.32369 c 0.04417,-1.44962 8.023108,-4.77032 11.462074,-4.77032 3.043934,0 3.790405,-0.50673 5.524229,-3.75 3.020442,-5.65003 9.733551,-12.58003 11.521621,-11.89389 0.83287,0.31961 1.5275,1.38272 1.54362,2.36249 0.0229,1.38859 0.68123,1.06477 2.98591,-1.46862 3.48908,-3.83534 4.36036,-3.97958 6.40508,-1.06033 1.76672,2.52235 1.60869,2.63875 4.05685,-2.98798 2.15937,-4.963003 3.10601,-5.792523 4.90578,-4.298853 1.01476,0.84217 1.65353,-0.21339 2.94911,-4.87333 2.70583,-9.73233 4.69921,-25.23554 3.8696,-30.09522 l -0.7506,-4.396855 -6.47552,-1.091026 c -9.07334,-1.52872 -10.65559,-2.124797 -17.76651,-6.693145 -5.04436,-3.240704 -7.09809,-5.400152 -10.363962,-10.897427 -6.515468,-10.967157 -6.831622,-10.265126 -6.932652,15.394163 -0.04818,12.2375 -0.438057,24.5 -0.866387,27.25 -0.484975,3.11368 -0.829189,-5.6577 -0.912394,-23.25 l -0.133613,-28.25 h 3.429576 c 3.209136,0 3.665195,0.436233 7.095332,6.786891 2.97511,5.508212 4.73111,7.465117 9.32042,10.38674 8.25014,5.252168 9.18673,5.634141 16.75984,6.835234 3.79216,0.601435 7.46843,1.660149 8.16949,2.352697 2.23122,2.204138 2.5292,10.782478 0.76528,22.031288 -1.50394,9.59088 -1.52789,12.92844 -0.0824,11.48294 1.42686,-1.42686 3.71324,-22.45674 3.08217,-28.34955 -0.81198,-7.58223 -1.0303,-7.769211 -11.03971,-9.455399 -10.41149,-1.753922 -20.13424,-7.569538 -24.0249,-14.370388 -1.6363,-2.860249 -3.21935,-6.100453 -3.517868,-7.200453 -0.4855,-1.788956 -1.487956,-2.022762 -9.500001,-2.21571 l -8.957229,-0.215709 -3.382391,6.934507 c -2.937726,6.022866 -4.206007,7.471115 -9.647328,11.016275 -4.907607,3.197431 -8.248817,4.47975 -15.421781,5.918707 -5.036264,1.010317 -9.3592,2.039296 -9.606525,2.286622 -0.247325,0.247325 -0.926669,3.029938 -1.509652,6.183588 -0.837168,4.52866 -0.705783,8.08366 0.62506,16.91281 0.926766,6.1484 2.080486,11.60641 2.563823,12.12891 1.290149,1.39469 1.092105,-2.99399 -0.638984,-14.15995 -1.262808,-8.14543 -1.304805,-10.62999 -0.25,-14.79005 l 1.267778,-5 7,-1.110407 c 13.301159,-2.109958 21.799005,-7.181952 27.099882,-16.174738 5.192502,-8.808933 6.20851,-8.829198 1.433187,-0.02859 -3.370263,6.211176 -4.908376,7.915284 -10.304,11.416016 -7.037091,4.565731 -10.709028,5.941039 -18.48373,6.922999 -5.56944,0.703432 -5.224405,0.302764 -6.738035,7.82447 -0.398571,1.98062 1.545164,14.56428 4.078197,26.40208 1.450303,6.7778 1.702344,7.21403 3.855818,6.67354 2.032958,-0.51024 2.578789,0.0845 4.6386,5.054163 1.809959,4.36685 2.487517,5.21884 3.015437,3.79174 0.374506,-1.01239 1.408916,-2.44489 2.29869,-3.18334 1.396815,-1.15925 1.924268,-0.95769 3.861862,1.47574 1.234251,1.55011 2.536736,3.74491 2.894412,4.87735 0.568416,1.79966 0.662874,1.72806 0.75,-0.56858 0.05482,-1.44515 0.778879,-3.19124 1.609011,-3.88018 1.267189,-1.05168 2.189663,-0.48634 5.75,3.5239 4.321755,4.86788 6.641706,8.28236 6.705234,9.8687 0.01949,0.48667 -0.940048,-0.41333 -2.132304,-2 -3.145095,-4.18554 -8.107218,-9.38486 -8.956712,-9.38486 -0.402664,0 -1.295894,2.51922 -1.984954,5.59827 -0.996887,4.45456 -1.000801,6.54061 -0.01916,10.21087 1.795721,6.714 3.064052,7.91652 5.293339,5.01866 0.984913,-1.28029 1.800756,-2.65615 1.812986,-3.05748 z m 22.022234,3.88467 c 0,-0.18976 -1.012498,-1.20226 -2.249998,-2.25 l -2.25,-1.90499 1.904988,2.25 c 1.790222,2.11444 2.59501,2.70524 2.59501,1.90499 z m -15.473537,-4.46186 c -0.307887,-0.30789 -1.114794,-6.4e-4 -1.793128,0.68278 -0.980267,0.98762 -0.865403,1.10248 0.559795,0.5598 0.986221,-0.37553 1.541221,-0.93469 1.233333,-1.24258 z m 5.723539,1.14459 c -0.6875,-0.27741 -1.8125,-0.27741 -2.5,0 -0.6875,0.27741 -0.125,0.50439 1.25,0.50439 1.375,0 1.9375,-0.22698 1.25,-0.50439 z m -49.707713,-1.2693 c -0.316661,-0.51237 0.370893,-1.59463 1.527897,-2.40503 2.053526,-1.43834 2.057066,-1.48823 0.148613,-2.09395 -1.075266,-0.34127 -2.801877,-1.57664 -3.836913,-2.74527 -1.508013,-1.70264 -1.037543,-1.57183 2.368116,0.65842 4.425616,2.89819 5.108985,4.00414 3,4.85513 -0.6875,0.27741 2.1475,0.53991 6.3,0.58333 4.565084,0.0477 8.072818,0.57314 8.872407,1.32895 1.095127,1.03517 1.103772,0.82033 0.0503,-1.25 -0.699661,-1.375 -1.596527,-2.725 -1.993036,-3 -0.396509,-0.275 -0.147955,-2.73892 0.552341,-5.47538 1.18717,-4.63895 1.109663,-5.29824 -1.146216,-9.75 -1.33072,-2.62604 -2.810153,-4.77462 -3.287632,-4.77462 -1.170374,0 -3.86375,4.21784 -4.621639,7.23751 -0.447595,1.78336 0.105951,3.30127 2.0437,5.60416 3.340769,3.97027 1.815311,4.16177 -1.938752,0.24337 -2.674858,-2.79195 -2.73665,-3.0768 -1.464283,-6.75 0.730634,-2.10927 1.422666,-4.73504 1.537848,-5.83504 0.285517,-2.726713 -1.535675,-8.320193 -2.977993,-9.146403 -0.647375,-0.37084 -0.849787,-0.31235 -0.449805,0.12998 0.399982,0.44233 -0.576902,2.28957 -2.170854,4.10498 -2.80225,3.191593 -3.13384,5.960493 -1.067189,8.911443 0.987499,1.41004 2.032297,4.5 1.521572,4.5 -0.234554,0 -1.599116,-2.00098 -3.032361,-4.44663 -2.770841,-4.72808 -2.574927,-6.263853 1.400091,-10.975263 1.02069,-1.20978 1.118645,-1.62654 0.264367,-1.12477 -1.025337,0.60224 -1.198755,0.29811 -0.709323,-1.24395 0.356297,-1.12259 0.148829,-2.34946 -0.461039,-2.72638 -0.609868,-0.37692 -0.867296,-1.31479 -0.572062,-2.08416 0.817924,-2.13148 -0.811043,-1.67443 -3.754419,1.0534 -2.820752,2.61419 -3.238385,4.85952 -1.670774,8.98265 1.47055,3.867843 0.137587,3.079403 -1.526276,-0.90278 -1.908428,-4.56751 -1.869268,-4.87918 1.048789,-8.34709 2.635918,-3.13261 3.03258,-7.30204 0.989765,-10.40371 -1.020592,-1.5496 -1.343314,-1.57063 -3.280437,-0.21382 -2.938113,2.05794 -4.954327,8.82721 -3.243246,10.88893 1.034443,1.24643 0.969041,1.63209 -0.363492,2.14344 -0.893693,0.34294 -2.883498,0.4388 -4.421788,0.21303 -2.568759,-0.37701 -2.815875,-0.1286 -3.029642,3.04553 -0.193475,2.87284 0.0051,3.25867 1.176485,2.28647 1.103527,-0.91585 1.709183,-0.78726 2.791914,0.59277 1.232744,1.57123 1.206157,1.6245 -0.245178,0.49125 -1.374348,-1.07312 -1.710166,-0.95632 -2.156381,0.75 -0.445548,1.70379 -0.03299,2.032113 2.627858,2.091373 2.613716,0.0582 2.812528,0.20861 1.15638,0.87486 -1.1,0.44252 -2.45,0.56375 -3,0.26939 -0.55,-0.29435 -0.643331,-0.14388 -0.207402,0.3344 0.435929,0.47827 2.578033,0.74068 4.760233,0.58312 4.680807,-0.33797 9.947169,0.66551 9.947169,1.89538 0,0.47768 -1.308892,0.41224 -2.90865,-0.14544 -3.684146,-1.2843 -9.326176,-0.67752 -9.907176,1.06548 -0.2898,0.8694 -0.0016,1.05772 0.831083,0.54309 0.947581,-0.58564 1.146266,-0.11585 0.774188,1.83054 -0.275292,1.4401 -0.166697,2.41204 0.241322,2.15988 0.735148,-0.45435 2.308304,3.25768 2.052608,4.84334 -0.07311,0.45338 0.328221,0.53932 0.891848,0.19098 0.563628,-0.34834 1.024777,-0.15679 1.024777,0.42567 0,0.58246 0.45,1.05902 1,1.05902 0.55,0 1,-1.125 1,-2.5 0,-1.72012 0.545917,-2.49522 1.75,-2.48469 1.495547,0.0131 1.531897,0.15626 0.25,0.98469 -1.057878,0.68365 0.324778,0.97389 4.690983,0.98469 3.405041,0.008 6.469098,0.46531 6.809017,1.01531 0.383163,0.61997 -1.454353,1 -4.835196,1 -5.132059,0 -5.444737,0.14159 -5.309017,2.40404 0.07932,1.32222 0.558185,2.1484 1.064152,1.83596 0.505966,-0.31245 0.638119,0.16632 0.293674,1.06393 -0.344446,0.89761 -0.12639,1.94096 0.484569,2.31855 0.719447,0.44465 0.825789,0.22532 0.301818,-0.62248 -0.551421,-0.89222 -0.419707,-1.06841 0.413665,-0.55336 0.672475,0.41561 0.99801,1.34115 0.72341,2.05674 -0.2746,0.7156 -0.230278,1.57008 0.09849,1.89885 0.923858,0.92386 1.449561,0.70633 0.806719,-0.33381 z m -9.669842,-16.81842 c -1.243871,-1.58606 -1.208501,-1.62143 0.377555,-0.37756 0.9625,0.75485 1.75,1.54235 1.75,1.75 0,0.82304 -0.821186,0.29331 -2.127555,-1.37244 z M 23.595972,92.626007 c 0.721875,-0.28887 1.584375,-0.25335 1.916667,0.079 0.332291,0.33229 -0.258334,0.56864 -1.3125,0.52522 -1.164943,-0.048 -1.4019,-0.28494 -0.604167,-0.60417 z M 128.73347,124.29381 c 5.04891,-0.0102 7.06269,-0.3235 6.07896,-0.94563 -0.80907,-0.51167 -1.25907,-1.08548 -1,-1.27514 0.25907,-0.18965 2.27104,-1.59659 4.47104,-3.12652 l 4,-2.78171 -3.14553,2.82216 c -2.6808,2.4052 -2.9361,3.01569 -1.72803,4.1321 0.77962,0.72047 1.09623,1.84547 0.70357,2.5 -0.45045,0.75086 -0.11145,0.70176 0.91859,-0.13306 0.91859,-0.7445 1.36554,-2.01885 1.02202,-2.91405 -0.38722,-1.00909 -0.20789,-1.34211 0.49034,-0.91057 0.60547,0.37419 1.42647,0.15348 1.82445,-0.49047 0.48506,-0.78484 0.28698,-0.90097 -0.60084,-0.35226 -1.32352,0.81797 -1.30335,0.70164 0.75522,-4.35561 0.43202,-1.06134 -0.73442,-1.27287 -5.51433,-1 -4.76511,0.27202 -5.83955,0.0786 -5.02141,-0.90393 0.61193,-0.7349 3.41481,-1.25 6.80176,-1.25 4.98917,0 5.83361,0.27795 6.3035,2.07482 0.45936,1.75656 0.86072,1.90455 2.61664,0.96481 1.14073,-0.6105 2.07405,-1.79572 2.07405,-2.63383 0,-0.83811 0.44485,-1.2489 0.98855,-0.91288 0.58718,0.3629 0.72119,-0.0858 0.33006,-1.10503 -0.40406,-1.05295 -0.26226,-1.4711 0.36699,-1.0822 0.63919,0.39504 0.86206,-0.39072 0.59165,-2.08595 -0.35529,-2.2274 -0.22156,-2.4482 0.73879,-1.21974 0.99728,1.2757 1.08375,1.22609 0.57829,-0.33179 -0.32688,-1.00748 -0.59433,-2.24498 -0.59433,-2.75 0,-1.21383 -6.1907,-1.1764 -9.4349,0.057 -1.54874,0.58883 -2.5651,0.60678 -2.5651,0.0453 0,-1.25781 6.17552,-2.33562 10.49381,-1.83149 4.06827,0.47495 4.40269,0.14272 1.25619,-1.24798 -1.9486,-0.86124 -1.82059,-0.92844 0.95562,-0.50165 2.52667,0.38843 3.08645,0.18228 2.64301,-0.973323 -0.30944,-0.80631 -0.0341,-1.46607 0.61177,-1.46607 1.38429,0 0.32155,-4.29336 -1.20574,-4.87105 -0.53953,-0.20408 -0.36755,-0.75969 0.38219,-1.23469 0.91153,-0.57751 0.1594,-0.86871 -2.27022,-0.87895 -2.78583,-0.0117 -3.75545,-0.48216 -4.15674,-2.01669 -0.30172,-1.15379 -0.11235,-1.74736 0.44715,-1.40156 1.56376,0.96645 -0.20827,-6.86607 -2.02251,-8.93968 -0.88669,-1.01345 -2.40078,-2.26469 -3.36467,-2.78055 -1.43566,-0.76834 -1.74407,-0.5256 -1.70582,1.34263 0.0257,1.2543 -0.25712,3.52552 -0.62843,5.04715 -0.53781,2.20394 -0.12328,3.31844 2.03817,5.4799 2.23523,2.23523 2.61462,3.3213 2.15329,6.16413 -0.30799,1.89797 -1.30265,4.15702 -2.21035,5.02011 -1.51823,1.443623 -1.56094,1.394383 -0.53353,-0.61501 1.70975,-3.34392 1.3345,-7.80876 -0.82018,-9.75871 -1.06534,-0.96413 -2.3769,-1.48107 -2.91459,-1.14876 -0.53768,0.33231 -1.24373,0.0389 -1.56899,-0.65204 -0.32527,-0.69093 -0.34567,0.019 -0.0453,1.57756 0.36517,1.89507 0.18632,2.61145 -0.53993,2.16261 -1.66567,-1.02945 -0.70943,3.57089 1.40232,6.74631 2.18784,3.289853 1.6473,6.108103 -1.96735,10.257293 l -2.61351,3 2.09218,-3.80716 c 2.83376,-5.1566 2.64458,-6.98661 -1.11044,-10.741623 l -3.20263,-3.20263 -1.04737,3.05393 c -0.57605,1.67967 -1.38487,3.38624 -1.79737,3.79238 -1.13211,1.114653 -0.89935,2.438173 0.37901,2.155103 0.62096,-0.1375 1.25875,0.65 1.41731,1.75 0.15857,1.1 0.57953,3.575 0.93548,5.5 0.58704,3.17482 0.3066,3.76696 -3.01854,6.3734 -2.81061,2.20313 -3.42157,2.41721 -2.61908,0.91776 0.57564,-1.07561 1.7462,-2.53624 2.60122,-3.24585 2.19706,-1.82339 1.92391,-4.91826 -0.83659,-9.47879 l -2.38095,-3.933493 -2.11393,4.143653 c -1.16266,2.279 -2.12082,4.94907 -2.12924,5.93348 -0.0132,1.5413 -0.16515,1.58155 -1.09434,0.28984 -0.86743,-1.20586 -0.94081,-1.10781 -0.37421,0.5 1.73407,4.92069 1.72646,10.48145 -0.0181,13.23041 -0.96672,1.52328 -1.15925,2.20709 -0.42785,1.51959 0.81801,-0.76891 4.23559,-1.25589 8.87982,-1.26531 z m 16.07006,-11.46052 c -0.78875,-0.95039 -0.86462,-1.52417 -0.20152,-1.52417 1.20855,0 2.61759,1.8972 1.9241,2.5907 -0.2517,0.2517 -1.02686,-0.22824 -1.72258,-1.06653 z m 2.97994,-3.90173 c 0,-0.20765 0.7875,-0.99515 1.75,-1.75 1.58606,-1.24387 1.62143,-1.2085 0.37756,0.37756 -1.30637,1.66575 -2.12756,2.19548 -2.12756,1.37244 z m 6.10039,-11.326963 c 0.72815,-1.21249 1.53915,-1.98927 1.80223,-1.72619 0.26308,0.26308 -0.33267,1.25511 -1.3239,2.20452 -1.72194,1.64929 -1.74325,1.62798 -0.47833,-0.47833 z M 92.545131,124.62204 c -0.956087,-0.25029 -2.756087,-0.25937 -4,-0.0202 -1.243912,0.23919 -0.461659,0.44398 1.738341,0.45508 2.2,0.0111 3.217747,-0.18461 2.261659,-0.4349 z M 110.46658,113.1216 c -0.31922,-0.79773 -0.55618,-0.56078 -0.60416,0.60417 -0.0434,1.05416 0.19292,1.64479 0.52522,1.3125 0.33229,-0.3323 0.36781,-1.1948 0.0789,-1.91667 z M 27.998534,87.653787 c -0.525255,-2.74769 -3.927012,-5.03274 -5.359582,-3.60017 -1.698673,1.69867 0.746564,6.00548 3.409677,6.00548 2.005833,0 2.332644,-0.40314 1.949905,-2.40531 z m 128.812546,0.60373 c 0.60388,-1.12838 0.95722,-2.9733 0.78518,-4.09983 l -0.31279,-2.04824 -2.62706,2.0757 c -1.44488,1.14164 -2.86525,2.98656 -3.15638,4.09983 -0.42152,1.61189 -0.0464,2.02412 1.84188,2.02412 1.36761,0 2.8359,-0.86831 3.46917,-2.05158 z M 41.466586,83.121597 c -0.319226,-0.79773 -0.556183,-0.56078 -0.604167,0.60417 -0.04342,1.05416 0.192928,1.64479 0.52522,1.3125 0.332291,-0.33229 0.367818,-1.19479 0.07895,-1.91667 z m 113.816884,-1.23079 c 1.65,-0.93996 2.14885,-1.44507 1.10856,-1.12247 -1.60005,0.49618 -1.69673,0.35193 -0.62756,-0.93635 1.54838,-1.86568 5.47385,-2.10817 4.41769,-0.27289 -0.39564,0.6875 -0.35497,0.92028 0.0904,0.51728 1.52429,-1.37935 1.12769,-7.43297 -0.48906,-7.46497 -2.17912,-0.0431 -4,1.669 -4,3.76112 0,1.00019 -0.36858,2.04633 -0.81906,2.32474 -0.45048,0.27841 -0.61986,-0.85095 -0.37641,-2.50969 0.24345,-1.65874 1.24212,-3.51518 2.21927,-4.12542 0.97715,-0.61024 1.564,-1.66367 1.3041,-2.34095 -0.2599,-0.67729 0.46,-1.5274 1.59978,-1.88916 2.07252,-0.6578 2.95173,-3.52295 1.08104,-3.52295 -0.59994,0 -0.81189,-2.566 -0.53691,-6.5 0.26668,-3.815129 0.0565,-6.5 -0.50874,-6.5 -0.52971,0 -0.8506,-0.5625 -0.7131,-1.25 0.1375,-0.6875 -0.41973,-1.25 -1.2383,-1.25 -0.88794,0 -2.15215,-1.960968 -3.134,-4.861277 -0.90514,-2.673703 -2.82291,-6.038476 -4.2617,-7.477273 l -2.616,-2.615995 v 2.727272 c 0,3.146279 -0.15506,3.181692 -5.5,1.256109 -7.26638,-2.617806 -7.922,-2.108714 -4.16603,3.234944 2.99139,4.255895 6.03368,11.465962 7.09795,16.821786 1.07791,5.424454 1.98834,7.086054 4.89305,8.930174 1.9705,1.25102 3.26609,2.9582 3.41507,4.5 0.22079,2.28507 0.16857,2.31826 -0.65131,0.41393 -0.86381,-2.00636 -5.17451,-5.42967 -6.83716,-5.42967 -0.45033,0 -0.85161,1.98351 -0.89172,4.4078 -0.0606,3.66078 0.33102,4.62399 2.31059,5.68342 2.34496,1.25498 3.98416,4.96405 3.49522,7.90878 -0.16138,0.97197 0.0296,1.11115 0.54264,0.39536 0.43544,-0.60755 2.1417,-1.8737 3.7917,-2.81365 z m 0.67727,-19.83171 c 0.6862,-1.2375 1.16642,-2.54434 1.06715,-2.90409 -0.0993,-0.359747 0.56652,-1.259747 1.47951,-1.999998 1.42272,-1.153534 1.52913,-1.13151 0.74446,0.154088 -0.50354,0.825 -0.95314,1.95 -0.99911,2.5 -0.15661,1.87369 -1.68072,4.5 -2.61145,4.5 -0.51051,0 -0.36676,-1.0125 0.31944,-2.25 z m -6.42727,-3.04942 c -1.5125,-0.597666 -2.75,-1.407666 -2.75,-1.800002 0,-1.116801 3.80519,0.159763 5.08969,1.707487 0.63536,0.765565 0.9876,1.344065 0.78275,1.285555 -0.20484,-0.0585 -1.60994,-0.59538 -3.12244,-1.19304 z m 6.25,-7.70058 c 0,-0.55 0.47656,-1 1.05902,-1 0.58246,0 0.7809,0.45 0.44098,1 -0.33992,0.55 -0.81648,1 -1.05902,1 -0.24254,0 -0.44098,-0.45 -0.44098,-1 z m -123.931584,25.7913 c 2.453761,-1.81415 2.931586,-2.87023 2.931586,-6.47936 0,-2.37157 -0.284385,-4.31194 -0.631966,-4.31194 -2.128792,0 -7.368034,4.44297 -7.368034,6.24823 0,1.14681 -0.279043,1.80606 -0.620096,1.46501 -1.527314,-1.52732 0.866832,-5.86326 4.084784,-7.39779 2.8486,-1.3584 3.509978,-2.30337 4.004302,-5.7213 1.099163,-7.600003 3.930454,-15.070827 7.35181,-19.398957 1.871606,-2.367644 3.143743,-4.563983 2.826972,-4.880754 -0.513124,-0.513124 -3.614309,0.151285 -10.322007,2.211424 -1.838386,0.564624 -2.227306,0.228032 -2.517807,-2.179045 -0.338857,-2.807752 -0.387925,-2.778949 -3.575765,2.098963 -1.777706,2.720179 -3.232193,6.202374 -3.232193,7.73821 0,2.299767 -0.396963,2.750403 -2.25,2.554219 -1.430386,-0.151436 -2.259628,0.3082 -2.276431,1.26179 -0.01454,0.825 -0.396119,2.090856 -0.847961,2.813013 -0.496498,0.793529 -0.219509,1.980458 0.700099,3 1.313711,1.456474 1.330039,1.948203 0.11949,3.598677 -1.55199,2.11599 -0.999432,6.13716 1.191294,8.66946 0.75233,0.86964 1.077483,1.87154 0.722563,2.22646 -0.354921,0.35492 0.0941,0.92905 0.997818,1.27584 0.90372,0.34679 1.643128,1.54307 1.643128,2.6584 0,1.84191 -0.190054,1.78625 -2.07258,-0.60699 -2.773103,-3.52543 -3.605723,-3.3193 -3.127813,0.77435 0.276716,2.37027 1.008046,3.56873 2.399815,3.93269 1.263684,0.33046 1.723373,0.974 1.246685,1.7453 -0.482698,0.78102 -0.338613,0.9644 0.399385,0.50829 0.634979,-0.39244 1.154508,-0.21041 1.154508,0.40451 0,0.61492 0.402847,0.86906 0.895215,0.56476 0.492369,-0.3043 1.253034,0.23164 1.690369,1.19098 0.652865,1.43214 0.862802,1.24847 1.173199,-1.02638 0.219428,-1.60816 1.608055,-3.68003 3.309631,-4.93806 z m -9.568414,-14.7913 c -1.001589,-1.10674 -1.596072,-2.23726 -1.321072,-2.51226 0.275,-0.275 1.319483,0.40552 2.321072,1.51226 1.001589,1.10674 1.596072,2.23726 1.321072,2.51226 -0.275,0.275 -1.319483,-0.40552 -2.321072,-1.51226 z m 5.677122,-3.605693 c 0.872564,-0.872565 2.361111,-1.430742 3.307882,-1.240394 1.185062,0.238256 0.690759,0.732558 -1.586481,1.586477 -3.02048,1.13263 -3.170042,1.10256 -1.721401,-0.346083 z m -9.484131,15.874723 c -0.253544,-0.97297 -0.477663,-0.41903 -0.498042,1.23097 -0.02038,1.65 0.187065,2.44606 0.460988,1.76903 0.273923,-0.67703 0.290597,-2.02703 0.03705,-3 z m 142.307007,-4.82805 c 0,-0.85746 -0.45734,-1.27636 -1.01631,-0.9309 -0.55897,0.34547 -0.75742,1.04702 -0.44098,1.55902 0.85723,1.38704 1.45729,1.12841 1.45729,-0.62812 z m -17.42857,-9.01241 c -0.36782,-1.46551 -0.89377,-2.439568 -1.16877,-2.164568 -0.275,0.275 -0.19905,1.699058 0.16877,3.164568 0.36782,1.46551 0.89376,2.43957 1.16876,2.16457 0.275,-0.275 0.19906,-1.69906 -0.16876,-3.16457 z m -105.571428,0.57143 c 0,-1.1 -0.172516,-2 -0.383369,-2 -0.210852,0 -0.618724,0.9 -0.90638,2 -0.287656,1.1 -0.115141,2 0.383369,2 0.498509,0 0.90638,-0.9 0.90638,-2 z"
       id="path211" />
  </g>
</svg>
