<?xml version="1.0" encoding="UTF-8" standalone="no"?>
<!-- Created with Inkscape (http://www.inkscape.org/) -->

<svg
   version="1.1"
   id="svg66"
   width="180"
   height="180"
   viewBox="0 0 180 180"
   sodipodi:docname="dialog.svg"
   inkscape:version="1.2.2 (732a01da63, 2022-12-09)"
   xmlns:inkscape="http://www.inkscape.org/namespaces/inkscape"
   xmlns:sodipodi="http://sodipodi.sourceforge.net/DTD/sodipodi-0.dtd"
   xmlns="http://www.w3.org/2000/svg"
   xmlns:svg="http://www.w3.org/2000/svg">
  <defs
     id="defs70" />
  <sodipodi:namedview
     id="namedview68"
     pagecolor="#ffffff"
     bordercolor="#000000"
     borderopacity="0.25"
     inkscape:showpageshadow="2"
     inkscape:pageopacity="0.0"
     inkscape:pagecheckerboard="0"
     inkscape:deskcolor="#d1d1d1"
     showgrid="false"
     inkscape:zoom="3.197694"
     inkscape:cx="122.27561"
     inkscape:cy="109.14115"
     inkscape:window-width="1920"
     inkscape:window-height="1017"
     inkscape:window-x="-8"
     inkscape:window-y="-8"
     inkscape:window-maximized="1"
     inkscape:current-layer="g72" />
  <g
     inkscape:groupmode="layer"
     inkscape:label="Image"
     id="g72">
    <path
       style="fill:#000000"
       d="m 40.486735,150.81135 c -0.33726,-1.34375 -0.31731,-2.92192 0.0443,-3.50707 0.36164,-0.58514 -0.046,-1.33386 -0.90586,-1.66382 -1.90575,-0.73131 -2.002,-5.64611 -0.1936,-9.88595 1.20498,-2.8251 1.05576,-3.28322 -2.55943,-7.85793 -5.09025,-6.44125 -10.35155,-17.56484 -12.37792,-26.1697 -1.23301,-5.235902 -1.50718,-9.711922 -1.10089,-17.972373 0.61988,-12.602709 1.89072,-17.261873 7.84535,-28.762733 16.33997,-31.559224 58.35405,-43.963173 89.823115,-26.518759 7.96528,4.415438 12.12572,7.944312 20.88847,17.717544 6.41042,7.14963 8.38572,10.192613 11.11904,17.129049 3.12989,7.942821 3.34929,9.314315 3.76095,23.509305 0.48056,16.571327 -0.86032,24.875177 -4.97021,30.779577 -2.63626,3.78735 -15.55747,16.7048 -21.85356,21.84721 -6.2056,5.0685 -18.00823,10.49591 -26.97987,12.40663 -10.427695,2.22082 -25.028075,1.40482 -34.784915,-1.94408 l -7.32009,-2.51252 -6.17991,2.9236 c -3.39895,1.60798 -7.85884,2.92396 -9.91086,2.92439 -3.12286,6.6e-4 -3.83089,-0.39741 -4.34414,-2.44237 z m 11.77156,-2.2255 5.94656,-2.66865 -3.0811,-2.41133 c -1.69461,-1.32623 -2.852,-2.78202 -2.57199,-3.23509 0.28002,-0.45307 -1.76912,0.0419 -4.55363,1.09993 -5.82048,2.2116 -7.34856,1.7463 -6.48696,-1.97529 0.45822,-1.97925 0.35709,-2.2651 -0.40366,-1.14091 -1.60762,2.37564 -1.21444,4.81167 0.88412,5.47772 1.57541,0.50002 1.82685,1.24697 1.36916,4.06739 -0.70724,4.35817 0.66748,4.47965 8.8975,0.78623 z m 38.05353,2.00638 c -0.6875,-0.27741 -1.8125,-0.27741 -2.5,0 -0.6875,0.27741 -0.125,0.50439 1.25,0.50439 1.375,0 1.9375,-0.22698 1.25,-0.50439 z m -7.5,-1.02705 c -0.9625,-0.25152 -2.5375,-0.25152 -3.5,0 -0.9625,0.25153 -0.175,0.45733 1.75,0.45733 1.925,0 2.7125,-0.2058 1.75,-0.45733 z m 16.5,0.0271 c -0.6875,-0.27741 -1.8125,-0.27741 -2.5,0 -0.6875,0.27741 -0.125,0.50439 1.25,0.50439 1.375,0 1.9375,-0.22698 1.25,-0.50439 z m -22.52083,-0.94189 c -0.3323,-0.33229 -1.1948,-0.36781 -1.91667,-0.0789 -0.79773,0.31922 -0.56078,0.55618 0.60417,0.60416 1.05416,0.0434 1.64479,-0.19293 1.3125,-0.52522 z m -4,-1 c -0.3323,-0.33229 -1.1948,-0.36781 -1.91667,-0.0789 -0.79773,0.31922 -0.56078,0.55618 0.60417,0.60416 1.05416,0.0434 1.64479,-0.19293 1.3125,-0.52522 z m 30.661355,-1.36788 c 11.58328,-2.9625 20.82261,-8.28653 29.83845,-17.19397 4.27407,-4.22268 7.77103,-8.13412 7.77103,-8.69208 0,-1.42607 -9.94762,3.0963 -9.97643,4.53547 -0.013,0.64758 -1.20926,2.11008 -2.65843,3.25 l -2.63486,2.07258 h 2.69388 c 1.54127,0 2.42944,0.42786 2.07584,1 -0.33992,0.55 -1.92585,1 -3.52429,1 -1.59844,0 -5.03741,1.35154 -7.64215,3.00342 -8.55843,5.42759 -14.83531,7.23571 -26.930845,7.75767 -8.28925,0.35771 -12.44791,0.083 -16.43496,-1.08581 -2.93572,-0.86058 -5.81695,-1.29856 -6.40272,-0.97328 -0.58577,0.32527 -0.51698,-1.6e-4 0.15286,-0.7232 0.95909,-1.03524 2.02165,-1.07586 5,-0.19117 15.84581,4.70686 36.569375,-0.0238 50.340715,-11.49156 l 4.55861,-3.79607 -24.93682,0.31441 -24.936825,0.3144 -5.12179,3.81251 c -2.81699,2.09688 -8.15929,5.53874 -11.87179,7.64859 -3.7125,2.10984 -6.75,4.1421 -6.75,4.51613 0,1.11825 7.47164,3.77127 7.83715,2.7828 0.18544,-0.50147 1.31044,-1.38143 2.5,-1.95547 1.98786,-0.95926 2.01894,-0.92749 0.38419,0.39266 -1.61828,1.30685 -1.21252,1.58033 4.5,3.03307 9.17406,2.33303 9.62201,2.39815 17.3687,2.5249 4.16095,0.0681 10.27542,-0.69869 14.800485,-1.856 z m -35.390525,-0.028 c -0.825,-0.53316 -1.95,-0.96937 -2.5,-0.96937 -0.55,0 -0.325,0.43621 0.5,0.96937 0.825,0.53316 1.95,0.96937 2.5,0.96937 0.55,0 0.325,-0.43621 -0.5,-0.96937 z m -13.78029,-10.66764 c 4.97057,-2.5672 12.34323,-7.03946 16.38369,-9.93835 l 7.34629,-5.27072 25.775155,-0.31165 c 24.36323,-0.29457 26.00164,-0.43278 29.90961,-2.52302 5.271,-2.81927 9.84638,-7.39881 12.64268,-12.65417 1.95271,-3.6699 2.23891,-5.958472 2.54714,-20.368206 0.27947,-13.064786 0.0272,-17.197452 -1.29247,-21.170521 -2.20413,-6.63599 -8.2476,-13.296991 -14.50757,-15.989958 -4.93804,-2.124286 -5.91837,-2.166586 -43.787685,-1.889351 -42.98382,0.314677 -42.24669,0.206636 -49.505,7.255826 -6.75204,6.557489 -7.73429,10.350011 -7.70959,29.766859 0.0186,14.616649 0.30483,17.883691 1.86845,21.326281 2.62988,5.79016 7.48622,10.95444 12.65354,13.45589 2.45082,1.18643 4.45605,2.57351 4.45605,3.08241 0,0.50889 -1.575,4.8312 -3.5,9.60512 -3.5489,8.80112 -3.97008,10.2912 -2.90885,10.2912 0.32514,0 4.65799,-2.10044 9.62856,-4.66764 z m 2.095,-42.796022 c -10.74774,-4.674508 -6.68794,-21.536341 5.18529,-21.536341 11.97232,0 15.88788,16.266339 5.14292,21.365151 -4.14122,1.96514 -6.1278,1.99807 -10.32821,0.17119 z m 12.2955,-4.849692 c 2.08627,-2.479394 2.47861,-3.765582 2.0228,-6.631327 -1.68347,-10.584224 -16.58255,-10.584224 -18.26602,0 -0.45758,2.876837 -0.0629,4.152565 2.06789,6.684922 4.18887,4.978187 9.95973,4.956367 14.17533,-0.0536 z m 15.71077,4.700062 c -6.89892,-3.402257 -8.15365,-13.395708 -2.33993,-18.636711 2.3921,-2.156454 4.03994,-2.75 7.63473,-2.75 3.88009,0 5.10645,0.522232 7.98422,3.4 2.624545,2.624542 3.400005,4.2324 3.400005,7.04966 0,5.133618 -2.540385,9.460351 -6.534305,11.129121 -4.30276,1.79781 -6.18188,1.76223 -10.14472,-0.19207 z m 9.13933,-1.9349 c 6.05098,-2.871377 7.305925,-9.839432 2.61661,-14.528734 -3.75283,-3.752829 -8.75914,-3.96065 -12.74843,-0.52921 -5.22586,4.495093 -2.65695,14.601564 4.04578,15.916684 1.16915,0.2294 2.28272,0.47837 2.4746,0.55327 0.19188,0.0749 1.81703,-0.56051 3.61144,-1.41201 z m 19.917995,2.15894 c -4.3395,-1.95492 -6.3783,-5.289876 -6.3783,-10.433257 0,-3.644993 0.56893,-4.946428 3.4,-7.777494 2.85139,-2.851395 4.12047,-3.4 7.86514,-3.4 5.42882,0 9.11013,2.577009 10.74116,7.5191 1.5143,4.588363 0.53913,8.584165 -2.89879,11.877901 -3.37295,3.23149 -8.49334,4.12198 -12.72921,2.21375 z m 10.98646,-3.49506 c 2.93036,-2.538956 3.8397,-5.966153 2.58873,-9.756632 -2.26226,-6.854716 -9.87206,-8.594331 -15.03041,-3.435982 -8.30034,8.300338 3.56595,20.882834 12.44168,13.192614 z M 46.963505,125.50451 c 1.13803,-2.8875 1.6257,-5.25 1.08373,-5.25 -0.54198,0 -0.98541,0.81399 -0.98541,1.80887 0,0.99488 -0.66069,2.68238 -1.4682,3.75 -0.80751,1.06762 -1.48251,2.80363 -1.5,3.8578 -0.0441,2.65743 0.4806,1.89564 2.86988,-4.16667 z m -4.90168,3.37244 c 0,-0.20765 -0.7875,-0.99515 -1.75,-1.75 -1.58606,-1.24387 -1.62143,-1.2085 -0.37756,0.37756 1.30637,1.66575 2.12756,2.19548 2.12756,1.37244 z M 144.87581,118.37516 c 1.2727,-2.26636 2.07175,-4.12065 1.77568,-4.12065 -0.29606,0 -1.20542,1.29007 -2.02079,2.86683 -0.81537,1.57675 -3.09597,5.06425 -5.068,7.75 -3.57375,4.86717 -3.57471,4.87128 -0.29318,1.25382 1.81077,-1.99614 4.3336,-5.48364 5.60629,-7.75 z M 43.061825,126.9095 c 0,-0.18976 -1.0125,-1.20226 -2.25,-2.25 l -2.25,-1.90499 1.90499,2.25 c 1.79021,2.11444 2.59501,2.70524 2.59501,1.90499 z m -0.25593,-5.64624 c -1.23424,-0.82019 -4.65851,-3.74519 -7.60948,-6.5 l -5.36541,-5.00875 1.648,4 c 0.90639,2.2 2.30133,4.49449 3.09986,5.09888 0.79853,0.60438 1.23387,1.39188 0.96741,1.75 -0.26645,0.35811 -0.18836,0.43002 0.17354,0.1598 0.36189,-0.27023 1.34828,0.0673 2.19196,0.75 1.27042,1.02805 1.39179,0.98361 0.70645,-0.25868 -0.45514,-0.825 0.45066,-0.27259 2.01288,1.22757 2.0648,1.98277 3.05592,2.39237 3.62963,1.5 0.49377,-0.76801 -0.0509,-1.78584 -1.45484,-2.71882 z m 71.063285,1.24498 c -6.43096,-0.17392 -17.230965,-0.17445 -24.000005,-0.001 -6.76904,0.17326 -1.50735,0.31555 11.692655,0.31621 13.2,6.5e-4 18.73831,-0.14111 12.30735,-0.31502 z m 22.24231,-2.77941 c 1.62269,-0.83912 2.95034,-1.75068 2.95034,-2.02568 0,-0.44787 -5.88762,2.25777 -6.91667,3.17854 -1.01113,0.90474 1.26897,0.242 3.96633,-1.15286 z m 14.80798,-5.22432 c 1.04406,-2.0625 2.17568,-5.325 2.51471,-7.25 0.47813,-2.71476 0.19268,-2.35169 -1.27231,1.61832 -1.0388,2.81508 -2.40211,6.07758 -3.02957,7.25 -0.62746,1.17243 -0.90915,2.13168 -0.62598,2.13168 0.28318,0 1.36909,-1.6875 2.41315,-3.75 z m -8.35764,0.75 c 0.99549,-1.1 1.58498,-2 1.30998,-2 -0.275,0 -1.31449,0.9 -2.30998,2 -0.99549,1.1 -1.58498,2 -1.30998,2 0.275,0 1.31449,-0.9 2.30998,-2 z m -109.837125,-8.75 c -0.76366,-1.5125 -1.6779,-3.425 -2.03166,-4.25 -0.35375,-0.825 -0.37932,-0.15252 -0.0568,1.49441 0.53635,2.73891 2.08095,5.50559 3.07371,5.50559 0.22178,0 -0.22157,-1.2375 -0.98524,-2.75 z m -3.61793,-17.250003 c -0.67028,-9.404322 -0.7627,-9.769548 -0.88566,-3.5 -0.1237,6.307591 0.7115,14.993293 1.37322,14.280823 0.14345,-0.154452 -0.076,-5.005822 -0.48756,-10.780823 z m 124.042585,-12 0.56306,4.5 0.0986,-4.5 c 0.0542,-2.475 -0.5079,-6.075 -1.24921,-8 -1.21341,-3.150916 -1.33522,-1.904188 -1.22122,12.5 l 0.12662,16.000001 0.55954,-12.500001 c 0.38995,-8.711363 0.7302,-11.136091 1.12259,-8 z m 0.60546,16.269031 c -0.25354,-0.97297 -0.47766,-0.41903 -0.49804,1.23097 -0.0204,1.65 0.18706,2.44606 0.46099,1.76903 0.27392,-0.67703 0.29059,-2.02703 0.0371,-3 z M 25.769085,85.016166 c -0.23919,-1.243912 -0.44398,-0.461659 -0.45508,1.738341 -0.0111,2.2 0.18461,3.217751 0.4349,2.261659 0.25029,-0.956087 0.25937,-2.756087 0.0202,-4 z m 0.97585,-9.949159 c -0.31922,-0.797733 -0.55618,-0.560776 -0.60416,0.604167 -0.0434,1.054166 0.19292,1.644791 0.52522,1.3125 0.33229,-0.332292 0.36781,-1.194792 0.0789,-1.916667 z m 3.00988,-9.543468 c -0.25354,-0.972968 -0.47766,-0.419032 -0.49804,1.230968 -0.0204,1.65 0.18706,2.446064 0.46099,1.769032 0.27392,-0.677033 0.29059,-2.027033 0.0371,-3 z m 5.30701,-11.269032 c 0.5887,-1.1 0.84537,-2 0.57037,-2 -0.275,0 -0.98167,0.9 -1.57037,2 -0.5887,1.1 -0.84537,2 -0.57037,2 0.275,0 0.98167,-0.9 1.57037,-2 z M 146.06183,53.950674 c 0,-0.167108 -1.6875,-1.854608 -3.75,-3.75 l -3.75,-3.446167 3.44617,3.75 c 3.20761,3.490419 4.05383,4.209787 4.05383,3.446167 z M 49.061825,37.546299 c 0,-0.750886 -0.89783,0.04302 -5.04179,4.458208 l -4.45821,4.75 4.75,-4.458208 c 2.6125,-2.452014 4.75,-4.589514 4.75,-4.75 z m 0,6.417588 c 0.825,-0.308481 0.27332,-0.497035 -1.22594,-0.41901 -1.49927,0.07802 -2.95165,0.730024 -3.2275,1.448886 -0.36527,0.951891 -0.0322,1.06574 1.22594,0.419011 0.95013,-0.488407 2.4025,-1.140405 3.2275,-1.448887 z m 79.000005,-3.86141 C 112.19512,25.751905 85.237805,22.005513 64.344935,31.247423 c -3.55585,1.572919 -16.28311,9.777926 -16.28311,10.497386 0,0.644265 9.05963,-2.368057 12,-3.989992 13.75919,-7.589701 27.18282,-9.704789 41.731225,-6.575359 7.83526,1.685401 18.62675,6.979773 19.08584,9.363626 0.32482,1.686646 -1.46051,1.782107 -31.986525,1.710324 -17.7818,-0.04181 -33.68054,0.04606 -35.33054,0.195279 -1.65,0.149218 15,0.511837 37,0.80582 22.000005,0.293983 40.450005,0.620793 41.000005,0.726244 0.55,0.105452 -1.025,-1.639772 -3.5,-3.878274 z m -15.2225,-2.399724 C 99.108275,30.55409 81.182895,30.544393 65.924865,37.677373 l -5.36304,2.50717 28.5,-0.01158 28.500005,-0.01158 z m 18.2225,1.174199 c 0,-0.207656 -0.7875,-0.995156 -1.75,-1.75 -1.58606,-1.243871 -1.62143,-1.208501 -0.37756,0.377555 1.30637,1.665748 2.12756,2.195479 2.12756,1.372445 z M 98.790995,23.65034 c -0.3323,-0.332291 -1.1948,-0.367818 -1.91667,-0.07895 -0.79773,0.319226 -0.56078,0.556183 0.60417,0.604167 1.05416,0.04342 1.64479,-0.192928 1.3125,-0.52522 z"
       id="path130" />
  </g>
</svg>
