<?xml version="1.0" encoding="UTF-8" standalone="no"?>
<!-- Created with Inkscape (http://www.inkscape.org/) -->

<svg
   version="1.1"
   id="svg9"
   width="180"
   height="180"
   viewBox="0 0 180 180"
   sodipodi:docname="diamond.svg"
   inkscape:version="1.2.2 (732a01da63, 2022-12-09)"
   xmlns:inkscape="http://www.inkscape.org/namespaces/inkscape"
   xmlns:sodipodi="http://sodipodi.sourceforge.net/DTD/sodipodi-0.dtd"
   xmlns="http://www.w3.org/2000/svg"
   xmlns:svg="http://www.w3.org/2000/svg">
  <defs
     id="defs13" />
  <sodipodi:namedview
     id="namedview11"
     pagecolor="#ffffff"
     bordercolor="#000000"
     borderopacity="0.25"
     inkscape:showpageshadow="2"
     inkscape:pageopacity="0.0"
     inkscape:pagecheckerboard="0"
     inkscape:deskcolor="#d1d1d1"
     showgrid="false"
     inkscape:zoom="1.598847"
     inkscape:cx="-9.3817607"
     inkscape:cy="76.930438"
     inkscape:window-width="1920"
     inkscape:window-height="1017"
     inkscape:window-x="-8"
     inkscape:window-y="-8"
     inkscape:window-maximized="1"
     inkscape:current-layer="g15" />
  <g
     inkscape:groupmode="layer"
     inkscape:label="Image"
     id="g15">
    <path
       style="fill:#000000"
       d="M 58.696523,120.22666 C 40.657449,102.20133 25.478001,86.788831 24.964416,85.976665 24.450831,85.164499 24.023735,83.615557 24.015313,82.534571 24.005514,81.276915 35.966491,68.582996 57.229989,47.284571 86.238921,18.22799 90.8443,14 93.48553,14 c 2.64015,0 7.29216,4.264458 36.52001,33.477573 28.20446,28.190244 33.54581,33.979869 33.8196,36.657944 0.30447,2.978246 -1.7621,5.267613 -32.51692,36.022423 C 100.7482,150.71797 98.223964,153 94.980502,153 c -3.242805,0 -5.770835,-2.28343 -36.283979,-32.77334 z m 70.017867,-1.45605 c 21.55611,-21.518575 32.27162,-32.9009 32.2435,-34.25 -0.0244,-1.172532 -4.31709,-6.427603 -10.2276,-12.52061 -5.60202,-5.775 -8.76784,-8.7 -7.03514,-6.5 1.73269,2.2 5.88511,6.685913 9.2276,9.968697 4.78386,4.698413 6.07725,6.613044 6.07725,8.996302 0,2.638905 -3.95406,6.97594 -30.79834,33.781301 C 105.06337,141.35106 96.811112,149 95.022231,149 93.287899,149 88.401116,144.7898 77.031361,133.5 68.445987,124.975 61.140752,118 60.797505,118 c -0.343247,0 6.850918,7.425 15.987032,16.5 9.136114,9.075 17.293571,16.5 18.127682,16.5 0.83411,0 16.045091,-14.50323 33.802171,-32.22939 z m -1.44281,-2.5579 C 144.17221,99.279706 158,84.802365 158,84.040845 158,83.279325 152.33563,76.996104 145.41251,70.078132 134.69485,59.368435 133.38267,58.317005 136.57899,63 c 2.06468,3.025 6.45405,8.28778 9.75416,11.695067 4.85966,5.017501 6.00018,6.81974 6.00018,9.481419 0,2.983029 -2.56806,5.803179 -27.82374,30.554934 C 105.01815,133.83395 96.022817,142 94.471823,142 92.914329,142 83.930155,133.77124 64.17431,114.25 48.728389,98.9875 35.824413,85.51697 35.498807,84.315489 35.034689,82.602904 36.486602,80.334558 42.2196,73.815489 46.241643,69.24197 50.824329,63.7 52.403347,61.5 c 1.579019,-2.2 -2.651879,1.463402 -9.401994,8.140894 -10.453618,10.341149 -12.184049,12.490604 -11.673308,14.5 C 31.65784,85.438402 45.573494,100.1125 62.251718,116.75 81.608369,136.05939 93.293213,147 94.559461,147 c 1.269917,0 13.040499,-11.07799 32.712119,-30.78729 z m -3.79767,-4.13579 c 15.13935,-15.08269 27.51133,-27.90769 27.4933,-28.499997 -0.018,-0.592308 -1.98107,-2.741909 -4.36229,-4.776892 -4.29443,-3.670012 -4.33809,-3.682157 -5.39265,-1.5 C 140.62753,78.510014 130.08023,91.425 117.77383,106 c -12.3064,14.575 -22.986689,26.5 -23.733973,26.5 -0.747285,0 -7.182145,-7.2 -14.29969,-16 -7.117545,-8.8 -13.837367,-17.35 -14.932938,-19 -1.095571,-1.65 0.282826,-0.525 3.063104,2.5 2.780278,3.025 5.4742,5.40338 5.986494,5.28529 0.512294,-0.11809 4.691582,4.77874 9.287308,10.88186 4.595726,6.10311 8.920051,11.80055 9.609612,12.66096 0.763036,0.9521 1.578978,1.19404 2.084701,0.61814 0.457025,-0.52044 4.822418,-5.89625 9.700872,-11.94625 4.87846,-6.05 11.37856,-13.925 14.44468,-17.5 3.06611,-3.575 8.75772,-10.331967 12.648,-15.015483 7.07325,-8.515483 7.07325,-8.515483 -2.02937,-7.316496 -5.00645,0.659444 -10.73262,1.228911 -12.72482,1.265483 -3.47424,0.06378 -3.64983,0.240098 -4.29865,4.316496 -0.37205,2.3375 -1.28748,6.05 -2.03429,8.25 -0.74681,2.2 -2.52932,6.475 -3.96113,9.5 -2.0537,4.33887 -2.50728,4.8455 -2.14847,2.39978 0.25015,-1.70512 1.55175,-5.530117 2.89244,-8.499997 C 108.6684,91.929902 110.0013,88.6 110.28972,87.5 c 0.28841,-1.1 0.79979,-3.2375 1.13639,-4.75 C 112.0381,80 112.0381,80 95.769052,79.787698 79.5,79.575397 79.5,79.575397 96,79 112.5,78.424603 112.5,78.424603 93.75,78.212302 78.88448,78.043983 75,77.723381 75,76.664788 75,75.930422 79.3875,70.788763 84.75,65.23888 94.5,55.148184 94.5,55.148184 107.34389,54.467983 c 8.02875,-0.425195 12.491,-1.033096 11.90258,-1.621513 C 118.72875,52.328748 113.624,51.66184 107.90258,51.364452 102.18116,51.067064 90.975,51.279476 83,51.836479 c -7.975,0.557003 -16.075,1.500617 -18,2.09692 -2.629347,0.814487 -4.557222,2.639839 -7.75,7.33786 -2.3375,3.439519 -4.25,6.61212 -4.25,7.050224 0,0.438103 0.5625,0.477414 1.25,0.08736 0.6875,-0.390056 -0.246121,0.876998 -2.074714,2.815676 -3.324714,3.524869 -3.324714,3.524869 0.26701,4.198681 1.975448,0.370596 4.053782,0.388244 4.618519,0.03922 0.564737,-0.349026 1.569583,-0.207287 2.23299,0.314976 C 59.957212,76.29966 62.3,77.00071 64.5,77.335286 c 2.2,0.334576 4.960221,0.357197 6.133825,0.05027 1.540021,-0.402756 2.019745,-1.160183 1.723878,-2.7218 -0.388781,-2.052028 -0.347332,-2.043667 0.802754,0.161922 0.961232,1.843412 0.949263,2.488485 -0.05772,3.110836 -0.976933,0.603777 -0.904526,0.925575 0.31342,1.392945 C 74.287269,79.66373 75,80.652911 75,81.527632 c 0,0.908223 0.474889,1.296905 1.107134,0.906156 C 76.861345,81.96766 76.986579,82.466924 76.5,84 c -0.448398,1.412777 -0.341166,2.019869 0.288081,1.630973 0.551292,-0.340717 1.260379,0.05293 1.575749,0.874771 0.31537,0.821841 0.286051,2.243076 -0.06515,3.158301 -0.42645,1.111312 -0.253749,1.426223 0.519931,0.948062 0.756892,-0.467785 0.95204,-0.177999 0.56295,0.835955 C 79.053172,92.30382 79.309078,93 79.952028,93 c 0.641303,0 0.934318,0.374879 0.651144,0.833065 -0.283175,0.458186 1.207292,5.295686 3.312147,10.749995 2.104855,5.45432 4.128758,11.04194 4.497561,12.41694 0.67055,2.5 0.67055,2.5 -0.822111,0 -0.820964,-1.375 -4.52171,-9.925 -8.223881,-19 C 75.664717,88.925 72.542559,81.362416 72.428759,81.194258 72.314959,81.0261 67.559434,80.077586 61.860925,79.086449 56.162416,78.095312 51.321648,77.436248 51.103661,77.621863 c -0.217986,0.185614 0.848958,2.259129 2.370987,4.607809 C 56.241974,86.5 56.241974,86.5 51.120987,81.537592 48.304444,78.808267 46,76.048709 46,75.405239 c 0,-0.64347 -1.8,0.630055 -4,2.830055 -2.2,2.2 -4,4.506598 -4,5.125773 0,0.619174 12.4875,13.624725 27.75,28.901223 15.2625,15.2765 28.300761,27.65446 28.973912,27.50658 0.673152,-0.14788 13.610648,-12.60925 28.749998,-27.69195 z M 64.936179,93.427782 c -4.639898,-6.343256 -8.621859,-12.071975 -8.8488,-12.730487 -0.29833,-0.865656 0.01586,-0.84374 1.134294,0.07912 0.850804,0.70203 5.028573,6.234941 9.283931,12.295357 4.255358,6.060417 7.541206,11.214748 7.301884,11.454078 -0.239321,0.23932 -4.23141,-4.754815 -8.871309,-11.098071 z M 68.5,56 c 0.339919,-0.55 0.843034,-1 1.118034,-1 0.275,0 0.221885,0.45 -0.118034,1 -0.339919,0.55 -0.843034,1 -1.118034,1 -0.275,0 -0.221885,-0.45 0.118034,-1 z M 59,116.73707 c 0,-0.14462 -6.6375,-6.78212 -14.75,-14.75 C 29.5,87.5 29.5,87.5 43.987065,102.25 51.954951,110.3625 58.592451,117 58.737065,117 58.881679,117 59,116.88168 59,116.73707 Z M 78,87.5 C 78,87.225 77.775,87 77.5,87 77.225,87 77,87.225 77,87.5 77,87.775 77.225,88 77.5,88 77.775,88 78,87.775 78,87.5 Z M 29.197979,83.895558 c -0.414606,-2.824889 0.523988,-4.108087 10.42315,-14.25 C 50.499914,58.5 50.499914,58.5 38.749957,69.983688 32.287481,76.299716 27,82.172216 27,83.033688 27,83.89516 27.54,85.14 28.2,85.8 c 0.66,0.66 1.257063,1.2 1.326807,1.2 0.06974,0 -0.07823,-1.396999 -0.328828,-3.104442 z M 133.75,75.450056 c 2.3375,-0.36307 4.21113,-1.175361 4.16363,-1.805091 -0.0475,-0.629731 -4.28461,-4.85866 -9.41578,-9.39762 -9.32941,-8.252655 -9.32941,-8.252655 -10.41823,-5.5 C 116.99081,61.5 116.99081,61.5 117.35673,58.75 117.72266,56 117.72266,56 106.42209,56 95.121533,56 95.121533,56 86.652372,65.75 78.183212,75.5 78.183212,75.5 84.341606,76.109286 87.728723,76.444394 99.275,76.581685 110,76.414378 120.725,76.24707 131.4125,75.813125 133.75,75.450056 Z M 100.89828,64.239569 C 99.547522,62.732806 97.575165,60.375 96.515261,59 c -1.059904,-1.375 0.281355,-0.378289 2.980575,2.214912 2.699224,2.593202 4.671574,4.951008 4.383014,5.239569 -0.28856,0.288561 -1.62982,-0.708149 -2.98057,-2.214912 z M 142,73.559017 c 0,-0.242541 -0.51953,-0.762069 -1.15451,-1.154509 -0.7153,-0.442079 -0.88306,-0.274316 -0.44098,0.440984 C 140.79695,73.480471 141.31648,74 141.55902,74 141.80156,74 142,73.801558 142,73.559017 Z M 49.127555,70.25 C 50.371426,68.663944 50.336056,68.628574 48.75,69.872445 47.7875,70.627289 47,71.414789 47,71.622445 47,71.8301 47.1699,72 47.377555,72 c 0.207656,0 0.995156,-0.7875 1.75,-1.75 z M 139,69.5 c 0,-0.275 -0.225,-0.5 -0.5,-0.5 -0.275,0 -0.5,0.225 -0.5,0.5 0,0.275 0.225,0.5 0.5,0.5 0.275,0 0.5,-0.225 0.5,-0.5 z m -87,-3 C 52,66.225 51.775,66 51.5,66 51.225,66 51,66.225 51,66.5 c 0,0.275 0.225,0.5 0.5,0.5 0.275,0 0.5,-0.225 0.5,-0.5 z m 78.88245,-5.75 c -2.30564,-3.4375 -4.23491,-6.322763 -4.28726,-6.411695 -0.0524,-0.08893 -1.32225,0.07403 -2.822,0.362144 -2.7018,0.519034 -2.6697,0.577555 3.5,6.380481 3.42475,3.221154 6.58108,5.870689 7.01407,5.887856 0.43299,0.01717 -1.09917,-2.781286 -3.40481,-6.218786 z M 137,66.5 c 0,-0.275 -0.225,-0.5 -0.5,-0.5 -0.275,0 -0.5,0.225 -0.5,0.5 0,0.275 0.225,0.5 0.5,0.5 0.275,0 0.5,-0.225 0.5,-0.5 z m -83,-3 C 54,63.225 53.775,63 53.5,63 53.225,63 53,63.225 53,63.5 c 0,0.275 0.225,0.5 0.5,0.5 0.275,0 0.5,-0.225 0.5,-0.5 z m 81,0 c 0,-0.275 -0.225,-0.5 -0.5,-0.5 -0.275,0 -0.5,0.225 -0.5,0.5 0,0.275 0.225,0.5 0.5,0.5 0.275,0 0.5,-0.225 0.5,-0.5 z m -1,-1.940983 c 0,-0.242541 -0.51953,-0.762069 -1.15451,-1.154509 -0.7153,-0.442079 -0.88306,-0.274316 -0.44098,0.440984 C 132.79695,61.480471 133.31648,62 133.55902,62 133.80156,62 134,61.801558 134,61.559017 Z M 56,60.5 C 56,60.225 55.775,60 55.5,60 55.225,60 55,60.225 55,60.5 c 0,0.275 0.225,0.5 0.5,0.5 0.275,0 0.5,-0.225 0.5,-0.5 z m 84,0 c 0,-0.275 -0.225,-0.5 -0.5,-0.5 -0.275,0 -0.5,0.225 -0.5,0.5 0,0.275 0.225,0.5 0.5,0.5 0.275,0 0.5,-0.225 0.5,-0.5 z m -8,-1.940983 c 0,-0.242541 -0.51953,-0.762069 -1.15451,-1.154509 -0.7153,-0.442079 -0.88306,-0.274316 -0.44098,0.440984 C 130.79695,58.480471 131.31648,59 131.55902,59 131.80156,59 132,58.801558 132,58.559017 Z M 52,57.5 C 52,57.225 51.775,57 51.5,57 51.225,57 51,57.225 51,57.5 c 0,0.275 0.225,0.5 0.5,0.5 0.275,0 0.5,-0.225 0.5,-0.5 z m 6,0 C 58,57.225 57.775,57 57.5,57 57.225,57 57,57.225 57,57.5 c 0,0.275 0.225,0.5 0.5,0.5 0.275,0 0.5,-0.225 0.5,-0.5 z m 78,-1 c 0,-0.275 -0.225,-0.5 -0.5,-0.5 -0.275,0 -0.5,0.225 -0.5,0.5 0,0.275 0.225,0.5 0.5,0.5 0.275,0 0.5,-0.225 0.5,-0.5 z M 54.5,55 c 0.339919,-0.55 0.393034,-1 0.118034,-1 -0.275,0 -0.778115,0.45 -1.118034,1 -0.339919,0.55 -0.393034,1 -0.118034,1 0.275,0 0.778115,-0.45 1.118034,-1 z m 4.666667,-0.484687 c 0.366666,-0.0084 0.9704,-0.319047 1.341631,-0.690278 0.371231,-0.37123 -0.04583,-0.569175 -0.926789,-0.439877 -0.880965,0.129298 -2.159699,0.836549 -2.841632,1.571669 -1.00489,1.083267 -0.95559,1.169536 0.260123,0.45519 0.825,-0.484765 1.8,-0.888282 2.166667,-0.896704 z m 71.925063,0.06802 C 130.60965,53.9875 130.01143,52.6 129.76237,51.5 c -0.41289,-1.823484 -0.52008,-1.845548 -1.2146,-0.25 -0.41896,0.9625 -0.53151,2.35 -0.2501,3.083333 0.28141,0.733334 1.22241,1.333334 2.09111,1.333334 1.0067,0 1.26162,-0.39285 0.70295,-1.083334 z M 129,54.5 c 0,-0.275 0.225,-0.5 0.5,-0.5 0.275,0 0.5,0.225 0.5,0.5 0,0.275 -0.225,0.5 -0.5,0.5 -0.275,0 -0.5,-0.225 -0.5,-0.5 z M 63.666667,52.333333 C 63.3,51.966667 62.7,51.966667 62.333333,52.333333 61.966667,52.7 62.266667,53 63,53 c 0.733333,0 1.033333,-0.3 0.666667,-0.666667 z M 127,52.5 c 0,-0.275 -0.225,-0.5 -0.5,-0.5 -0.275,0 -0.5,0.225 -0.5,0.5 0,0.275 0.225,0.5 0.5,0.5 0.275,0 0.5,-0.225 0.5,-0.5 z m -66,-1 C 61,51.225 60.775,51 60.5,51 60.225,51 60,51.225 60,51.5 c 0,0.275 0.225,0.5 0.5,0.5 0.275,0 0.5,-0.225 0.5,-0.5 z m 6,0 C 67,51.225 66.775,51 66.5,51 66.225,51 66,51.225 66,51.5 c 0,0.275 0.225,0.5 0.5,0.5 0.275,0 0.5,-0.225 0.5,-0.5 z m 58,0 c 0,-0.275 -0.225,-0.5 -0.5,-0.5 -0.275,0 -0.5,0.225 -0.5,0.5 0,0.275 0.225,0.5 0.5,0.5 0.275,0 0.5,-0.225 0.5,-0.5 z M 78.085935,37.354381 C 88.346399,27.282687 91.207625,25 93.571494,25 c 2.364,0 5.118958,2.198251 14.914066,11.900314 6.60794,6.545172 13.13944,12.192391 14.51444,12.549374 1.69182,0.439237 -2.18746,-3.909583 -12,-13.452466 -7.975,-7.75584 -15.331564,-14.567473 -16.347919,-15.136963 -1.586909,-0.889185 -4.058715,1.170714 -17.5,14.583761 C 68.543436,44.034579 62.4,50.758465 63.5,50.38599 64.6,50.013514 71.163671,44.14929 78.085935,37.354381 Z M 121,50.5 c 0,-0.275 -0.225,-0.5 -0.5,-0.5 -0.275,0 -0.5,0.225 -0.5,0.5 0,0.275 0.225,0.5 0.5,0.5 0.275,0 0.5,-0.225 0.5,-0.5 z M 60.5,49 c 0.339919,-0.55 0.393034,-1 0.118034,-1 -0.275,0 -0.778115,0.45 -1.118034,1 -0.339919,0.55 -0.393034,1 -0.118034,1 0.275,0 0.778115,-0.45 1.118034,-1 z m 39.379637,0 C 116.46589,49 116.46589,49 105.48295,37.977572 99.442326,31.915237 94.05,27.077737 93.5,27.227572 c -0.55,0.149835 -5.95,5.394317 -12,11.654403 -11,11.381976 -11,11.381976 -4.603309,10.75 C 80.414871,49.284389 90.757197,49 99.879637,49 Z M 118,49.5 c 0,-0.275 -0.225,-0.5 -0.5,-0.5 -0.275,0 -0.5,0.225 -0.5,0.5 0,0.275 0.225,0.5 0.5,0.5 0.275,0 0.5,-0.225 0.5,-0.5 z m 10,-1 c 0,-0.275 -0.225,-0.5 -0.5,-0.5 -0.275,0 -0.5,0.225 -0.5,0.5 0,0.275 0.225,0.5 0.5,0.5 0.275,0 0.5,-0.225 0.5,-0.5 z m -2,-2 c 0,-0.275 -0.225,-0.5 -0.5,-0.5 -0.275,0 -0.5,0.225 -0.5,0.5 0,0.275 0.225,0.5 0.5,0.5 0.275,0 0.5,-0.225 0.5,-0.5 z M 67.562909,41.75 C 70.5,38.5 70.5,38.5 67.25,41.437091 c -1.7875,1.6154 -3.25,3.0779 -3.25,3.25 C 64,44.859191 64.140809,45 64.312909,45 c 0.1721,0 1.6346,-1.4625 3.25,-3.25 z M 74,35.5 C 75.291745,34.125 76.123628,33 75.848628,33 75.573628,33 74.291745,34.125 73,35.5 71.708255,36.875 70.876372,38 71.151372,38 71.426372,38 72.708255,36.875 74,35.5 Z M 79.5,30 c 0.339919,-0.55 0.393034,-1 0.118034,-1 -0.275,0 -0.778115,0.45 -1.118034,1 -0.339919,0.55 -0.393034,1 -0.118034,1 0.275,0 0.778115,-0.45 1.118034,-1 z M 109,29.5 c 0,-0.275 -0.225,-0.5 -0.5,-0.5 -0.275,0 -0.5,0.225 -0.5,0.5 0,0.275 0.225,0.5 0.5,0.5 0.275,0 0.5,-0.225 0.5,-0.5 z m -2,-1.803833 c 0,-0.167108 -1.6875,-1.854608 -3.75,-3.75 C 99.5,20.5 99.5,20.5 102.94617,24.25 c 1.89539,2.0625 3.58289,3.75 3.75,3.75 C 106.86328,28 107,27.863275 107,27.696167 Z M 84,25.5 C 84,25.225 83.775,25 83.5,25 83.225,25 83,25.225 83,25.5 c 0,0.275 0.225,0.5 0.5,0.5 0.275,0 0.5,-0.225 0.5,-0.5 z m 3,-3 C 87,22.225 86.775,22 86.5,22 86.225,22 86,22.225 86,22.5 c 0,0.275 0.225,0.5 0.5,0.5 0.275,0 0.5,-0.225 0.5,-0.5 z m 7.695942,-4.217792 c 2.542253,0.485982 2.614813,0.41819 0.896901,-0.837978 -1.241962,-0.908145 -2.437559,-1.062519 -3.563228,-0.46008 -0.931757,0.498662 -2.324339,1.718726 -3.094626,2.711254 -1.265134,1.630146 -1.188068,1.623506 0.797203,-0.06868 1.47331,-1.255805 3.109465,-1.698985 4.96375,-1.344516 z"
       id="path123" />
  </g>
</svg>
