<?xml version="1.0" encoding="UTF-8" standalone="no"?>
<!-- Created with Inkscape (http://www.inkscape.org/) -->

<svg
   version="1.1"
   id="svg59"
   width="180"
   height="180"
   viewBox="0 0 180 180"
   sodipodi:docname="egg.svg"
   inkscape:version="1.2.2 (732a01da63, 2022-12-09)"
   xmlns:inkscape="http://www.inkscape.org/namespaces/inkscape"
   xmlns:sodipodi="http://sodipodi.sourceforge.net/DTD/sodipodi-0.dtd"
   xmlns="http://www.w3.org/2000/svg"
   xmlns:svg="http://www.w3.org/2000/svg">
  <defs
     id="defs63" />
  <sodipodi:namedview
     id="namedview61"
     pagecolor="#ffffff"
     bordercolor="#000000"
     borderopacity="0.25"
     inkscape:showpageshadow="2"
     inkscape:pageopacity="0.0"
     inkscape:pagecheckerboard="0"
     inkscape:deskcolor="#d1d1d1"
     showgrid="false"
     inkscape:zoom="3.197694"
     inkscape:cx="123.21379"
     inkscape:cy="109.7666"
     inkscape:window-width="1920"
     inkscape:window-height="1017"
     inkscape:window-x="-8"
     inkscape:window-y="-8"
     inkscape:window-maximized="1"
     inkscape:current-layer="g65" />
  <g
     inkscape:groupmode="layer"
     inkscape:label="Image"
     id="g65">
    <path
       style="fill:#000000"
       d="m 78.760099,149.44216 c -3.156945,-0.76516 -7.526518,-2.30267 -9.710162,-3.41668 -2.183643,-1.11402 -5.900688,-2.05141 -8.260099,-2.08311 -6.161897,-0.0828 -12.06777,-1.27617 -12.4832,-2.52246 -0.196691,-0.59007 0.69106,-2.2044 1.972779,-3.5874 l 2.330399,-2.51454 -3.666902,-4.13208 C 44.193054,125.83347 38.46388,114.87854 36.528393,107.4477 34.563615,99.904405 34.570794,86.068031 36.543416,78.494623 41.831521,58.192216 58.364139,41.635922 78.460099,36.51791 c 7.676447,-1.955027 21.488062,-1.942899 29.045281,0.02551 20.42268,5.319432 37.18743,22.32493 41.95718,42.559697 3.93627,16.698875 -0.23594,37.155093 -9.92714,48.672423 -2.46086,2.92456 -2.49204,3.10345 -0.64329,3.69022 3.16507,1.00456 7.10787,4.54982 7.10787,6.39121 0,0.9415 -1.40376,2.54104 -3.11947,3.55453 -2.6075,1.54029 -4.32321,1.73363 -10.45414,1.17806 -6.85733,-0.62139 -7.72747,-0.46637 -13.37026,2.38211 -11.52462,5.81761 -27.449058,7.58428 -40.296031,4.47049 z M 100,148.05104 c 2.86315,-0.50945 3.59064,-0.87017 2,-0.99168 -1.78084,-0.13604 -1.06168,-0.581 2.5,-1.54678 7.50076,-2.03391 14.49842,-5.27759 14.51238,-6.72704 0.0156,-1.62335 5.31727,-5.08459 10.30462,-6.72749 2.09935,-0.69156 3.5739,-1.50048 3.27677,-1.79761 -0.29712,-0.29713 0.81949,-2.25702 2.48138,-4.35532 4.27947,-5.40328 8.67227,-14.47392 10.11339,-20.88302 1.02013,-4.53687 1.33637,-5.052232 1.8409,-3 0.44516,1.81074 0.80242,0.82517 1.3269,-3.660455 C 150.18931,82.684902 142.9315,63.589184 130.92547,52.5 c -2.3819,-2.2 -3.73444,-3.2125 -3.00565,-2.25 0.81187,1.072228 0.91321,1.75 0.26164,1.75 -1.12968,0 -2.64062,-1.914377 -2.66615,-3.378028 -0.008,-0.482915 -1.14031,-1.55066 -2.51531,-2.372765 l -2.5,-1.494738 2.5,2.10053 c 3.21445,2.700821 2.09304,2.722457 -2.44135,0.0471 -1.95562,-1.153844 -3.26182,-2.573373 -2.90265,-3.154509 0.3723,-0.602395 0.1785,-0.763343 -0.45082,-0.374403 -0.6071,0.375213 -3.79415,-0.224097 -7.08232,-1.331801 -31.732631,-10.689951 -65.474178,10.731876 -70.757103,44.922256 -0.539024,3.488491 -0.857426,4.034656 -1.457443,2.5 -0.515543,-1.318596 -0.790832,-0.219655 -0.838029,3.345372 -0.03866,2.919959 0.28567,5.089025 0.720725,4.820146 0.435056,-0.268879 0.610823,1.054563 0.390594,2.94099 -0.254265,2.17796 0.02605,3.42985 0.768007,3.42985 0.642633,0 0.903098,0.42931 0.578812,0.95401 -0.934981,1.51283 0.56001,6.10937 1.748189,5.37503 0.677709,-0.41884 0.818051,-0.0181 0.387027,1.10512 -0.953967,2.486 4.736901,12.74876 10.667913,19.23823 4.421188,4.83749 5.260159,5.32761 9.119567,5.32761 7.536548,0 13.184446,3.2531 9.548881,5.5 -2.017806,1.24707 -0.884837,2.37752 4.013386,4.00445 9.409688,3.12539 17.245525,3.92401 24.986614,2.54659 z m -23.661481,-4.30999 c -0.901194,-1.46266 0.81264,-4.74106 2.478869,-4.74184 0.925436,-4.3e-4 -1.048778,-1.29297 -4.387143,-2.87229 -7.42296,-3.51169 -12.305016,-7.6859 -16.262422,-13.90455 C 51.130358,111.16373 50.325014,98.089026 55.813493,84 c 2.441614,-6.267668 3.328294,-7.549491 5.396351,-7.801201 1.85765,-0.226101 3.162521,0.600614 5.233402,3.315679 3.507667,4.598789 2.558282,5.769172 -1.31574,1.622018 l -2.931331,-3.138001 -1.098088,3.149976 C 59.144107,86.753664 59.58743,88 63.535184,88 c 3.277442,0 3.453533,-0.152565 2.415267,-2.092583 -1.070631,-2.000493 -0.973162,-1.989491 2.214816,0.25 4.60536,3.235173 4.940255,3.825644 4.589842,8.092583 L 72.447148,98 h 7.389273 7.389272 l -0.385519,6.82273 -0.385518,6.82273 7.613144,-6.07273 c 4.18723,-3.34 9.68684,-7.795514 12.22135,-9.90114 5.34958,-4.444325 6.95996,-4.134415 9.59909,1.847306 l 1.68881,3.827794 4.84111,-6.78421 c 3.88832,-5.448987 4.56958,-6.977766 3.46148,-7.767676 -1.06928,-0.762227 -0.98596,-0.856828 0.37036,-0.420521 0.9625,0.309621 1.75,0.127071 1.75,-0.405668 C 128,85.435877 128.88743,85 129.97207,85 c 3.02155,0 5.38486,9.273278 4.82556,18.93482 -0.53257,9.19985 -3.67867,16.73544 -9.91156,23.74033 l -4.29311,4.82485 5.65225,-5.4152 c 6.22372,-5.96272 11.19842,-14.37288 13.95063,-23.5848 1.65999,-5.556139 1.74721,-5.667105 1.17895,-1.5 -2.62204,19.22769 -19.76621,36.56213 -38.87479,39.30622 l -4,0.57442 4,-1.33312 c 3.82698,-1.27545 3.65396,-1.30937 -4,-0.78424 -6.047475,0.41491 -8.303016,0.9762 -9.241536,2.29976 -0.867154,1.22291 -2.931826,1.85432 -6.846933,2.09392 -3.082969,0.18867 -5.815824,0.002 -6.073012,-0.41591 z m 6.930513,-2.39699 c -0.677033,-0.27392 -2.027033,-0.29059 -3,-0.0371 C 79.296064,141.5605 79.85,141.78462 81.5,141.805 c 1.65,0.0204 2.446064,-0.18706 1.769032,-0.46099 z m 22.494958,-4.76911 c 10.45189,-2.78236 18.82781,-9.63722 23.91856,-19.57495 2.51829,-4.916 2.81745,-6.52996 2.81745,-15.2 0,-12.066366 -0.99828,-13.419004 -5.39013,-7.303462 -1.79006,2.49261 -3.66692,4.277221 -4.1708,3.965802 -0.50389,-0.311419 -0.66609,0.08547 -0.36044,0.881967 C 123.13651,100.79813 119.5952,104 117.42937,104 c -0.61909,0 -1.92536,-1.77349 -2.90281,-3.9411 -0.97745,-2.167603 -2.41917,-4.187448 -3.20381,-4.488544 -0.78464,-0.301096 -1.18321,-0.15359 -0.8857,0.327792 0.62855,1.017007 -1.69438,3.169819 -3.74505,3.470794 C 105.05349,99.609423 96.167881,106.777 90.751111,112.22766 88.689222,114.30245 86.560296,116 86.020163,116 c -1.592748,0 -2.323881,-4.75874 -1.633553,-10.63235 l 0.6433,-5.473485 -7.535101,0.199435 c -4.144306,0.10969 -7.824134,-0.0896 -8.177396,-0.442853 -0.353262,-0.353262 -0.105283,-1.820905 0.551064,-3.26143 C 72.066745,91.564643 70.613146,90 63.932612,90 58.978154,90 57.987456,89.711464 57.923922,88.25 57.882079,87.2875 57.241314,88.075 56.5,90 c -2.136355,5.547558 -1.854419,17.9777 0.553752,24.41412 3.615748,9.66395 13.64686,18.82693 24.232287,22.13513 5.60454,1.75155 17.946166,1.76451 24.477951,0.0257 z m 8.28567,-0.10063 C 115.67235,135.6352 117,134.72364 117,134.44864 c 0,-0.44787 -5.88762,2.25777 -6.91667,3.17854 -1.01113,0.90474 1.26897,0.242 3.96633,-1.15286 z M 52.404988,129.75 50.5,127.5 l 2.25,1.90499 C 54.864445,131.19521 55.455241,132 54.654988,132 c -0.189757,0 -1.202257,-1.0125 -2.25,-2.25 z m 3.519326,-4.5 L 53.5,122.5 l 2.75,2.42431 C 58.820289,127.1902 59.458588,128 58.674314,128 c -0.179127,0 -1.416627,-1.2375 -2.75,-2.75 z m -7.051869,0 c -1.243871,-1.58606 -1.208501,-1.62143 0.377555,-0.37756 0.9625,0.75485 1.75,1.54235 1.75,1.75 0,0.82304 -0.821186,0.29331 -2.127555,-1.37244 z m -1.248906,-12.78866 c -0.964979,-2.51469 -0.680311,-3.16355 0.498534,-1.13634 0.58369,1.00375 0.850598,2.03566 0.593129,2.29313 -0.257468,0.25747 -0.748717,-0.26309 -1.091663,-1.15679 z M 44.121942,87.931501 c -0.250237,-9.375012 4.580594,-20.491928 12.656539,-29.125765 4.250618,-4.544255 12.776063,-10.728782 15.439673,-11.200244 0.705015,-0.124789 2.819075,-1.185118 4.697911,-2.356288 11.878768,-7.404613 31.873115,-4.664757 39.828845,5.457808 9.79455,12.462214 7.99147,16.993066 -5.21614,13.107321 L 103.98765,61.5957 99.705976,65.79785 C 97.351052,68.109033 94.844843,70 94.136622,70 93.4284,70 89.688647,68.154286 85.82606,65.898413 c -5.124399,-2.99281 -7.32143,-3.803043 -8.127258,-2.997215 -0.607403,0.607403 -1.29054,4.028117 -1.518082,7.601586 -0.532967,8.37009 -2.359147,8.560872 -5.992392,0.626028 -2.310823,-5.046733 -2.927334,-5.718713 -4.390364,-4.785369 -0.93612,0.5972 -1.994468,0.793386 -2.351884,0.43597 -1.273103,-1.273103 2.681787,-10.568799 6.289977,-14.784158 l 3.668795,-4.286161 -5.996982,4.560741 c -3.298339,2.508408 -7.925335,6.652758 -10.282211,9.209667 -5.399094,5.857325 -10.882068,17.293505 -12.012889,25.056025 -0.864151,5.931972 -0.86955,5.939579 -0.990828,1.395974 z M 74,67.090206 C 74,63.731278 76.191749,59 77.747762,59 c 0.853661,0 4.67417,1.8 8.490019,4 3.815848,2.2 7.260102,4 7.653896,4 0.393794,0 2.24254,-1.575 4.108323,-3.5 3.95614,-4.081701 7.25939,-4.466103 15.64998,-1.821202 2.92916,0.923339 5.62663,1.377927 5.99436,1.010195 1.30542,-1.305424 -3.08455,-8.906506 -7.27345,-12.593727 C 107.11186,45.466085 102.4118,44 92.830325,44 c -11.51922,0 -19.040178,4.465871 -24.168722,14.351148 -1.342324,2.587332 -1.306318,3.004137 0.407562,4.718017 1.03398,1.03398 2.164412,3.013299 2.512072,4.398488 C 72.273367,70.225317 74,69.955877 74,67.090206 Z m 8.222506,19.35309 C 80.598894,85.306074 80,83.877894 80,81.143296 80,76.457578 81.423579,75 86,75 c 4.576421,0 6,1.457578 6,6.143296 C 92,85.007066 89.381015,88 86,88 85.144757,88 83.444885,87.299483 82.222506,86.443296 Z M 88.8,83.8 c 1.617917,-1.617917 1.514637,-4.293985 -0.221326,-5.734706 -1.156648,-0.959933 -1.32992,-0.830061 -0.930477,0.697412 0.606095,2.317709 -2.03973,4.684762 -4.276906,3.826277 -1.384411,-0.531248 -1.44806,-0.38641 -0.39029,0.888125 C 84.496979,85.303749 87.149087,85.450913 88.8,83.8 Z M 86,80 c 0,-0.55 -0.45,-1 -1,-1 -0.55,0 -1,0.45 -1,1 0,0.55 0.45,1 1,1 0.55,0 1,-0.45 1,-1 z m 17.5,6.805055 C 100.79896,85.273393 100.03344,83.97726 100.01531,80.904988 99.995487,77.545111 102.86534,75 106.67375,75 c 6.15019,0 8.55043,7.105299 3.69139,10.92742 -2.9869,2.349497 -4.03359,2.483305 -6.86514,0.877635 z m 6.31955,-3.447088 c 1.11613,-1.994422 0.44063,-5.044147 -1.26197,-5.697497 -0.8493,-0.32591 -1.0989,0.288109 -0.78488,1.930825 0.4341,2.270839 -0.78709,3.038011 -4.0227,2.527126 -0.92952,-0.146767 -0.98447,1.313771 -0.0833,2.214912 1.2809,1.280905 5.24157,0.653052 6.15288,-0.975366 z M 107,80 c 0,-0.55 -0.45,-1 -1,-1 -0.55,0 -1,0.45 -1,1 0,0.55 0.45,1 1,1 0.55,0 1,-0.45 1,-1 z m 22.40499,-19.145051 c -1.04775,-1.179778 -4.0829,-3.879778 -6.74479,-6 C 119.99831,52.734727 118.29884,51 118.88359,51 c 1.10895,0 14.06394,11.904155 13.0214,11.965174 -0.32726,0.01915 -1.45226,-0.930447 -2.5,-2.110225 z m 3.65971,-4.10544 C 130.62529,53.862279 129.88179,52.625 131.41247,54 c 2.57865,2.316374 7.13032,8.000627 6.40562,7.999509 -0.17495,-2.7e-4 -2.31397,-2.36277 -4.75339,-5.25 z m -25.33553,89.646321 c -0.3323,-0.33229 -1.1948,-0.36781 -1.91667,-0.0789 -0.79773,0.31922 -0.56078,0.55618 0.60417,0.60416 1.05416,0.0434 1.64479,-0.19293 1.3125,-0.52522 z M 57.25,141.33772 c -0.6875,-0.27741 -1.8125,-0.27741 -2.5,0 -0.6875,0.27741 -0.125,0.50439 1.25,0.50439 1.375,0 1.9375,-0.22698 1.25,-0.50439 z m 9.083333,-1.40111 2.166667,-0.0634 -2.109597,-0.85245 c -1.93527,-0.78201 -8.29253,-1.33943 -12.69942,-1.11352 -3.090775,0.15845 -0.754425,2.08874 2.618034,2.16303 1.755041,0.0386 4.090983,0.42828 5.190983,0.86584 1.1,0.43756 2.15,0.40593 2.333333,-0.0703 0.183334,-0.47622 1.308334,-0.89437 2.5,-0.92924 z m 68.935697,0.40745 c -0.67703,-0.27392 -2.02703,-0.29059 -3,-0.0371 -0.97297,0.25354 -0.41903,0.47766 1.23097,0.49804 1.65,0.0204 2.44606,-0.18706 1.76903,-0.46099 z m -0.78744,-1.86542 c 5.69733,-0.93891 7.92486,-2.28397 6.54196,-3.95027 -2.20142,-2.65254 -5.78784,-2.61034 -11.72788,0.13799 -5.06153,2.34188 -5.479,2.73863 -3.29567,3.1322 2.34769,0.42319 2.37815,0.50383 0.5,1.3235 -2.10956,0.92067 -0.93477,0.82596 7.98159,-0.64342 z M 38.683114,81.8125 c -0.319226,-0.797733 -0.556183,-0.560776 -0.604167,0.604167 -0.04342,1.054166 0.192928,1.644791 0.52522,1.3125 0.332291,-0.332292 0.367818,-1.194792 0.07895,-1.916667 z M 50.127555,58.25 C 51.371426,56.663944 51.336056,56.628574 49.75,57.872445 48.084252,59.178814 47.554521,60 48.377555,60 c 0.207656,0 0.995156,-0.7875 1.75,-1.75 z m 9,-9 C 60.371426,47.663944 60.336056,47.628574 58.75,48.872445 57.084252,50.178814 56.554521,51 57.377555,51 c 0.207656,0 0.995156,-0.7875 1.75,-1.75 z M 113,41 c -0.825,-0.533156 -2.175,-0.944637 -3,-0.914402 -0.98906,0.03625 -0.81874,0.34772 0.5,0.914402 2.74909,1.181322 4.32797,1.181322 2.5,0 z M 83.729167,38.395833 c -0.332292,-0.332291 -1.194792,-0.367818 -1.916667,-0.07895 -0.797733,0.319226 -0.560776,0.556183 0.604167,0.604167 1.054166,0.04342 1.644791,-0.192928 1.3125,-0.52522 z M 104.25,38.337719 c -0.6875,-0.277412 -1.8125,-0.277412 -2.5,0 -0.6875,0.277413 -0.125,0.504386 1.25,0.504386 1.375,0 1.9375,-0.226973 1.25,-0.504386 z m -8.5,-1.053973 c -1.5125,-0.229125 -3.9875,-0.229125 -5.5,0 -1.5125,0.229124 -0.275,0.41659 2.75,0.41659 3.025,0 4.2625,-0.187466 2.75,-0.41659 z"
       id="path123" />
  </g>
</svg>
