<?xml version="1.0" encoding="UTF-8" standalone="no"?>
<!-- Created with Inkscape (http://www.inkscape.org/) -->

<svg
   version="1.1"
   id="svg218"
   width="180"
   height="180"
   viewBox="0 0 180 180"
   sodipodi:docname="flag.svg"
   inkscape:version="1.2.2 (732a01da63, 2022-12-09)"
   xmlns:inkscape="http://www.inkscape.org/namespaces/inkscape"
   xmlns:sodipodi="http://sodipodi.sourceforge.net/DTD/sodipodi-0.dtd"
   xmlns="http://www.w3.org/2000/svg"
   xmlns:svg="http://www.w3.org/2000/svg">
  <defs
     id="defs222" />
  <sodipodi:namedview
     id="namedview220"
     pagecolor="#ffffff"
     bordercolor="#000000"
     borderopacity="0.25"
     inkscape:showpageshadow="2"
     inkscape:pageopacity="0.0"
     inkscape:pagecheckerboard="0"
     inkscape:deskcolor="#d1d1d1"
     showgrid="false"
     inkscape:zoom="3.2880465"
     inkscape:cx="20.680973"
     inkscape:cy="83.636286"
     inkscape:window-width="1920"
     inkscape:window-height="1017"
     inkscape:window-x="-8"
     inkscape:window-y="-8"
     inkscape:window-maximized="1"
     inkscape:current-layer="g224" />
  <g
     inkscape:groupmode="layer"
     inkscape:label="Image"
     id="g224">
    <path
       style="fill:#000000"
       d="M 86.174314,150.68555 C 84.978441,149.4126 84,147.84617 84,147.2046 84,146.56303 82.7625,145.77856 81.25,145.46134 67.951967,142.67228 62.123541,140.22946 53.656338,133.8962 31.50178,117.32513 24.657088,86.09219 37.587921,60.574581 c 3.133566,-6.183754 3.381804,-7.233458 2.317967,-9.801788 -3.451831,-8.333457 6.20014,-16.997519 14.17874,-12.727501 1.555507,0.832481 3.430983,0.314904 9.212084,-2.542271 C 85.325446,24.61583 111.46062,28.577505 129,45.46259 c 5.16383,4.971194 5.88355,5.332025 11.77508,5.903408 C 146.48545,51.919811 153,54.191087 153,55.628176 c 0,0.317248 -1.40083,4.693192 -3.11296,9.724319 -2.78907,8.19576 -3.0958,10.256128 -2.94808,19.802811 0.25589,16.537674 -4.21469,29.664514 -13.97942,41.047294 -5.31794,6.19916 -17.08353,13.97497 -24.77553,16.37401 -4.93311,1.53858 -6.16862,2.33592 -6.17546,3.98533 -0.0232,5.59899 -11.612751,8.61717 -15.834236,4.12361 z m 9.875346,-1.21123 C 98.068754,148.43021 99,147.19395 99,145.55765 c 0,-1.31504 -0.3375,-2.57973 -0.75,-2.81042 -0.4125,-0.23069 -0.3,-0.33047 0.25,-0.22172 0.55,0.10875 1.9,-0.15838 3,-0.59361 1.81438,-0.71789 1.76798,-0.80025 -0.5,-0.88743 -1.630245,-0.0627 -0.23864,-0.8699 4,-2.32029 18.25533,-6.24664 31.61726,-20.50523 36.35611,-38.795793 0.96044,-3.707031 1.56072,-4.794182 1.893,-3.428387 0.29254,1.202439 0.40896,0.903354 0.29193,-0.75 -0.10706,-1.5125 0.24197,-2.75 0.77563,-2.75 0.60418,0 0.71857,-3.334518 0.30315,-8.837427 -0.61405,-8.134213 -0.42436,-9.580363 2.38393,-18.174045 2.38053,-7.284705 2.77033,-9.511026 1.77366,-10.130211 C 147.03716,54.777183 138.5367,53 135.10577,53 c -1.53769,0 -3.60068,-0.889388 -4.58443,-1.976419 -0.98375,-1.08703 -2.24802,-1.692501 -2.8095,-1.345491 -0.56147,0.34701 -0.74384,0.182702 -0.40526,-0.365129 0.33858,-0.547832 -0.99834,-2.52986 -2.97092,-4.404509 -2.57799,-2.44999 -3.27005,-2.794235 -2.46109,-1.224193 1.99625,3.874371 1.20797,3.605054 -2.45762,-0.839645 -3.5808,-4.341901 -9.86528,-8.173252 -12.10234,-7.378237 -0.65197,0.231698 -1.32697,0.02974 -1.5,-0.448794 -0.33883,-0.937037 -7.047526,0.185535 -15.607805,2.611666 -5.514469,1.562896 -17.742176,7.72078 -24.812643,12.49567 -2.258211,1.525035 -6.533211,3.848045 -9.5,5.162244 -8.655262,3.834025 -8.656898,3.843051 -2.978071,16.429398 3.894163,8.630883 11.165303,23.04791 12.662651,25.107175 0.794589,1.092779 7.926247,-4.102234 13.851642,-10.090143 9.673193,-9.775249 18.538596,-13.972726 30.743996,-14.556273 7.73942,-0.370027 8.87702,-0.206948 9.47781,1.358673 0.68553,1.78648 0.33381,2.168311 -7.67114,8.327695 -2.93215,2.256142 -3.56762,4.942532 -1.03172,4.361535 0.65963,-0.151127 0.92248,0.173181 0.5841,0.720684 -0.67487,1.091959 1.82014,1.834032 7.96657,2.369447 3.1536,0.27471 2.80675,0.38401 -1.63922,0.516543 -7.37138,0.219738 -10.92899,-2.192025 -9.11294,-6.177817 0.64676,-1.419476 2.95525,-3.704104 5.12998,-5.076952 7.6043,-4.800381 6.33206,-6.130018 -4.43276,-4.632769 C 98.010071,75.53482 88.678278,80.264682 80.638911,88.544887 67.820638,101.74716 65.804496,102.00859 59.777467,91.25 57.389589,86.9875 53.669371,79.5625 51.510315,74.75 49.351259,69.9375 47.296532,66 46.944254,66 c -1.500009,0 -4.950961,10.435722 -6.283042,19 -0.213866,1.375 -0.440638,0.25 -0.503938,-2.5 -0.06985,-3.034591 0.85761,-7.751572 2.35946,-12 1.361002,-3.85 2.483402,-8.35 2.494221,-10 0.01328,-2.024551 0.294592,-2.566301 0.865194,-1.666154 0.683411,1.078106 0.959698,1.036313 1.441014,-0.217975 0.327519,-0.853502 0.170122,-1.814712 -0.349771,-2.136024 C 44.517683,54.965843 37.100527,71.370968 35.42911,82 c -0.564181,3.58779 -0.867862,4.094573 -1.498083,2.5 -0.565459,-1.430717 -0.810463,-0.647952 -0.860742,2.75 -0.03866,2.6125 0.267215,4.752747 0.679715,4.756104 0.4125,0.0034 0.801716,1.949924 0.864924,4.325703 0.131686,4.949563 2.18021,11.912843 3.300878,11.220233 0.415041,-0.25651 1.503775,1.10461 2.419409,3.02472 C 42.601294,115.32878 42.367013,116.32349 40,112 38.946107,110.075 38.064969,108.99273 38.041916,109.59496 37.990821,110.9297 45.697351,123 46.600637,123 c 0.354339,0 0.02665,-0.7875 -0.728192,-1.75 -1.241969,-1.58363 -1.207123,-1.62039 0.366545,-0.38669 0.956444,0.74982 1.473781,1.79242 1.149638,2.31689 -1.061277,1.71719 8.940673,9.84121 17.111372,13.89861 4.4,2.18495 10.845158,4.49656 14.322574,5.13691 5.516143,1.01578 6.522435,1.55458 7.889532,4.22428 2.541359,4.96283 4.424715,5.57485 9.337554,3.03432 z M 89.693584,147.25 c -0.233447,-0.4125 -2.13011,-5.925 -4.214805,-12.25 -2.084696,-6.325 -5.305779,-15.05197 -7.157962,-19.39327 -1.852183,-4.3413 -3.192649,-8.06823 -2.978813,-8.28207 0.213835,-0.21383 0.982585,1.08814 1.708331,2.89328 0.725747,1.80513 2.960298,6.88206 4.96567,11.28206 2.005372,4.4 4.907426,11.4875 6.449011,15.75 1.633484,4.5166 3.372814,7.75 4.168932,7.75 1.771389,0 1.848678,0.34104 -1.692793,-7.46951 C 87.563901,130.08212 87.609375,127.35383 91,134 c 1.176737,2.3066 2.343246,3.99009 2.59224,3.74109 0.248995,-0.24899 -3.203516,-7.91674 -7.672247,-17.03945 -4.46873,-9.1227 -7.904271,-17.17508 -7.634535,-17.89418 0.269736,-0.7191 4.075978,6.11754 8.458315,15.19254 8.094963,16.76315 9.983084,21.56726 7.993029,20.33733 -0.692438,-0.42795 -0.836072,-0.0384 -0.402476,1.09153 1.863147,4.85528 1.825486,6.41524 -0.180799,7.48897 -2.368317,1.26749 -3.867428,1.37914 -4.459943,0.33217 z m 7.307802,-11.0539 c 7.62e-4,-0.38286 2.588852,-1.45636 5.751314,-2.38557 15.5768,-4.57685 28.33055,-18.0782 33.35529,-35.31053 0.96224,-3.3 1.78158,-5.034901 1.82077,-3.855335 0.12258,3.690147 -3.72276,14.643745 -6.89714,19.646775 -4.25097,6.6998 -10.78294,12.76798 -17.6674,16.41298 -6.14836,3.25526 -16.365208,6.68423 -16.362834,5.49168 z M 44.954163,109.91435 c -0.613912,-1.1471 -0.927843,-2.274 -0.697624,-2.50422 0.230219,-0.23022 0.932031,0.70832 1.559582,2.08564 1.378071,3.02454 0.707091,3.35038 -0.861958,0.41858 z m -2.330624,-5.45301 c -0.342947,-0.8937 -0.595015,-2.15061 -0.560153,-2.79313 0.03486,-0.64251 0.49453,-0.0904 1.021483,1.22697 0.526953,1.31735 0.779022,2.57426 0.560152,2.79313 -0.218869,0.21887 -0.678536,-0.33327 -1.021482,-1.22697 z M 129.11436,87.05163 c 3.0879,-0.971265 6.19493,-2.124746 6.90451,-2.563291 0.83714,-0.517384 1.04525,-0.401102 0.59268,0.331169 -0.68859,1.114168 -9.97126,4.266142 -12.04305,4.089275 -0.58768,-0.05017 1.45796,-0.885889 4.54586,-1.857153 z M 111,84.622445 c 0,-0.207656 0.7875,-0.995156 1.75,-1.75 1.58606,-1.243871 1.62143,-1.208501 0.37756,0.377555 C 111.82119,84.915748 111,85.445479 111,84.622445 Z M 122.12756,132.25 c 1.24387,-1.58606 1.2085,-1.62143 -0.37756,-0.37756 -0.9625,0.75485 -1.75,1.54235 -1.75,1.75 0,0.82304 0.82119,0.29331 2.12756,-1.37244 z M 128.5,127 c 2.14824,-2.2 3.6809,-4 3.4059,-4 -0.275,0 -2.25766,1.8 -4.4059,4 -2.14824,2.2 -3.6809,4 -3.4059,4 0.275,0 2.25766,-1.8 4.4059,-4 z M 34.683114,77.8125 c -0.319226,-0.797733 -0.556183,-0.560776 -0.604167,0.604167 -0.04342,1.054166 0.192928,1.644791 0.52522,1.3125 0.332291,-0.332292 0.367818,-1.194792 0.07895,-1.916667 z M 66.044783,47.175729 c 7.838295,-5.01942 6.656438,-5.572085 -1.461767,-0.683556 -5.563135,3.349945 -7.802265,3.703379 -7.491054,1.18242 0.49791,-4.03331 -0.303799,-5.466369 -3.987355,-7.127422 -3.390043,-1.528696 -4.262702,-1.58053 -6.726736,-0.39955 -3.865307,1.852594 -5.08202,5.688756 -3.410595,10.753226 0.906676,2.747253 1.978255,4.098968 3.426027,4.32167 3.052439,0.469539 12.204697,-3.278081 19.65148,-8.046788 z M 50,49.9512 c 0.825,-0.559996 2.4,-1.478513 3.5,-2.04115 1.571769,-0.80394 1.49452,-0.582655 -0.360784,1.033487 -1.298431,1.131055 -2.873431,2.049572 -3.5,2.04115 C 49.012647,50.976265 49.175,50.511196 50,49.9512 Z M 49.078947,45.323324 C 49.035526,44.676152 48.2125,43.990595 47.25,43.799863 c -1.020553,-0.202236 -1.313271,-0.622122 -0.702254,-1.007341 1.515197,-0.955263 3.791699,0.735515 3.153086,2.341824 -0.330843,0.832172 -0.573777,0.905995 -0.621885,0.188978 z M 71.612561,41.04377 C 77.442937,38.862346 80.544701,38.355488 78,40 c -2.3852,1.541435 -0.391235,1.15421 3.423245,-0.664789 1.920104,-0.915634 3.215842,-2.110163 2.879418,-2.654508 -0.336424,-0.544346 -0.152494,-0.705927 0.408734,-0.359069 0.561228,0.346857 4.793257,-0.181233 9.404509,-1.173535 8.178134,-1.759864 8.285834,-1.820421 4.384094,-2.465136 -2.2,-0.363524 -7.15,-0.590256 -11,-0.50385 l -7,0.157102 6,0.663785 6,0.663785 -4.855655,0.168107 C 80.953672,34.06353 71.776637,36.579165 64.829964,40.085834 60.105219,42.470878 59,43.494287 59,45.484258 v 2.455468 l 3.575049,-2.426093 c 1.966276,-1.334351 6.033157,-3.34579 9.037512,-4.469863 z"
       id="path228" />
  </g>
</svg>
