<?xml version="1.0" encoding="UTF-8" standalone="no"?>
<!-- Created with Inkscape (http://www.inkscape.org/) -->

<svg
   version="1.1"
   id="svg191"
   width="180"
   height="180"
   viewBox="0 0 180 180"
   sodipodi:docname="plus.svg"
   inkscape:version="1.2.2 (732a01da63, 2022-12-09)"
   xmlns:inkscape="http://www.inkscape.org/namespaces/inkscape"
   xmlns:sodipodi="http://sodipodi.sourceforge.net/DTD/sodipodi-0.dtd"
   xmlns="http://www.w3.org/2000/svg"
   xmlns:svg="http://www.w3.org/2000/svg">
  <defs
     id="defs195" />
  <sodipodi:namedview
     id="namedview193"
     pagecolor="#ffffff"
     bordercolor="#000000"
     borderopacity="0.25"
     inkscape:showpageshadow="2"
     inkscape:pageopacity="0.0"
     inkscape:pagecheckerboard="0"
     inkscape:deskcolor="#d1d1d1"
     showgrid="false"
     inkscape:zoom="3.2880465"
     inkscape:cx="94.889168"
     inkscape:cy="96.409828"
     inkscape:window-width="1920"
     inkscape:window-height="1017"
     inkscape:window-x="-8"
     inkscape:window-y="-8"
     inkscape:window-maximized="1"
     inkscape:current-layer="g197" />
  <g
     inkscape:groupmode="layer"
     inkscape:label="Image"
     id="g197">
    <path
       style="fill:#000000"
       d="M 56.266667,126.73333 C 25.290692,95.757359 23,93.226418 23,89.977651 23,86.729745 25.263587,84.225828 55.755598,53.744318 86.282358,23.228071 88.749352,21 92.011195,21 95.274587,21 97.758592,23.248148 128.7556,54.255516 159.80145,85.311749 162,87.743474 162,91.025822 c 0,3.282709 -2.1648,5.675931 -32.78508,36.244488 C 98.856985,157.57695 96.174555,160 92.981585,160 89.786353,160 87.092353,157.55902 56.266667,126.73333 Z M 128.25,124.2821 C 145.7125,106.76218 160,91.765841 160,90.956904 160,90.147967 147.74157,77.339235 132.75905,62.493055 L 105.5181,35.5 131.75905,62.043427 C 151.64991,82.163573 158,89.176968 158,91.025427 158,92.890686 150.76638,100.69762 127.232,124.232 98.716654,152.74735 96.210365,155 92.999717,155 c -3.211849,0 -5.742696,-2.27841 -34.732,-31.26772 C 34.291337,99.755904 27,91.894282 27,90.018993 27,88.145006 34.298881,80.260993 58.228754,56.28671 90.513671,23.941876 92.026182,22.739833 96.023466,26.25 c 0.782907,0.6875 0.578163,0.2375 -0.454987,-1 C 94.535329,24.0125 92.963131,23 92.074706,23 90.084497,23 25,88.011497 25,89.999474 c 0,1.729877 63.662549,65.841796 66.5,66.969396 1.1,0.43714 2.675,0.42868 3.5,-0.0188 0.825,-0.44747 15.7875,-15.14806 33.25,-32.66798 z m -3.03729,-1.01052 C 145.01352,103.50863 156,91.832127 156,90.550642 156,88.317645 94.848427,27.695044 92.11506,27.218317 90.214955,26.88692 29,87.797514 29,90.01957 29,91.907653 91.092347,154 92.98043,154 c 0.794749,0 15.29928,-13.82779 32.23228,-30.72842 z M 90.5,148.01861 C 89.4,147.54857 76.200607,134.82467 61.168015,119.74327 37.427528,95.925711 33.879654,91.972634 34.168015,89.659607 34.409925,87.719182 41.933355,79.535704 61.8966,59.498331 86.577147,34.726138 89.616402,32 92.553309,32 c 2.952424,0 5.840733,2.645985 30.603401,28.035828 19.20477,19.691183 27.44107,28.806565 27.6718,30.625305 0.28072,2.212681 -3.2843,6.225144 -24.5,27.575007 -22.31054,22.45164 -31.442836,30.88914 -33.228548,30.70047 C 92.769983,148.90175 91.6,148.48865 90.5,148.01861 Z m 30.77027,-28.74834 c 15.25135,-15.25135 27.73432,-28.188851 27.73992,-28.75 C 149.02407,89.130522 92.756039,34.000644 91.5,34.173359 90.95,34.248988 78.137641,46.837281 63.028092,62.147343 L 35.556183,89.983819 63.528092,118.34773 c 15.384549,15.60015 28.43103,28.42879 28.992178,28.50809 0.561149,0.0793 13.49865,-12.3342 28.75,-27.58555 z m -38.495129,11.2226 C 78.663337,128.1835 78,126.04045 78,115.06574 V 105 H 67.555764 c -9.597873,0 -10.671606,-0.19552 -13.25,-2.41275 -2.623677,-2.25616 -2.82815,-2.994567 -3.150707,-11.377962 -0.337392,-8.768969 -0.279032,-9.039029 2.666073,-12.337252 L 56.832145,75.5 67.416072,75.158975 78,74.81795 V 64.497869 C 78,54.201551 78.007085,54.171826 81.076725,51.588894 83.857959,49.248639 84.968742,49 92.642467,49 c 4.668959,0 9.354773,0.46334 10.412923,1.029644 C 106.63178,51.943672 108,56.349065 108,65.95034 V 75 h 8.35078 C 131.53502,75 134,77.170638 134,90.54174 c 0,8.18531 -0.14486,8.756967 -2.92308,11.53518 C 128.23733,104.91652 127.8693,105 118.19034,105 h -9.9635 l -0.38878,10.50263 c -0.36551,9.87398 -0.5532,10.66708 -3.13578,13.25 -2.49256,2.49289 -3.50911,2.7716 -10.974642,3.009 -5.931674,0.18863 -8.988023,-0.16543 -10.952497,-1.26876 z m 20.466069,-3.29114 c 2.06403,-2.0654 2.25879,-3.18464 2.25879,-12.98101 V 103.5 l 11.34197,-0.5 c 10.40497,-0.45869 11.49959,-0.69503 13.25,-2.86078 2.83085,-3.502579 2.72686,-15.828528 -0.16455,-19.504361 C 127.91652,78.078414 127.53282,78 117.03441,78 108.09008,78 106.10873,77.725741 105.60699,76.418213 105.27314,75.548229 105,70.40589 105,64.990793 c 0,-9.54903 -0.0828,-9.910872 -2.75,-12.01123 C 99.857484,51.095481 98.496398,50.859345 91.779646,51.163051 81.028389,51.649182 80.629291,52.161389 80,66.281182 L 79.5,77.5 68.16603,78 c -12.330837,0.543977 -14.06991,1.391177 -14.248261,6.94113 -0.04523,1.407378 -0.286269,3.801207 -0.535649,5.319618 -0.552446,3.363695 1.216942,10.359842 2.895055,11.447032 C 56.949729,102.1435 62.45,102.725 68.5,103 l 11,0.5 0.248903,9.5 c 0.136896,5.225 0.480115,10.50112 0.762707,11.72472 0.860331,3.72515 5.109647,5.33766 13.229601,5.02031 5.958435,-0.23287 7.641359,-0.68342 9.499999,-2.5433 z m -19.004591,-2.36511 c -0.68014,-0.68014 -1.164602,-2.83412 -1.076582,-4.78662 l 0.160037,-3.55 0.397767,3.17553 c 0.579539,4.62668 2.195849,5.4594 9.942147,5.12221 L 100.5,124.5 l 0.62333,-5 0.62333,-5 -0.12333,5.5 -0.12333,5.5 -8.013381,0.28662 c -5.375533,0.19227 -8.420451,-0.12045 -9.25,-0.95 z M 101.03041,104.25 c -0.0387,-1.59034 3.58061,-5.25 5.1921,-5.25 0.67237,0 0.23566,0.691208 -0.97047,1.53602 -1.20614,0.84481 -2.64258,2.30731 -3.1921,3.25 -0.56753,0.97359 -1.01226,1.17402 -1.02953,0.46398 z M 81.285733,101.30055 C 80.067887,100.03525 79.435642,99 79.880746,99 c 0.975158,0 4.613348,3.88818 4.02979,4.30668 -0.225795,0.16194 -1.406956,-0.74082 -2.624803,-2.00613 z M 125,99.59106 c 0,-0.190394 0.675,-0.906371 1.5,-1.59106 0.86459,-0.717549 1.5,-0.814738 1.5,-0.229434 0,0.558501 -0.675,1.274478 -1.5,1.59106 -0.825,0.316583 -1.5,0.419828 -1.5,0.229434 z M 126.5,83 c -0.33992,-0.55 -0.14148,-1 0.44098,-1 0.58246,0 1.05902,0.45 1.05902,1 0,0.55 -0.19844,1 -0.44098,1 -0.24254,0 -0.7191,-0.45 -1.05902,-1 z m -23.62756,-3.75 c -1.24387,-1.586056 -1.2085,-1.621426 0.37756,-0.377555 0.9625,0.754844 1.75,1.542344 1.75,1.75 0,0.823034 -0.82119,0.293303 -2.12756,-1.372445 z"
       id="path201" />
  </g>
</svg>
