<?xml version="1.0" encoding="UTF-8" standalone="no"?>
<!-- Created with Inkscape (http://www.inkscape.org/) -->

<svg
   version="1.1"
   id="svg208"
   width="180"
   height="180"
   viewBox="0 0 180 180"
   sodipodi:docname="portal.svg"
   inkscape:version="1.2.2 (732a01da63, 2022-12-09)"
   xmlns:inkscape="http://www.inkscape.org/namespaces/inkscape"
   xmlns:sodipodi="http://sodipodi.sourceforge.net/DTD/sodipodi-0.dtd"
   xmlns="http://www.w3.org/2000/svg"
   xmlns:svg="http://www.w3.org/2000/svg">
  <defs
     id="defs212" />
  <sodipodi:namedview
     id="namedview210"
     pagecolor="#ffffff"
     bordercolor="#000000"
     borderopacity="0.25"
     inkscape:showpageshadow="2"
     inkscape:pageopacity="0.0"
     inkscape:pagecheckerboard="0"
     inkscape:deskcolor="#d1d1d1"
     showgrid="false"
     inkscape:zoom="3.2880465"
     inkscape:cx="114.04948"
     inkscape:cy="100.97181"
     inkscape:window-width="1920"
     inkscape:window-height="1017"
     inkscape:window-x="-8"
     inkscape:window-y="-8"
     inkscape:window-maximized="1"
     inkscape:current-layer="g214" />
  <g
     inkscape:groupmode="layer"
     inkscape:label="Image"
     id="g214">
    <path
       style="fill:#000000"
       d="M 87.75,135.67647 C 83.412572,132.12514 84.086324,130 89.54966,130 94.100763,130 100,132.24049 100,133.96898 c 0,1.56149 -4.313293,4.03289 -6.972506,3.99506 -1.390122,-0.0198 -3.764994,-1.04919 -5.277494,-2.28757 z m 7.679736,-1.79016 C 95.128462,133.39884 93.728424,133 92.318538,133 c -2.081014,0 -2.345274,0.26286 -1.404215,1.39677 1.227375,1.47889 5.449885,1.00155 4.515413,-0.51046 z m -41.439592,2.24538 c -1.380421,-0.34743 -5.54,-2.33958 -9.243509,-4.427 -5.203911,-2.9331 -7.60438,-5.0913 -10.566436,-9.5 C 29.912567,115.85277 25,104.27403 25,100.56728 25,97.871672 33.301667,90.017566 36.16263,90.006456 37.557313,90.00104 37.358785,89.15392 34.930745,84.75 c -1.591983,-2.8875 -2.902666,-5.818349 -2.91263,-6.512997 -0.01,-0.694648 1.988906,-2.238083 4.441933,-3.429855 4.76708,-2.316027 4.59852,-1.959787 6.598666,-13.945794 0.936516,-5.612139 0.862999,-7.112063 -0.47545,-9.70034 -2.252759,-4.356354 -2.086654,-5.018189 2.831891,-11.28348 l 4.413897,-5.622467 -3.890889,-2.877533 c -2.139988,-1.582644 -3.901525,-3.449682 -3.914525,-4.148974 -0.04661,-2.5073 5.08198,-8.918757 8.74392,-10.931119 2.052843,-1.128108 7.421286,-3.33978 11.929873,-4.914828 l 8.19743,-2.8637227 6.505225,3.2078717 c 5.902916,2.910859 6.608936,3.593028 7.625366,7.367758 0.616077,2.287938 0.749882,4.479828 0.297344,4.870866 -0.452538,0.391039 -5.714262,1.728428 -11.69272,2.971975 -10.740559,2.234087 -24.333036,7.559097 -21.556774,8.445115 4.758136,1.518516 7.775174,1.316218 12.426698,-0.833231 8.54069,-3.946617 10.346263,-3.840711 3,0.175964 -9.022179,4.933007 -12.590831,7.300977 -14.730492,9.774379 -3.44507,3.982428 -6.239155,11.184482 -7.856029,20.249757 -1.640472,9.197584 -1.636571,9.287122 0.697077,16 2.861583,8.231513 4.222064,10.917085 7.139444,14.093174 1.2375,1.347239 2.25,2.813967 2.25,3.259394 0,0.445427 3.0375,2.622167 6.75,4.837187 3.7125,2.21503 7.5375,4.64699 8.5,5.40436 1.891081,1.48804 2.43957,3.20075 0.675972,2.11079 -0.590715,-0.36508 -2.053215,0.22608 -3.25,1.3137 -1.196784,1.08762 -2.850972,2.22424 -3.675972,2.52582 -1.169406,0.42748 -1.10698,0.56573 0.283244,0.62728 2.661054,0.11781 12.420049,5.32109 10.933134,5.8293 -0.705992,0.2413 -1.887055,-0.0621 -2.624583,-0.67417 -0.737528,-0.61209 -5.202091,-2.62871 -9.92125,-4.48137 l -8.580288,-3.36848 -4.714607,2.38683 C 46.581531,116.02773 42.909798,117 40.361907,117 c -3.598976,0 -4.195142,0.27101 -3.660583,1.66404 0.463649,1.20826 0.275777,1.43984 -0.685894,0.8455 -0.906991,-0.56055 -1.086589,-0.43369 -0.569803,0.40248 0.415054,0.67157 1.013699,0.96199 1.330321,0.64536 0.316623,-0.31662 1.509062,0.27117 2.649865,1.30619 1.140803,1.03503 3.424187,2.38385 5.074187,2.99738 l 3,1.11551 -3.5,-0.59952 c -1.925,-0.32974 -4.4,-1.33695 -5.5,-2.23823 -1.984395,-1.62592 -1.985093,-1.62111 -0.0895,0.61738 1.050774,1.24085 4.901779,3.98069 8.557789,6.08854 5.376596,3.09983 8.042204,3.96209 13.944397,4.51064 6.400811,0.59489 7.717941,0.4181 10.723297,-1.43931 1.884405,-1.16463 4.3382,-3.90519 5.452878,-6.09014 l 2.026688,-3.97263 6.419636,0.68748 c 9.208694,0.98617 10.696118,0.37062 13.483155,-5.57982 1.91871,-4.09653 2.12389,-5.25491 1.0485,-5.91954 -1.730721,-1.06965 0.91667,-2.57239 6.31639,-3.58538 3.97585,-0.74588 16.45584,-8.501093 20.30349,-12.616842 C 127.88942,94.552589 130.00297,89.675 131.3835,85 c 2.45237,-8.304684 3.3116,-8.531832 1.74591,-0.461552 l -0.78349,4.038447 3.22983,-1.538447 c 2.22843,-1.061452 3.3613,-2.391086 3.65385,-4.288448 0.23321,-1.5125 0.10537,-2.75 -0.28408,-2.75 -0.38945,0 -1.28253,-2.1375 -1.98463,-4.75 -0.88288,-3.285222 -1.41199,-4.133251 -1.71578,-2.75 -0.74344,3.38512 -1.93588,3.753159 -1.45075,0.447766 0.68662,-4.67825 -2.60882,-15.445138 -6.02996,-19.701149 -1.81632,-2.259559 -2.77646,-2.952803 -2.41905,-1.746617 0.32594,1.1 1.49115,5.888757 2.58935,10.641681 2.58085,11.1697 1.95472,17.146597 -2.74707,26.223191 -2.96321,5.720331 -4.80523,7.804386 -11.04832,12.499998 L 106.64709,106.5 H 94.073544 C 78.497245,106.5 72.531748,104.57056 62.587343,96.316292 51.580177,87.179895 46.54031,73.691468 49.050411,60.086782 49.718814,56.464052 50.72567,52.6 51.287869,51.5 52.90904,48.328013 61.135675,38.997757 63.361723,37.806412 c 1.113685,-0.596026 -0.953203,2.392682 -4.593084,6.641574 -6.092075,7.111378 -6.71664,8.277404 -7.859708,14.673624 -0.980795,5.488196 -0.986047,8.336069 -0.02499,13.551896 1.227193,6.660217 4.520245,14.52222 5.893608,14.070704 0.408543,-0.134316 4.563227,2.958543 9.23263,6.87302 11.966646,10.03194 13.300688,10.58157 26.806419,11.04442 l 11.391352,0.39039 7.80169,-5.27602 c 6.67717,-4.515548 8.31534,-6.221948 11.36527,-11.8387 5.04699,-9.294501 5.47574,-14.728948 2.22276,-28.173355 C 124.16895,53.859145 123,48.836463 123,48.602449 c 0,-0.639394 2.3178,-0.159943 3.84977,0.796348 1.07883,0.673435 1.13629,0.443674 0.28625,-1.144649 -1.75311,-3.275716 -12.08944,-12.197085 -17.02552,-14.694866 -4.61288,-2.334231 -15.636353,-4.545783 -22.802053,-4.574595 -2.094646,-0.0084 -3.298004,-0.345922 -2.674129,-0.75 0.623875,-0.404078 1.301238,-1.614957 1.505251,-2.690842 0.44062,-2.323656 3.472217,-3.308571 10.601238,-3.444165 4.841943,-0.09209 5.412753,-0.365114 7.500003,-3.587301 1.24255,-1.918192 2.77766,-3.493192 3.41134,-3.5 1.91685,-0.02059 15.23067,11.370158 15.29134,13.082633 0.0311,0.877257 -0.81327,2.38215 -1.87633,3.344207 -2.50693,2.268738 -6.58485,1.41719 -12.00059,-2.505954 -4.72141,-3.42017 -5.50595,-3.622776 -4.13917,-1.068922 1.5231,2.845949 11.03027,7.099631 14.38396,6.435651 3.99173,-0.790303 8.68864,3.77471 8.68864,8.444653 0,1.853756 1.12052,5.377511 2.49005,7.830567 1.36952,2.453055 3.0162,6.589655 3.65928,9.192443 0.64308,2.602789 1.70817,5.056168 2.36686,5.451955 0.65869,0.395786 1.77351,3.433286 2.47736,6.75 1.24813,5.88147 1.36038,6.030388 4.54527,6.030388 2.76368,0 3.43424,0.483971 4.36335,3.149223 1.64687,4.724205 1.36882,6.216972 -1.70689,9.163686 -3.37302,3.231557 -4.83256,3.356598 -7.06075,0.604905 -1.65628,-2.045427 -1.74286,-2.04984 -4.90397,-0.25 -1.76985,1.007702 -3.22076,2.289906 -3.22424,2.849341 -0.003,0.559436 3.57361,2.289139 7.94907,3.843784 4.37546,1.554646 8.3633,3.346921 8.86185,3.982841 1.33105,1.69779 2.1959,9.8004 1.50229,14.07461 -0.59211,3.64874 -0.85109,3.83532 -15.52563,11.18483 l -14.92347,7.47419 -5.63892,-1.04241 c -6.41445,-1.18578 -6.60546,-1.32635 -10.22603,-7.52562 -2.61465,-4.4769 -2.68149,-4.51588 -3.74408,-2.18374 -0.857893,1.88286 -2.10073,2.49518 -6.002465,2.95729 -2.706307,0.32052 -6.585173,0.20733 -8.619702,-0.25153 -3.57864,-0.80711 -3.762307,-0.71048 -5.638102,2.96638 -2.965973,5.81379 -7.348858,8.02609 -15.619165,7.88391 -3.785081,-0.0651 -8.011401,-0.40258 -9.391822,-0.75 z M 132,124.5 c 8.18486,-4.18808 11.65941,-6.41402 10.06499,-6.44804 -1.33925,-0.0286 -5.39322,1.47892 -9.00881,3.34999 -7.97795,4.12859 -17.38414,6.98354 -20.46283,6.21083 -3.72864,-0.93582 -7.79261,-4.6494 -7.09489,-6.48318 0.46398,-1.21946 0.33203,-1.34392 -0.5243,-0.49451 -1.83795,1.82309 3.26474,9.12064 6.74455,9.64564 6.23181,0.94018 8.29669,0.35163 20.28129,-5.78073 z m -15.5,-0.42871 c -1.65,-0.3982 -4.0125,-1.26797 -5.25,-1.93283 -1.32684,-0.71285 -2.25,-0.80448 -2.25,-0.22333 0,1.63996 3.29208,3.02833 7,2.9521 l 3.5,-0.072 -3,-0.72399 z m 9.06476,-1.96651 c -0.70784,-1.14531 2.2734,-2.32284 3.67999,-1.45352 0.67592,0.41774 0.76558,0.17447 0.24571,-0.66669 -0.59931,-0.96971 -0.35895,-1.14808 0.89743,-0.66596 0.96929,0.37195 1.46363,0.25016 1.13604,-0.27989 -0.31897,-0.51611 0.38696,-1.45585 1.56874,-2.08831 1.74269,-0.93266 2.00303,-0.89491 1.37783,0.19982 -0.42397,0.74237 0.95609,-0.22523 3.0668,-2.15023 3.6291,-3.3098 3.74161,-3.34585 2.07027,-0.66324 -0.97206,1.56022 -1.61892,2.95497 -1.43747,3.09944 1.18499,0.94351 6.68037,-1.75639 7.13817,-3.50701 0.72956,-2.78984 -0.34277,-9.0259 -1.43589,-8.35032 -0.47981,0.29654 -0.87238,-0.0637 -0.87238,-0.80062 0,-0.73687 -1.32917,-1.84148 -2.95372,-2.45468 -2.90333,-1.09588 -3.02088,-1.00779 -6.89067,5.16414 -3.84709,6.13574 -4.13399,6.35341 -12.5709,9.53771 -4.74867,1.79227 -8.3629,3.52973 -8.0316,3.86102 0.33129,0.33129 3.15487,0.87621 6.27462,1.21093 3.11975,0.33472 6.03633,0.67475 6.48129,0.75561 0.44496,0.0809 0.56004,-0.25583 0.25574,-0.7482 z m -8.15631,-8.66744 c 1.78034,-0.72104 1.72652,-0.91799 -0.80174,-2.93395 -2.64988,-2.11295 -2.82072,-2.12361 -7.6781,-0.47922 -5.85459,1.98197 -5.48359,1.64617 -6.24536,5.65278 l -0.60403,3.17696 6.71039,-2.32182 c 3.69071,-1.277 7.56919,-2.66964 8.61884,-3.09475 z m -70.401128,-0.057 c 3.681364,-1.47299 3.886879,-1.73808 2.270236,-2.9284 -1.514243,-1.11491 -2.107636,-1.00033 -4.005811,0.77349 -1.225539,1.14526 -3.925539,2.41129 -6,2.8134 L 35.5,114.77 l 3.729764,0.115 c 2.05137,0.0632 5.551271,-0.61382 7.777558,-1.50461 z m -5.475203,-1.82936 C 43.935817,110.5467 45,109.45455 45,107.99201 c 0,-1.42189 0.407666,-1.86513 1.25,-1.35907 1.824185,1.09594 -1.307539,-2.76044 -4.052662,-4.99041 -1.266465,-1.0288 -2.052983,-2.120219 -1.747819,-2.425383 C 41.119864,98.546803 38.054262,95 36.80452,95 c -0.487028,0 -2.217283,0.984626 -3.845013,2.188058 -3.515487,2.599113 -3.759039,5.453772 -0.986437,11.561942 2.14786,4.73184 3.787843,5.21239 9.559049,2.80103 z M 66,108.97212 c 0,-0.43065 -2.884602,-2.47041 -6.410227,-4.53282 -3.525625,-2.0624 -6.895094,-4.81399 -7.487709,-6.114639 C 51.065818,96.050348 47.432094,94 44.437698,94 c -0.90874,0 0.302767,2.417711 3.3151,6.61569 3.983076,5.5508 5.632501,6.97593 10.247202,8.85375 5.175045,2.10582 8,1.93021 8,-0.49732 z m 61.37526,-0.22179 c 1.89664,-0.25399 3.59904,-1.69049 5.61851,-4.74093 1.59356,-2.40708 2.68108,-4.726482 2.41672,-5.154224 -0.26435,-0.427741 -2.01502,-1.065561 -3.89036,-1.417377 -3.00279,-0.563328 -4.15028,-0.06981 -9.61534,4.135461 l -6.20563,4.77513 2.83624,2.26154 c 1.99518,1.5909 3.32294,2.00107 4.47748,1.38317 0.90269,-0.4831 2.86576,-1.04234 4.36238,-1.24277 z m 19.30785,-3.93783 c -0.31922,-0.79773 -0.55618,-0.56078 -0.60416,0.60417 -0.0434,1.05416 0.19292,1.64479 0.52522,1.3125 0.33229,-0.3323 0.36781,-1.1948 0.0789,-1.91667 z M 73,100.64752 C 73,100.2841 62.225276,91.627313 58.562242,89.047724 56.616086,87.677198 56.584436,87.700519 58,89.462009 61.635845,93.986361 73,102.46062 73,100.64752 Z M 44,98.622445 c 0,-0.207656 -0.7875,-0.995156 -1.75,-1.75 C 40.663944,95.628574 40.628574,95.663944 41.872445,97.25 43.178814,98.915748 44,99.445479 44,98.622445 Z M 46.937742,88.75 C 46.430286,86.9625 45.573749,84.375 45.034327,83 44.494905,81.625 43.60328,79.264167 43.052939,77.753704 l -1.000621,-2.746296 -3.526159,1.681508 c -4.237383,2.020668 -4.477786,2.903567 -0.776159,2.850505 2.151741,-0.03084 2.823421,0.479848 3.087492,2.347489 0.185621,1.3128 -0.238794,2.743074 -0.943144,3.178387 -1.930173,1.192912 0.447421,5.6766 3.29915,6.221566 4.697498,0.897693 4.71577,0.885313 3.744244,-2.536863 z m 98.905488,-3.240108 c -0.30012,-0.300114 -1.72093,0.06407 -3.15737,0.809303 -1.99923,1.037212 -2.33637,1.63029 -1.43767,2.528997 0.89871,0.898707 1.63915,0.708916 3.15737,-0.809303 1.09083,-1.090833 1.73778,-2.228882 1.43767,-2.528997 z M 39,82.440983 C 39,81.583524 38.55,81.160081 38,81.5 37.45,81.839919 37,82.541476 37,83.059017 37,83.576558 37.45,84 38,84 c 0.55,0 1,-0.701558 1,-1.559017 z m 11.764024,-38.047142 4.264024,-6.466018 -2.764024,0.366023 c -3.613925,0.478569 -8.783705,7.493424 -7.802,10.586503 0.370013,1.165808 0.979927,2.088119 1.355364,2.049581 0.375436,-0.03854 2.601423,-2.979778 4.946636,-6.536089 z m 73.741526,-5.38771 C 123.50701,37.902759 122.23133,37 121.6707,37 c -0.56063,0 0.0359,1.123226 1.3256,2.496057 2.75147,2.928813 4.18271,2.464212 1.50925,-0.489926 z M 71.776451,24.617582 c 10.17926,-2.204068 10.709892,-2.443626 10.454486,-4.719751 -0.455851,-4.062436 -2.751006,-4.94821 -7.222988,-2.787583 -5.163814,2.494883 -6.554426,2.353814 -1.757949,-0.178334 3.819536,-2.016403 5.102241,-3.388048 2.085955,-2.23059 -1.111312,0.42645 -1.426223,0.253749 -0.948062,-0.519931 0.482508,-0.780714 0.156417,-0.943759 -1,-0.5 -1.095886,0.420531 -1.475499,0.269373 -1.050496,-0.418296 0.471026,-0.762136 -0.377346,-0.756726 -2.903305,0.01851 -2.956943,0.907512 -3.460547,1.448735 -2.937421,3.156843 0.347254,1.133851 0.715061,2.709543 0.81735,3.501537 0.183637,1.421859 -8.188084,6.250534 -15.314021,8.832882 -2.681406,0.971707 -3.164429,1.479459 -2.065226,2.170956 0.964148,0.606534 3.022913,0.09783 6.276451,-1.550863 2.662922,-1.349404 9.667273,-3.498327 15.565226,-4.775382 z M 119.5,28 c 0,-0.825 -0.60987,-1.371711 -1.35526,-1.214913 -0.74539,0.156797 -1.98289,-0.235803 -2.75,-0.872445 -0.76711,-0.636642 -1.42917,-0.989931 -1.47125,-0.785087 -0.75043,3.652959 -0.73142,3.677749 2.17958,2.842886 1.59547,-0.457577 2.89693,-0.444183 2.89693,0.02981 0,0.473354 -1.0125,1.078153 -2.25,1.343999 -1.98274,0.425941 -1.95304,0.463898 0.25,0.319551 1.48275,-0.09715 2.5,-0.774153 2.5,-1.663805 z m -18.13885,-1.57157 c -1.561583,-2.383275 -2.057519,-2.522264 -6.773055,-1.898179 -6.746497,0.892875 -8.259768,2.435938 -2.538095,2.588064 3.541637,0.09416 8.90704,0.976486 10.72305,1.76337 0.15018,0.06507 -0.48517,-1.038892 -1.4119,-2.453255 z M 61.175847,18.671427 c 0.945118,-1.765969 0.780066,-1.880784 -1.818183,-1.264781 -3.301492,0.78273 -10.511865,5.524733 -11.096729,7.297919 -0.634617,1.924024 11.753503,-3.863025 12.914912,-6.033138 z m 49.562253,3.638097 c -0.92977,-0.929762 -1.97126,-1.409701 -2.31443,-1.066531 C 107.43949,22.227176 108.95036,24 110.7733,24 c 1.52648,0 1.52374,-0.131535 -0.0352,-1.690476 z M 64.968575,18.809017 c 0.09162,-2.014543 -1.735457,-1.280322 -3.210772,1.290268 l -1.688266,2.941633 2.433807,-1.770459 c 1.338593,-0.973752 2.447947,-2.081401 2.465231,-2.461442 z M 71.75,125.96884 c 1.2375,-0.49742 2.285526,-1.70639 2.328947,-2.68662 0.04887,-1.10325 0.275373,-1.2932 0.594541,-0.4986 0.679722,1.69224 -1.48971,4.23307 -3.545933,4.15299 -1.101396,-0.0429 -0.90017,-0.35576 0.622445,-0.96777 z m 8.820027,-9.85553 c -0.75268,-1.21787 2.095009,-3.43836 3.386168,-2.64038 C 85.72728,114.56752 85.108531,117 83.059017,117 c -1.067541,0 -2.187586,-0.39901 -2.48899,-0.88669 z M 21.261707,89.182905 C 19.888025,88.310448 17.692547,78.306486 18.564967,76.894882 18.869154,76.402697 21.791476,76 25.059017,76 30.675059,76 31,76.132202 31,78.417095 c 0,1.329402 -0.884008,4.479402 -1.964463,7 -1.980256,4.619751 -4.504223,5.842415 -7.77383,3.76581 z m 5.537405,-5.503903 C 28.468629,79.062033 28.436602,79 24.383369,79 c -3.262574,0 -3.557602,0.220268 -3.013655,2.25 0.331637,1.2375 0.609121,3.0375 0.616631,4 0.0245,3.139644 3.522236,1.997901 4.812767,-1.570998 z M 149.47608,74.924639 c -0.79108,-2.492475 -0.10855,-3.38132 1.98079,-2.579562 C 153.40191,73.091456 153.4947,77 151.56739,77 c -0.78794,0 -1.72903,-0.933912 -2.09131,-2.075361 z M 26.074054,69.58923 C 23.768701,66.811449 23.840098,61.640561 26.282399,54.5 l 2.394225,-7 5.533011,-0.296064 c 5.044979,-0.269951 5.587257,-0.09354 6.148033,2 1.210507,4.519186 0.603672,9.63462 -1.78319,15.031738 -2.046262,4.626963 -2.925797,5.58459 -5.625,6.12443 -4.59674,0.919348 -5.562532,0.811064 -6.875424,-0.770874 z m 7.549571,-5.481204 c 0.617994,-1.228719 1.467682,-2.167249 1.888197,-2.085621 1.525979,0.296216 2.457874,-2.632802 2.472865,-7.772405 L 38,49 34.25,49.160037 c -3.473806,0.14825 -3.521581,0.188926 -0.648664,0.552271 2.733992,0.345775 3.052534,0.711771 2.689324,3.089963 -0.950923,6.22636 -1.286631,6.794495 -4.756161,8.049094 -3.669842,1.327032 -4.398744,2.88439 -2.321999,4.961135 1.594742,1.594742 3.030862,1.039821 4.411125,-1.704474 z m -1.192913,-7.010647 c -0.263082,-0.263082 -1.255117,0.332672 -2.204522,1.323898 -1.649287,1.72194 -1.627977,1.74325 0.478332,0.478332 1.212486,-0.728145 1.989272,-1.539148 1.72619,-1.80223 z M 33.52643,51.193097 C 33.177083,50.84375 32.472613,51.219889 31.96094,52.02896 30.730144,53.97513 30.750646,55.272143 32,54.5 c 0.55,-0.339919 1.061282,-0.02898 1.136182,0.690983 0.0749,0.719959 0.336261,0.257878 0.580803,-1.026847 0.244541,-1.284725 0.158792,-2.621693 -0.190555,-2.971039 z M 138.01935,60.75 c -1.6866,-5.6375 -4.18092,-12.622469 -5.54294,-15.522154 -1.36203,-2.899685 -2.47294,-5.824685 -2.46871,-6.5 C 130.01538,37.503834 137.00082,33 138.89158,33 c 0.54744,0 1.79281,1.35 2.76749,3 1.38212,2.339736 2.47685,3 4.97407,3 3.15747,0 3.24621,0.132914 6.3909,9.572158 l 3.18897,9.572158 -1.95784,5.177842 c -2.13336,5.642063 -4.7295,7.639047 -9.96223,7.6631 -3.2038,0.01473 -3.21017,0.0043 -6.27359,-10.235258 z m 11.72788,6 c 0.54567,-0.6875 1.53215,-2.926843 2.19218,-4.976318 1.06257,-3.299386 0.88154,-4.704405 -1.58009,-12.263195 -2.64121,-8.110228 -5.2457,-11.024434 -4.52303,-5.06089 0.20141,1.662116 -0.0636,2.527965 -0.66073,2.158903 -0.54836,-0.338906 -2.10586,0.371472 -3.4611,1.578618 l -2.46407,2.194809 1.86991,6.559037 c 2.86282,10.04184 2.70957,9.843508 5.03181,6.512355 1.16695,-1.673931 1.7474,-2.086912 1.33991,-0.953319 -1.66858,4.641863 -1.70464,5.5 -0.2311,5.5 0.82181,0 1.94065,-0.5625 2.48631,-1.25 z m -3.12369,-9.288659 c -0.34295,-0.893704 -0.59502,-2.150612 -0.56015,-2.793128 0.0349,-0.642517 0.49453,-0.09038 1.02148,1.226971 0.52695,1.317351 0.77902,2.574259 0.56015,2.793128 -0.21887,0.218869 -0.67854,-0.333268 -1.02148,-1.226971 z m -1.54459,-6.044674 c 0.048,-1.164943 0.28494,-1.4019 0.60416,-0.604167 0.28887,0.721875 0.25335,1.584375 -0.0789,1.916667 -0.3323,0.332291 -0.56864,-0.258334 -0.52522,-1.3125 z m -3.84013,-7.839262 c -0.3211,-0.519559 -0.92457,-0.07452 -1.34104,0.988971 -1.22635,3.131614 -1.00141,3.957605 0.51354,1.885782 0.77623,-1.061556 1.14861,-2.355194 0.8275,-2.874753 z m -3.00624,-4.875963 c -0.22585,-0.439207 -1.02036,-0.292536 -1.76557,0.325937 -1.08539,0.90079 -1.11749,1.645637 -0.16136,3.744104 l 1.19357,2.619608 0.572,-2.945545 c 0.3146,-1.62005 0.38721,-3.304897 0.16136,-3.744104 z M 118.38126,57.75 c -0.40522,-0.6875 -1.37925,-2.375 -2.1645,-3.75 -1.37076,-2.40022 -1.36074,-2.420176 0.25102,-0.5 2.03116,2.419821 3.78205,5.5 3.12642,5.5 -0.26189,0 -0.80771,-0.5625 -1.21294,-1.25 z M 107.5,43.384107 c -4.32847,-3.960339 -4.44985,-4.164112 -0.9038,-1.517219 3.72792,2.782649 7.19934,6.16352 6.27624,6.112545 C 112.6676,47.968121 110.25,45.900224 107.5,43.384107 Z m 6.02385,1.640785 c -3.85082,-4.019389 -2.38877,-5.830947 2.91683,-3.614122 2.9374,1.227321 3.63719,2.01539 3.3816,3.808188 -0.4747,3.329775 -2.99683,3.252064 -6.29843,-0.194066 z m 4.68451,-1.076601 c -0.3896,-0.312635 -1.97994,-1.109776 -3.53409,-1.771425 l -2.82573,-1.202998 2.82573,2.885291 c 1.84238,1.881209 3.07224,2.497665 3.53409,1.771425 0.3896,-0.612626 0.3896,-1.369658 0,-1.682293 z M 32.75,37.530467 c -2.769133,-3.808244 -2.195536,-5.333409 2.479254,-6.592199 6.836918,-1.840991 10.090254,1.963826 5.686937,6.650943 -2.86583,3.050536 -5.921286,3.028556 -8.166191,-0.05874 z m 6.991015,-4.122786 c -0.356331,-0.35633 -1.792499,-0.360591 -3.191484,-0.0095 -2.244357,0.563297 -2.398838,0.870222 -1.313068,2.608816 1.222372,1.957329 1.243561,1.957392 3.191484,0.0095 1.078518,-1.078518 1.669399,-2.252486 1.313068,-2.608817 z M 78,29.616577 c 0,-0.210882 1.111382,-0.595877 2.469738,-0.855543 1.358355,-0.259666 2.231798,-0.08713 1.940983,0.383423 C 81.898641,29.97302 78,30.390327 78,29.616577 Z M 89.25,16.779505 C 86.257972,15.336504 86.39949,13.178812 89.5651,11.975249 93.654734,10.420373 96,10.764045 96,12.918213 c 0,4.900977 -2.101551,6.103155 -6.75,3.861292 z"
       id="path218" />
  </g>
</svg>
